if (_typeface_js && _typeface_js.loadFace) _typeface_js.loadFace({"glyphs":{"⌐":{"x_min":78,"x_max":764.390625,"ha":842,"o":"m 78 695 l 764 695 l 764 602 l 171 602 l 171 303 l 78 303 l 78 695 "},"¦":{"x_min":418,"x_max":515,"ha":933,"o":"m 418 465 l 418 1023 l 515 1023 l 515 502 l 418 465 m 418 -270 l 418 379 l 515 415 l 515 -270 l 418 -270 "},"ǻ":{"x_min":73,"x_max":841,"ha":949,"o":"m 841 738 l 841 0 l 747 0 l 747 126 q 613 16 688 53 q 451 -20 539 -20 q 183 93 294 -20 q 73 370 73 207 q 184 643 73 530 q 454 757 296 757 q 618 718 544 757 q 747 601 692 679 l 747 738 l 841 738 m 461 665 q 315 625 382 665 q 208 516 248 586 q 169 367 169 445 q 208 217 169 288 q 316 106 248 146 q 461 67 383 67 q 608 106 539 67 q 716 212 678 145 q 754 364 754 280 q 669 578 754 492 q 461 665 585 665 m 475 1119 q 577 1076 535 1119 q 620 973 620 1034 q 577 871 620 913 q 475 829 535 829 q 373 871 415 829 q 331 973 331 913 q 373 1076 331 1034 q 475 1119 415 1119 m 474 1050 q 421 1027 443 1050 q 400 975 400 1005 q 421 923 400 945 q 474 901 443 901 q 527 923 505 901 q 549 975 549 945 q 527 1027 549 1005 q 474 1050 505 1050 m 505 1354 l 651 1354 l 451 1146 l 357 1146 l 505 1354 "},"Ő":{"x_min":78,"x_max":1128,"ha":1207,"o":"m 596 1023 q 975 871 822 1023 q 1128 499 1128 720 q 975 127 1128 280 q 604 -25 823 -25 q 230 126 383 -25 q 78 494 78 278 q 147 761 78 638 q 336 953 216 883 q 596 1023 456 1023 m 601 925 q 392 867 491 925 q 237 712 293 809 q 182 494 182 614 q 304 194 182 316 q 601 72 427 72 q 815 128 717 72 q 969 282 914 184 q 1025 499 1025 379 q 969 713 1025 617 q 814 867 914 809 q 601 925 713 925 m 576 1286 l 722 1286 l 522 1077 l 428 1077 l 576 1286 m 790 1286 l 936 1286 l 736 1077 l 642 1077 l 790 1286 "},"Ž":{"x_min":38.25,"x_max":609.03125,"ha":667,"o":"m 83 902 l 83 998 l 609 998 l 192 97 l 588 97 l 588 0 l 38 0 l 457 902 l 83 902 m 378 1074 l 284 1074 l 87 1248 l 209 1248 l 329 1145 l 453 1248 l 579 1248 l 378 1074 "},"Á":{"x_min":33.234375,"x_max":994.203125,"ha":1027,"o":"m 528 997 l 994 0 l 887 0 l 730 328 l 300 328 l 144 0 l 33 0 l 504 997 l 528 997 m 516 785 l 345 424 l 686 424 l 516 785 m 559 1284 l 705 1284 l 505 1076 l 411 1076 l 559 1284 "},"ĥ":{"x_min":106,"x_max":750,"ha":848,"o":"m 106 1022 l 201 1022 l 201 605 q 327 719 258 681 q 477 757 397 757 q 624 714 560 757 q 719 601 688 672 q 750 379 750 531 l 750 0 l 655 0 l 655 351 q 644 521 655 479 q 580 632 627 595 q 458 669 534 669 q 304 612 372 669 q 214 471 236 555 q 201 270 201 416 l 201 0 l 106 0 l 106 1022 m 378 1248 l 473 1248 l 669 1073 l 547 1073 l 428 1176 l 303 1073 l 177 1073 l 378 1248 "},"Κ":{"x_min":121,"x_max":793.328125,"ha":820,"o":"m 121 998 l 223 998 l 223 623 l 621 998 l 756 998 l 276 550 l 793 0 l 661 0 l 223 465 l 223 0 l 121 0 l 121 998 "},"Î":{"x_min":-89.671875,"x_max":402.984375,"ha":314,"o":"m 107 998 l 207 998 l 207 0 l 107 0 l 107 998 m 111 1248 l 206 1248 l 402 1074 l 280 1074 l 161 1177 l 36 1074 l -89 1074 l 111 1248 "},"e":{"x_min":71,"x_max":831.203125,"ha":903,"o":"m 727 244 l 807 202 q 716 77 768 125 q 600 5 665 30 q 454 -19 536 -19 q 172 99 274 -19 q 71 366 71 217 q 157 617 71 507 q 449 757 266 757 q 751 613 638 757 q 831 361 831 512 l 170 361 q 249 150 170 232 q 446 68 329 68 q 555 87 502 68 q 646 139 609 107 q 727 244 683 172 m 727 443 q 672 564 708 519 q 576 638 635 610 q 450 666 516 666 q 264 595 342 666 q 178 443 207 544 l 727 443 "},"ό":{"x_min":71,"x_max":839.296875,"ha":910,"o":"m 455 757 q 737 633 625 757 q 839 366 839 520 q 731 96 839 212 q 455 -19 624 -19 q 178 96 285 -19 q 71 366 71 212 q 172 632 71 520 q 455 757 284 757 m 455 664 q 252 576 337 664 q 168 364 168 489 q 206 215 168 284 q 311 108 245 146 q 455 71 376 71 q 599 108 534 71 q 704 215 665 146 q 743 364 743 284 q 657 576 743 489 q 455 664 572 664 m 505 1084 l 505 855 l 415 855 l 395 1084 l 505 1084 "},"»":{"x_min":14.234375,"x_max":575.765625,"ha":590,"o":"m 324 0 l 476 369 l 324 738 l 424 738 l 575 369 l 424 0 l 324 0 m 14 0 l 165 369 l 14 738 l 114 738 l 265 369 l 114 0 l 14 0 "},"∆":{"x_min":17.625,"x_max":831.4375,"ha":850,"o":"m 831 0 l 17 0 l 443 941 l 831 0 m 671 56 l 400 711 l 102 56 l 671 56 "},"ļ":{"x_min":-11.078125,"x_max":243,"ha":278,"o":"m 92 1023 l 187 1023 l 187 0 l 92 0 l 92 1023 m 72 -86 q 136 -76 103 -76 q 243 -150 243 -76 q 200 -227 243 -197 q 87 -258 158 -258 q -11 -242 45 -258 l 3 -194 q 74 -204 49 -204 q 162 -160 162 -204 q 112 -131 162 -131 q 64 -139 94 -131 l 72 -86 "},"Ĕ":{"x_min":122,"x_max":694,"ha":745,"o":"m 122 998 l 694 998 l 694 900 l 222 900 l 222 588 l 689 588 l 689 490 l 222 490 l 222 98 l 689 98 l 689 0 l 122 0 l 122 998 m 132 1236 l 222 1236 q 283 1183 245 1201 q 375 1166 322 1166 q 463 1181 430 1166 q 526 1236 496 1197 l 613 1236 q 536 1134 598 1175 q 375 1093 475 1093 q 212 1133 275 1093 q 132 1236 149 1173 "},"ò":{"x_min":71,"x_max":839.296875,"ha":910,"o":"m 455 757 q 737 633 625 757 q 839 366 839 520 q 731 96 839 212 q 455 -19 624 -19 q 178 96 285 -19 q 71 366 71 212 q 172 632 71 520 q 455 757 284 757 m 455 664 q 252 576 337 664 q 168 364 168 489 q 206 215 168 284 q 311 108 245 146 q 455 71 376 71 q 599 108 534 71 q 704 215 665 146 q 743 364 743 284 q 657 576 743 489 q 455 664 572 664 m 414 1083 l 561 875 l 468 875 l 268 1083 l 414 1083 "},"ţ":{"x_min":59,"x_max":435,"ha":471,"o":"m 188 1012 l 284 1012 l 284 737 l 435 737 l 435 656 l 284 656 l 284 0 l 188 0 l 188 656 l 59 656 l 59 737 l 188 737 l 188 1012 m 258 -290 l 214 -271 q 237 -187 237 -222 l 182 -187 l 182 -83 l 288 -83 l 288 -117 q 258 -290 288 -230 "},"^":{"x_min":81.375,"x_max":852.453125,"ha":933,"o":"m 426 998 l 506 998 l 852 248 l 762 248 l 464 893 l 168 248 l 81 248 l 426 998 "},"«":{"x_min":14.234375,"x_max":575.765625,"ha":590,"o":"m 265 738 l 113 367 l 265 0 l 164 0 l 14 367 l 164 738 l 265 738 m 575 738 l 423 367 l 575 0 l 475 0 l 324 367 l 475 738 l 575 738 "},"∙":{"x_min":109,"x_max":276,"ha":385,"o":"m 192 582 q 251 557 227 582 q 276 498 276 533 q 251 438 276 463 q 192 414 227 414 q 133 438 157 414 q 109 498 109 463 q 133 557 109 533 q 192 582 157 582 "},"ⁿ":{"x_min":52,"x_max":443,"ha":495,"o":"m 52 852 l 130 852 l 130 785 q 280 863 192 863 q 375 830 335 863 q 429 752 415 797 q 443 627 443 707 l 443 390 l 365 390 l 365 610 q 358 716 365 682 q 327 770 351 749 q 264 791 302 791 q 183 758 219 791 q 139 686 148 726 q 130 561 130 646 l 130 390 l 52 390 l 52 852 "},"í":{"x_min":37.75,"x_max":331.78125,"ha":279,"o":"m 92 738 l 188 738 l 188 0 l 92 0 l 92 738 m 185 1084 l 331 1084 l 131 875 l 37 875 l 185 1084 "},"ˆ":{"x_min":102.40625,"x_max":594.75,"ha":697,"o":"m 303 1046 l 398 1046 l 594 872 l 472 872 l 353 974 l 228 872 l 102 872 l 303 1046 "},"ū":{"x_min":94,"x_max":740,"ha":845,"o":"m 94 738 l 190 738 l 190 393 q 203 219 190 267 q 281 112 223 151 q 417 73 338 73 q 552 111 497 73 q 628 212 607 149 q 643 393 643 254 l 643 738 l 740 738 l 740 375 q 704 145 740 223 q 597 24 668 68 q 417 -19 525 -19 q 237 24 309 -19 q 129 146 165 68 q 94 382 94 225 l 94 738 m 188 1003 l 656 1003 l 656 922 l 188 922 l 188 1003 "},"Ẅ":{"x_min":64.8125,"x_max":1267.84375,"ha":1333,"o":"m 64 997 l 167 997 l 369 278 l 656 997 l 676 997 l 959 278 l 1166 997 l 1267 997 l 981 0 l 962 0 l 667 754 l 365 0 l 346 0 l 64 997 m 528 1231 q 583 1207 560 1231 q 607 1152 607 1184 q 583 1097 607 1120 q 528 1074 560 1074 q 473 1097 496 1074 q 450 1152 450 1120 q 473 1207 450 1184 q 528 1231 496 1231 m 805 1231 q 860 1207 837 1231 q 884 1152 884 1184 q 860 1097 884 1120 q 805 1074 837 1074 q 750 1097 773 1074 q 727 1152 727 1120 q 750 1207 727 1184 q 805 1231 773 1231 "},"ņ":{"x_min":106,"x_max":749,"ha":847,"o":"m 106 738 l 201 738 l 201 605 q 327 719 257 681 q 477 757 396 757 q 624 714 560 757 q 718 601 688 672 q 749 379 749 530 l 749 0 l 655 0 l 655 351 q 644 521 655 479 q 580 632 627 595 q 458 669 533 669 q 304 612 372 669 q 214 471 236 555 q 201 270 201 416 l 201 0 l 106 0 l 106 738 m 356 -86 q 421 -76 388 -76 q 528 -150 528 -76 q 485 -227 528 -197 q 371 -258 443 -258 q 273 -242 329 -258 l 288 -194 q 358 -204 334 -204 q 447 -160 447 -204 q 397 -131 447 -131 q 348 -139 379 -131 l 356 -86 "},"⌂":{"x_min":104,"x_max":730,"ha":834,"o":"m 104 0 l 104 430 l 416 782 l 730 430 l 730 0 l 104 0 m 159 55 l 675 55 l 675 407 l 416 696 l 159 407 l 159 55 "},"µ":{"x_min":100,"x_max":701,"ha":801,"o":"m 100 -270 l 100 738 l 196 738 l 196 330 q 218 193 196 238 q 292 116 241 147 q 402 86 343 86 q 508 115 460 86 q 580 196 555 145 q 606 339 606 248 l 606 738 l 701 738 l 701 0 l 606 0 l 606 79 q 515 6 566 29 q 401 -17 465 -17 q 286 6 337 -17 q 196 77 235 29 l 196 -270 l 100 -270 "},"ỳ":{"x_min":26.453125,"x_max":727.671875,"ha":745,"o":"m 26 738 l 126 738 l 380 169 l 626 738 l 727 738 l 287 -270 l 187 -270 l 329 55 l 26 738 m 330 1084 l 478 875 l 385 875 l 185 1084 l 330 1084 "},"Ι":{"x_min":107,"x_max":207,"ha":314,"o":"m 107 998 l 207 998 l 207 0 l 107 0 l 107 998 "},"Ύ":{"x_min":-68.1875,"x_max":853.03125,"ha":896,"o":"m 116 998 l 232 998 l 486 587 l 737 998 l 853 998 l 537 477 l 537 0 l 439 0 l 439 477 l 116 998 m 41 1023 l 41 794 l -48 794 l -68 1023 l 41 1023 "},"č":{"x_min":71,"x_max":822.109375,"ha":899,"o":"m 822 584 l 746 537 q 480 667 649 667 q 256 580 345 667 q 167 369 167 493 q 208 217 167 288 q 320 106 249 145 q 481 67 392 67 q 746 196 643 67 l 822 147 q 679 23 769 67 q 476 -20 590 -20 q 186 91 301 -20 q 71 362 71 202 q 124 561 71 469 q 273 705 178 653 q 484 757 367 757 q 625 734 557 757 q 741 676 693 712 q 822 584 788 639 m 527 871 l 432 871 l 236 1045 l 358 1045 l 478 942 l 602 1045 l 728 1045 l 527 871 "},"’":{"x_min":171,"x_max":294,"ha":488,"o":"m 235 650 l 183 679 q 217 760 209 731 q 230 836 226 789 l 171 836 l 171 1023 l 294 1023 l 294 906 q 282 768 294 818 q 235 650 270 718 "},"Ν":{"x_min":122,"x_max":905,"ha":1027,"o":"m 122 0 l 122 998 l 143 998 l 807 234 l 807 998 l 905 998 l 905 0 l 882 0 l 225 754 l 225 0 l 122 0 "},"-":{"x_min":44,"x_max":417,"ha":461,"o":"m 44 417 l 417 417 l 417 334 l 44 334 l 44 417 "},"Q":{"x_min":79,"x_max":1129,"ha":1209,"o":"m 957 108 l 1105 -79 l 982 -79 l 880 50 q 605 -25 759 -25 q 231 126 384 -25 q 79 494 79 278 q 148 761 79 638 q 338 953 218 884 q 603 1023 459 1023 q 976 871 824 1023 q 1129 498 1129 719 q 1087 287 1129 383 q 957 108 1045 192 m 895 186 q 1026 499 1026 313 q 970 713 1026 617 q 815 867 915 809 q 603 925 714 925 q 393 867 492 925 q 238 712 294 810 q 183 494 183 614 q 305 194 183 316 q 601 72 428 72 q 818 129 720 72 l 596 411 l 717 411 l 895 186 "},"M":{"x_min":75.953125,"x_max":1200.359375,"ha":1276,"o":"m 75 0 l 217 998 l 233 998 l 639 179 l 1040 998 l 1057 998 l 1200 0 l 1102 0 l 1004 713 l 651 0 l 626 0 l 269 719 l 172 0 l 75 0 "},"Ψ":{"x_min":95,"x_max":1004,"ha":1099,"o":"m 1004 652 q 963 430 1004 512 q 828 298 923 349 q 599 247 734 247 l 599 0 l 499 0 l 499 247 q 286 288 373 247 q 146 409 198 330 q 95 659 95 489 l 95 998 l 197 998 l 197 694 q 216 504 197 570 q 308 391 235 438 q 499 345 380 345 l 499 998 l 599 998 l 599 345 q 794 393 722 345 q 883 504 865 442 q 902 694 902 567 l 902 998 l 1004 998 l 1004 652 "},"œ":{"x_min":76,"x_max":1501.140625,"ha":1579,"o":"m 1501 361 l 844 361 q 929 139 844 209 q 1125 69 1015 69 q 1285 114 1214 69 q 1397 245 1357 160 l 1478 204 q 1327 33 1414 86 q 1121 -19 1241 -19 q 993 1 1054 -19 q 888 56 932 22 q 790 168 845 90 q 645 28 728 75 q 458 -19 562 -19 q 187 94 299 -19 q 76 373 76 208 q 215 669 76 556 q 459 757 323 757 q 662 697 570 757 q 790 561 729 654 q 911 694 847 652 q 1123 757 1003 757 q 1391 647 1280 757 q 1501 385 1501 538 l 1501 361 m 455 665 q 313 626 380 665 q 208 516 247 587 q 170 367 170 446 q 208 218 170 287 q 316 109 246 149 q 461 69 386 69 q 603 108 536 69 q 708 214 671 148 q 745 364 745 281 q 660 578 745 491 q 455 665 576 665 m 1397 442 q 1296 607 1369 549 q 1124 665 1223 665 q 937 597 1017 665 q 848 442 875 545 l 1397 442 "},"ě":{"x_min":71,"x_max":831.203125,"ha":903,"o":"m 727 244 l 807 202 q 716 77 768 125 q 600 5 665 30 q 454 -19 536 -19 q 172 99 274 -19 q 71 366 71 217 q 157 617 71 507 q 449 757 266 757 q 751 613 638 757 q 831 361 831 512 l 170 361 q 249 150 170 232 q 446 68 329 68 q 555 87 502 68 q 646 139 609 107 q 727 244 683 172 m 727 443 q 672 564 708 519 q 576 638 635 610 q 450 666 516 666 q 264 595 342 666 q 178 443 207 544 l 727 443 m 496 872 l 402 872 l 205 1045 l 328 1045 l 448 942 l 572 1045 l 698 1045 l 496 872 "},"ũ":{"x_min":94,"x_max":740,"ha":845,"o":"m 94 738 l 190 738 l 190 393 q 203 219 190 267 q 281 112 223 151 q 417 73 338 73 q 552 111 497 73 q 628 212 607 149 q 643 393 643 254 l 643 738 l 740 738 l 740 375 q 704 145 740 223 q 597 24 668 68 q 417 -19 525 -19 q 237 24 309 -19 q 129 146 165 68 q 94 382 94 225 l 94 738 m 624 1012 l 671 946 q 589 898 622 910 q 518 886 555 886 q 417 911 469 886 q 361 937 373 933 q 326 942 345 942 q 281 933 302 942 q 219 894 259 924 l 174 964 q 326 1030 236 1030 q 430 1002 370 1030 q 521 976 488 976 q 624 1012 558 976 "},"ŭ":{"x_min":94,"x_max":740,"ha":845,"o":"m 94 738 l 190 738 l 190 393 q 203 219 190 267 q 281 112 223 151 q 417 73 338 73 q 552 111 497 73 q 628 212 607 149 q 643 393 643 254 l 643 738 l 740 738 l 740 375 q 704 145 740 223 q 597 24 668 68 q 417 -19 525 -19 q 237 24 309 -19 q 129 146 165 68 q 94 382 94 225 l 94 738 m 182 1034 l 272 1034 q 333 981 295 999 q 426 964 372 964 q 513 979 480 964 q 576 1034 546 994 l 663 1034 q 587 932 648 973 q 425 891 525 891 q 262 931 325 891 q 182 1034 199 971 "},"―":{"x_min":-8,"x_max":1050,"ha":1042,"o":"m -8 433 l 1050 433 l 1050 345 l -8 345 l -8 433 "},"{":{"x_min":51,"x_max":443,"ha":487,"o":"m 51 402 q 117 417 92 402 q 170 471 152 437 q 189 569 189 506 q 189 712 189 600 q 202 872 189 823 q 245 949 216 920 q 318 990 274 977 q 404 998 345 998 l 443 998 l 443 891 l 422 891 q 328 864 351 891 q 306 751 306 838 q 301 550 306 593 q 261 422 292 467 q 163 346 230 378 q 272 250 238 314 q 306 40 306 186 q 308 -113 306 -89 q 325 -169 312 -150 q 355 -191 335 -183 q 443 -199 376 -199 l 443 -306 l 405 -306 q 306 -294 337 -306 q 233 -239 260 -277 q 197 -138 205 -201 q 191 28 191 -93 q 177 197 191 153 q 132 265 164 241 q 51 290 100 290 l 51 402 "},"¼":{"x_min":78.265625,"x_max":1125,"ha":1154,"o":"m 127 1010 l 255 1010 l 255 497 l 180 497 l 180 944 l 78 944 l 127 1010 m 263 -25 l 889 1022 l 965 1022 l 338 -25 l 263 -25 m 1054 533 l 1054 175 l 1125 175 l 1125 109 l 1054 109 l 1054 -6 l 979 -6 l 979 109 l 686 109 l 1054 533 m 979 175 l 979 343 l 833 175 l 979 175 "},"#":{"x_min":125,"x_max":875,"ha":1000,"o":"m 836 408 l 836 335 l 667 335 l 619 0 l 543 0 l 591 335 l 366 335 l 314 0 l 239 0 l 291 335 l 125 335 l 125 408 l 302 408 l 337 635 l 166 635 l 166 709 l 348 709 l 395 1026 l 468 1026 l 422 709 l 647 709 l 693 1026 l 769 1026 l 722 709 l 875 709 l 875 635 l 711 635 l 679 408 l 836 408 m 637 635 l 410 635 l 377 408 l 602 408 l 637 635 "},"ι":{"x_min":92,"x_max":188,"ha":279,"o":"m 92 738 l 188 738 l 188 0 l 92 0 l 92 738 "},"Ĳ":{"x_min":107,"x_max":862,"ha":983,"o":"m 107 998 l 207 998 l 207 0 l 107 0 l 107 998 m 762 998 l 862 998 l 862 324 q 844 125 862 191 q 767 17 827 60 q 621 -25 708 -25 q 372 80 497 -25 l 425 160 q 621 68 553 68 q 707 100 670 68 q 752 178 743 133 q 762 327 762 224 l 762 998 "},"Ê":{"x_min":122,"x_max":694,"ha":745,"o":"m 122 998 l 694 998 l 694 900 l 222 900 l 222 588 l 689 588 l 689 490 l 222 490 l 222 98 l 689 98 l 689 0 l 122 0 l 122 998 m 368 1248 l 462 1248 l 659 1074 l 537 1074 l 417 1177 l 293 1074 l 166 1074 l 368 1248 "},"Ά":{"x_min":33.1875,"x_max":994.15625,"ha":1027,"o":"m 528 997 l 994 0 l 887 0 l 730 328 l 300 328 l 144 0 l 33 0 l 504 997 l 528 997 m 516 785 l 345 424 l 686 424 l 516 785 m 278 1022 l 278 793 l 188 793 l 168 1022 l 278 1022 "},")":{"x_min":84.515625,"x_max":332,"ha":513,"o":"m 194 -289 l 84 -289 q 191 29 151 -152 q 231 404 231 210 q 200 749 231 583 q 117 1042 170 915 l 222 1042 q 302 757 273 921 q 332 416 332 593 q 296 45 332 226 q 194 -289 261 -135 "},"ε":{"x_min":70,"x_max":560.921875,"ha":587,"o":"m 560 78 q 317 -20 468 -20 q 139 43 209 -20 q 70 210 70 106 q 203 404 70 349 q 101 561 101 445 q 163 703 101 648 q 318 758 225 758 q 529 674 430 758 l 476 608 q 322 668 398 668 q 227 635 262 668 q 193 547 193 603 q 228 460 193 494 q 319 427 264 427 l 369 427 l 369 346 l 310 346 q 211 307 251 346 q 172 209 172 268 q 213 106 172 144 q 325 69 255 69 q 501 146 432 69 l 560 78 "},"Å":{"x_min":33.3125,"x_max":994.375,"ha":1028,"o":"m 529 997 l 994 0 l 887 0 l 730 328 l 300 328 l 144 0 l 33 0 l 504 997 l 529 997 m 516 785 l 345 424 l 686 424 l 516 785 m 513 1349 q 615 1306 573 1349 q 658 1203 658 1264 q 615 1101 658 1143 q 513 1059 573 1059 q 411 1101 453 1059 q 369 1203 369 1143 q 411 1306 369 1264 q 513 1349 453 1349 m 512 1280 q 459 1257 481 1280 q 438 1205 438 1235 q 459 1153 438 1175 q 512 1131 481 1131 q 565 1153 543 1131 q 587 1205 587 1175 q 565 1257 587 1235 q 512 1280 543 1280 "},"¸":{"x_min":94.140625,"x_max":363,"ha":450,"o":"m 210 0 l 270 0 l 258 -79 q 284 -77 274 -77 q 340 -98 318 -77 q 363 -150 363 -119 q 322 -226 363 -195 q 207 -258 281 -258 q 94 -237 147 -258 l 109 -190 q 190 -204 152 -204 q 261 -191 241 -204 q 282 -160 282 -179 q 270 -139 282 -148 q 239 -131 259 -131 q 192 -137 223 -131 l 210 0 "},"a":{"x_min":73,"x_max":841,"ha":949,"o":"m 841 738 l 841 0 l 747 0 l 747 126 q 613 16 688 53 q 451 -20 539 -20 q 183 93 294 -20 q 73 370 73 207 q 184 643 73 530 q 454 757 296 757 q 618 718 545 757 q 747 601 692 679 l 747 738 l 841 738 m 461 665 q 315 625 382 665 q 208 516 248 586 q 169 367 169 445 q 208 217 169 288 q 316 106 248 146 q 461 67 383 67 q 608 106 539 67 q 716 212 678 145 q 754 364 754 280 q 669 578 754 492 q 461 665 585 665 "},"Ę":{"x_min":122,"x_max":694,"ha":745,"o":"m 122 997 l 694 997 l 694 899 l 222 899 l 222 587 l 689 587 l 689 489 l 222 489 l 222 97 l 689 97 l 689 0 l 122 0 l 122 997 m 553 0 l 627 0 q 545 -131 545 -70 q 570 -184 545 -162 q 644 -206 596 -206 q 691 -202 664 -206 l 685 -260 q 627 -267 656 -267 q 511 -231 551 -267 q 472 -144 472 -195 q 553 0 472 -56 "},"=":{"x_min":78,"x_max":764,"ha":841,"o":"m 764 694 l 764 601 l 78 601 l 78 694 l 764 694 m 764 396 l 764 303 l 78 303 l 78 396 l 764 396 "},"ρ":{"x_min":92,"x_max":860.296875,"ha":931,"o":"m 187 139 l 187 -270 l 92 -270 l 92 346 q 202 642 92 527 q 476 757 312 757 q 750 642 641 757 q 860 366 860 527 q 749 92 860 204 q 476 -19 639 -19 q 187 139 294 -19 m 476 664 q 272 575 355 664 q 189 364 189 487 q 270 157 189 243 q 476 71 352 71 q 685 158 606 71 q 764 364 764 246 q 680 575 764 487 q 476 664 596 664 "},"˚":{"x_min":86,"x_max":375,"ha":461,"o":"m 230 1147 q 332 1104 290 1147 q 375 1001 375 1062 q 332 899 375 941 q 230 857 290 857 q 128 899 170 857 q 86 1001 86 941 q 128 1104 86 1062 q 230 1147 170 1147 m 229 1078 q 176 1055 198 1078 q 155 1003 155 1033 q 176 951 155 973 q 229 929 198 929 q 282 951 260 929 q 304 1003 304 973 q 282 1055 304 1033 q 229 1078 260 1078 "},"ú":{"x_min":94,"x_max":740,"ha":845,"o":"m 94 738 l 190 738 l 190 393 q 203 219 190 267 q 281 112 223 151 q 417 73 338 73 q 552 111 497 73 q 628 212 607 149 q 643 393 643 254 l 643 738 l 740 738 l 740 375 q 704 145 740 223 q 597 24 668 68 q 417 -19 525 -19 q 237 24 309 -19 q 129 146 165 68 q 94 382 94 225 l 94 738 m 468 1083 l 614 1083 l 414 875 l 320 875 l 468 1083 "},"¯":{"x_min":-8,"x_max":703,"ha":695,"o":"m -8 1172 l 703 1172 l 703 1102 l -8 1102 l -8 1172 "},"Z":{"x_min":38.25,"x_max":609.03125,"ha":667,"o":"m 83 902 l 83 998 l 609 998 l 192 97 l 588 97 l 588 0 l 38 0 l 457 902 l 83 902 "},"u":{"x_min":94,"x_max":740,"ha":845,"o":"m 94 738 l 190 738 l 190 393 q 203 219 190 267 q 281 112 223 151 q 417 73 338 73 q 552 111 497 73 q 628 212 607 149 q 643 393 643 254 l 643 738 l 740 738 l 740 375 q 704 145 740 223 q 597 24 668 68 q 417 -19 525 -19 q 237 24 309 -19 q 129 146 165 68 q 94 382 94 225 l 94 738 "},"k":{"x_min":105,"x_max":705.5625,"ha":697,"o":"m 105 1023 l 201 1023 l 201 440 l 542 738 l 681 738 l 276 385 l 705 0 l 571 0 l 201 331 l 201 0 l 105 0 l 105 1023 "},"Ù":{"x_min":125,"x_max":786,"ha":910,"o":"m 125 998 l 225 998 l 225 395 q 229 261 225 288 q 263 163 236 202 q 347 96 290 123 q 460 70 403 70 q 555 91 509 70 q 631 149 600 112 q 675 239 661 186 q 686 395 686 277 l 686 998 l 786 998 l 786 395 q 759 179 786 261 q 655 36 733 97 q 465 -25 576 -25 q 258 32 344 -25 q 143 185 172 90 q 125 395 125 243 l 125 998 m 414 1285 l 561 1077 l 468 1077 l 268 1285 l 414 1285 "},"Α":{"x_min":33.234375,"x_max":994.203125,"ha":1027,"o":"m 528 997 l 994 0 l 887 0 l 730 328 l 300 328 l 144 0 l 33 0 l 504 997 l 528 997 m 516 785 l 345 424 l 686 424 l 516 785 "},"⅝":{"x_min":28.484375,"x_max":1122,"ha":1155,"o":"m 225 -25 l 852 1023 l 927 1023 l 301 -25 l 225 -25 m 416 1010 l 416 944 l 203 944 l 177 827 q 237 834 206 834 q 378 784 325 834 q 431 665 431 735 q 373 538 431 592 q 217 485 315 485 q 84 528 135 485 q 28 628 34 571 l 105 628 q 220 551 124 551 q 314 584 275 551 q 354 668 354 618 q 318 740 354 712 q 223 768 283 768 q 87 747 169 768 l 145 1010 l 416 1010 m 1023 280 q 1122 149 1122 234 q 1069 36 1122 84 q 922 -12 1016 -12 q 774 37 824 -12 q 724 145 724 86 q 825 280 724 233 q 752 389 752 318 q 802 485 752 444 q 925 526 853 526 q 1045 484 996 526 q 1094 386 1094 443 q 1023 280 1094 318 m 1019 389 q 993 439 1019 420 q 922 459 967 459 q 855 439 883 459 q 827 388 827 419 q 857 332 827 355 q 924 310 887 310 q 991 333 963 310 q 1019 389 1019 356 m 1047 148 q 1012 217 1047 189 q 926 246 977 246 q 837 218 876 246 q 799 143 799 190 q 835 76 799 98 q 923 54 872 54 q 1011 80 976 54 q 1047 148 1047 106 "},"Ů":{"x_min":125,"x_max":786,"ha":910,"o":"m 125 998 l 225 998 l 225 395 q 229 261 225 288 q 263 163 236 202 q 346 96 290 123 q 460 70 403 70 q 555 91 509 70 q 631 149 600 112 q 675 239 661 186 q 686 395 686 277 l 686 998 l 786 998 l 786 395 q 759 179 786 261 q 655 36 733 97 q 465 -25 576 -25 q 258 32 344 -25 q 143 185 172 90 q 125 395 125 243 l 125 998 m 429 1349 q 531 1306 489 1349 q 574 1204 574 1264 q 531 1102 574 1144 q 429 1060 489 1060 q 327 1102 369 1060 q 285 1204 285 1144 q 327 1306 285 1264 q 429 1349 369 1349 m 428 1280 q 375 1258 397 1280 q 354 1206 354 1236 q 375 1153 354 1175 q 428 1132 397 1132 q 481 1153 459 1132 q 503 1206 503 1175 q 481 1258 503 1236 q 428 1280 459 1280 "},"¢":{"x_min":70,"x_max":734.3125,"ha":770,"o":"m 652 908 l 734 868 l 644 693 q 723 630 693 662 l 665 558 q 601 610 634 588 l 334 90 q 431 69 385 69 q 639 155 530 69 l 701 83 q 576 9 648 37 q 432 -19 504 -19 q 291 6 367 -19 l 188 -194 l 108 -150 l 211 53 q 104 195 138 119 q 70 362 70 271 q 172 641 70 525 q 439 757 274 757 q 562 734 500 757 l 652 908 m 519 651 q 437 666 475 666 q 243 584 321 666 q 166 368 166 502 q 188 238 166 294 q 256 141 210 182 l 519 651 "},"Ş":{"x_min":17.9375,"x_max":602,"ha":692,"o":"m 17 185 l 102 236 q 309 71 192 71 q 403 95 359 71 q 470 158 447 118 q 494 241 494 197 q 460 339 494 291 q 289 500 413 406 q 133 636 164 594 q 81 789 81 706 q 112 907 81 854 q 200 992 143 961 q 323 1023 256 1023 q 455 988 393 1023 q 585 859 516 953 l 503 797 q 407 896 447 872 q 321 920 368 920 q 222 883 260 920 q 184 793 184 846 q 197 730 184 760 q 247 663 211 699 q 376 563 266 644 q 553 393 505 468 q 602 243 602 318 q 519 55 602 135 q 319 -25 437 -25 q 154 23 228 -25 q 17 185 80 71 m 290 0 l 350 0 l 338 -79 q 364 -77 354 -77 q 420 -98 398 -77 q 443 -150 443 -119 q 402 -226 443 -195 q 287 -258 361 -258 q 173 -237 226 -258 l 188 -190 q 270 -204 232 -204 q 341 -191 321 -204 q 362 -159 362 -178 q 350 -139 362 -148 q 319 -130 339 -130 q 272 -136 303 -130 l 290 0 "},"é":{"x_min":71,"x_max":831.203125,"ha":903,"o":"m 727 244 l 807 202 q 716 77 768 125 q 600 5 665 30 q 454 -19 536 -19 q 172 99 274 -19 q 71 366 71 217 q 157 617 71 507 q 449 757 266 757 q 751 613 638 757 q 831 361 831 512 l 170 361 q 249 150 170 232 q 446 68 329 68 q 555 87 502 68 q 646 139 609 107 q 727 244 683 172 m 727 443 q 672 564 708 519 q 576 638 635 610 q 450 666 516 666 q 264 595 342 666 q 178 443 207 544 l 727 443 m 498 1083 l 644 1083 l 443 875 l 350 875 l 498 1083 "},"B":{"x_min":124,"x_max":722,"ha":798,"o":"m 124 998 l 320 998 q 503 969 439 998 q 604 883 567 941 q 641 753 641 824 q 608 632 641 686 q 512 543 575 577 q 632 481 590 517 q 698 395 675 445 q 722 286 722 345 q 634 83 722 166 q 398 0 546 0 l 124 0 l 124 998 m 222 900 l 222 580 l 278 580 q 431 599 382 580 q 508 660 480 618 q 537 753 537 702 q 489 860 537 821 q 337 900 441 900 l 222 900 m 222 480 l 222 98 l 345 98 q 505 119 454 98 q 587 186 556 140 q 618 284 618 231 q 574 400 618 350 q 455 467 531 449 q 278 480 404 480 l 222 480 "},"…":{"x_min":148,"x_max":1241,"ha":1389,"o":"m 694 149 q 753 124 729 149 q 778 65 778 100 q 753 5 778 30 q 694 -19 729 -19 q 635 5 659 -19 q 611 65 611 30 q 635 124 611 100 q 694 149 659 149 m 231 149 q 290 124 266 149 q 315 65 315 100 q 290 5 315 30 q 231 -19 266 -19 q 172 5 196 -19 q 148 65 148 30 q 172 124 148 100 q 231 149 196 149 m 1157 149 q 1216 124 1191 149 q 1241 65 1241 100 q 1216 5 1241 30 q 1157 -19 1191 -19 q 1098 5 1122 -19 q 1074 65 1074 30 q 1098 124 1074 100 q 1157 149 1122 149 "},"ē":{"x_min":71,"x_max":831.203125,"ha":903,"o":"m 727 244 l 807 202 q 716 77 768 125 q 600 5 665 30 q 454 -19 536 -19 q 172 99 274 -19 q 71 366 71 217 q 157 617 71 507 q 449 757 266 757 q 751 613 638 757 q 831 361 831 512 l 170 361 q 249 150 170 232 q 445 68 328 68 q 555 87 502 68 q 646 139 608 107 q 727 244 683 172 m 727 443 q 671 564 708 519 q 575 638 635 610 q 450 666 516 666 q 264 595 342 666 q 178 443 207 544 l 727 443 m 217 1003 l 685 1003 l 685 922 l 217 922 l 217 1003 "},"H":{"x_min":120,"x_max":828,"ha":949,"o":"m 120 998 l 220 998 l 220 579 l 728 579 l 728 998 l 828 998 l 828 0 l 728 0 l 728 481 l 220 481 l 220 0 l 120 0 l 120 998 "},"ν":{"x_min":35.9375,"x_max":730.390625,"ha":770,"o":"m 35 738 l 136 738 l 383 200 l 628 738 l 730 738 l 392 0 l 375 0 l 35 738 "},"î":{"x_min":-106.703125,"x_max":386.03125,"ha":279,"o":"m 92 738 l 188 738 l 188 0 l 92 0 l 92 738 m 94 1045 l 189 1045 l 386 872 l 263 872 l 144 974 l 19 872 l -106 872 l 94 1045 "},"β":{"x_min":106,"x_max":758,"ha":828,"o":"m 202 111 l 202 -270 l 106 -270 l 106 750 q 186 974 106 907 q 377 1042 267 1042 q 555 981 489 1042 q 622 821 622 921 q 473 610 622 664 q 680 517 603 597 q 758 313 758 437 q 663 76 758 171 q 430 -19 569 -19 q 202 111 285 -19 m 295 546 l 295 628 q 525 810 525 628 q 486 912 525 873 q 384 952 448 952 q 249 903 296 952 q 202 728 202 854 l 202 312 q 268 136 202 202 q 429 71 334 71 q 594 139 527 71 q 661 307 661 207 q 593 475 661 405 q 342 546 526 546 l 295 546 "},"Ό":{"x_min":-68.1875,"x_max":1128,"ha":1207,"o":"m 596 1023 q 975 871 822 1023 q 1128 499 1128 720 q 975 127 1128 280 q 604 -25 823 -25 q 230 126 383 -25 q 78 494 78 278 q 147 761 78 638 q 336 953 216 883 q 596 1023 456 1023 m 601 925 q 392 867 491 925 q 237 712 293 809 q 182 494 182 614 q 304 194 182 316 q 601 72 427 72 q 815 128 717 72 q 969 282 914 184 q 1025 499 1025 379 q 969 713 1025 617 q 814 867 914 809 q 601 925 713 925 m 41 1023 l 41 794 l -48 794 l -68 1023 l 41 1023 "},"−":{"x_min":78,"x_max":764,"ha":841,"o":"m 78 545 l 764 545 l 764 452 l 78 452 l 78 545 "},"⅜":{"x_min":22.515625,"x_max":1122,"ha":1154,"o":"m 117 877 l 41 877 q 225 1023 78 1023 q 351 983 299 1023 q 403 884 403 943 q 341 786 403 826 q 435 656 435 741 q 377 535 435 586 q 226 485 319 485 q 22 648 53 485 l 96 648 q 227 552 119 552 q 324 582 288 552 q 360 651 360 612 q 324 717 360 687 q 188 748 289 748 l 188 813 q 286 832 247 813 q 325 886 325 852 q 296 934 325 913 q 225 956 268 956 q 117 877 149 956 m 225 -25 l 852 1023 l 927 1023 l 301 -25 l 225 -25 m 1023 280 q 1122 149 1122 234 q 1069 36 1122 84 q 922 -12 1016 -12 q 776 35 828 -12 q 724 145 724 83 q 825 280 724 233 q 752 389 752 318 q 802 485 752 444 q 925 526 853 526 q 1047 484 999 526 q 1095 386 1095 442 q 1023 280 1095 318 m 1020 389 q 994 439 1020 420 q 923 459 968 459 q 855 439 883 459 q 827 388 827 419 q 857 332 827 355 q 925 310 887 310 q 992 333 964 310 q 1020 389 1020 356 m 1047 148 q 1012 217 1047 189 q 926 246 977 246 q 837 218 876 246 q 799 143 799 190 q 835 76 799 98 q 923 54 872 54 q 1011 80 976 54 q 1047 148 1047 106 "},"≠":{"x_min":38,"x_max":724,"ha":762,"o":"m 503 694 l 724 694 l 724 601 l 467 601 l 387 396 l 724 396 l 724 303 l 351 303 l 225 -25 l 131 -25 l 257 303 l 38 303 l 38 396 l 293 396 l 372 601 l 38 601 l 38 694 l 407 694 l 533 1022 l 629 1022 l 503 694 "},"‼":{"x_min":121,"x_max":615,"ha":736,"o":"m 252 1023 l 252 250 l 154 250 l 154 1023 l 252 1023 m 580 1023 l 580 250 l 482 250 l 482 1023 l 580 1023 m 204 149 q 262 125 237 149 q 288 65 288 101 q 263 5 288 29 q 204 -19 238 -19 q 145 5 170 -19 q 121 65 121 30 q 146 125 121 101 q 204 149 171 149 m 531 149 q 590 124 565 149 q 615 65 615 100 q 590 5 615 29 q 531 -19 565 -19 q 472 5 496 -19 q 448 65 448 30 q 472 124 448 100 q 531 149 496 149 "},"¥":{"x_min":41.625,"x_max":726.375,"ha":769,"o":"m 613 997 l 726 997 l 444 499 l 685 499 l 685 420 l 432 420 l 432 314 l 685 314 l 685 235 l 432 235 l 432 0 l 334 0 l 334 235 l 83 235 l 83 314 l 334 314 l 334 420 l 83 420 l 83 499 l 322 499 l 41 997 l 154 997 l 383 589 l 613 997 "},"Ĥ":{"x_min":120,"x_max":828,"ha":949,"o":"m 120 998 l 220 998 l 220 579 l 728 579 l 728 998 l 828 998 l 828 0 l 728 0 l 728 481 l 220 481 l 220 0 l 120 0 l 120 998 m 429 1247 l 523 1247 l 720 1074 l 598 1074 l 478 1176 l 353 1074 l 227 1074 l 429 1247 "},"U":{"x_min":125,"x_max":786,"ha":910,"o":"m 125 998 l 225 998 l 225 395 q 229 261 225 288 q 263 163 236 202 q 347 96 290 123 q 460 70 403 70 q 555 91 509 70 q 631 149 600 112 q 675 239 661 186 q 686 395 686 277 l 686 998 l 786 998 l 786 395 q 759 179 786 261 q 655 36 733 97 q 465 -25 576 -25 q 258 32 344 -25 q 143 185 172 90 q 125 395 125 243 l 125 998 "},"Ñ":{"x_min":122,"x_max":905,"ha":1027,"o":"m 122 0 l 122 998 l 143 998 l 807 234 l 807 998 l 905 998 l 905 0 l 882 0 l 225 754 l 225 0 l 122 0 m 714 1213 l 762 1147 q 679 1100 713 1112 q 608 1088 646 1088 q 508 1113 560 1088 q 452 1138 464 1134 q 416 1143 435 1143 q 371 1134 393 1143 q 309 1096 350 1126 l 265 1165 q 417 1231 326 1231 q 521 1204 461 1231 q 612 1178 579 1178 q 714 1213 649 1178 "},"F":{"x_min":121,"x_max":620.796875,"ha":673,"o":"m 121 998 l 620 998 l 620 900 l 220 900 l 220 587 l 620 587 l 620 489 l 220 489 l 220 0 l 121 0 l 121 998 "},"ĵ":{"x_min":-105.375,"x_max":386.96875,"ha":282,"o":"m 96 1046 l 190 1046 l 386 872 l 264 872 l 145 974 l 20 872 l -105 872 l 96 1046 m 94 738 l 190 738 l 190 -111 q 64 -289 190 -289 q -43 -265 14 -289 l -43 -180 q 25 -200 -7 -200 q 67 -185 51 -200 q 89 -152 84 -171 q 94 -83 94 -134 l 94 738 "},"ā":{"x_min":73,"x_max":841,"ha":949,"o":"m 841 738 l 841 0 l 747 0 l 747 126 q 613 16 687 53 q 451 -20 539 -20 q 183 93 294 -20 q 73 370 73 207 q 184 643 73 530 q 454 757 296 757 q 618 718 544 757 q 747 601 692 679 l 747 738 l 841 738 m 461 665 q 315 625 382 665 q 208 516 248 586 q 169 367 169 445 q 208 217 169 288 q 316 106 248 146 q 461 67 383 67 q 608 106 539 67 q 716 212 678 145 q 754 364 754 280 q 669 578 754 492 q 461 665 585 665 m 241 1003 l 709 1003 l 709 922 l 241 922 l 241 1003 "},"Ĩ":{"x_min":-91.703125,"x_max":405.703125,"ha":314,"o":"m 107 998 l 207 998 l 207 0 l 107 0 l 107 998 m 358 1214 l 405 1148 q 323 1100 356 1112 q 252 1088 289 1088 q 151 1113 203 1088 q 95 1139 107 1135 q 60 1144 79 1144 q 15 1135 36 1144 q -46 1096 -6 1126 l -91 1166 q 60 1232 -30 1232 q 164 1204 104 1232 q 255 1178 222 1178 q 358 1214 293 1178 "},"Χ":{"x_min":46.796875,"x_max":799.5625,"ha":846,"o":"m 68 998 l 185 998 l 423 608 l 664 998 l 779 998 l 482 514 l 799 0 l 682 0 l 423 418 l 163 0 l 46 0 l 364 514 l 68 998 "},"ă":{"x_min":73,"x_max":841,"ha":949,"o":"m 841 738 l 841 0 l 747 0 l 747 126 q 613 16 688 53 q 451 -20 539 -20 q 183 93 294 -20 q 73 370 73 207 q 184 643 73 530 q 454 757 296 757 q 618 718 545 757 q 747 601 692 679 l 747 738 l 841 738 m 461 665 q 315 625 382 665 q 208 516 248 586 q 169 367 169 445 q 208 217 169 288 q 316 106 248 146 q 461 67 383 67 q 608 106 539 67 q 716 212 678 145 q 754 364 754 280 q 669 578 754 492 q 461 665 585 665 m 211 1033 l 300 1033 q 362 981 323 998 q 454 964 400 964 q 541 979 508 964 q 604 1034 575 994 l 691 1034 q 615 932 676 973 q 453 891 554 891 q 291 931 354 891 q 211 1033 227 971 "},"*":{"x_min":59.671875,"x_max":530.328125,"ha":590,"o":"m 250 1023 l 338 1023 l 318 821 l 485 940 l 530 865 l 342 780 l 530 696 l 485 620 l 318 738 l 338 537 l 250 537 l 271 738 l 104 620 l 59 696 l 250 780 l 59 865 l 104 940 l 271 821 l 250 1023 "},"†":{"x_min":106.34375,"x_max":661.328125,"ha":768,"o":"m 341 1023 l 424 1023 l 424 720 l 661 720 l 661 635 l 426 635 l 426 -212 l 341 -212 l 341 635 l 106 635 l 106 720 l 341 720 l 341 1023 "},"∕":{"x_min":-235.328125,"x_max":466.578125,"ha":231,"o":"m -235 -25 l 390 1023 l 466 1023 l -160 -25 l -235 -25 "},"°":{"x_min":44,"x_max":512,"ha":555,"o":"m 512 789 q 443 623 512 691 q 277 556 375 556 q 111 623 179 556 q 44 791 44 691 q 113 955 44 887 q 279 1023 183 1023 q 443 955 375 1023 q 512 789 512 887 m 431 788 q 387 904 431 857 q 280 951 343 951 q 170 903 216 951 q 125 789 125 856 q 171 675 125 723 q 279 628 217 628 q 386 674 341 628 q 431 788 431 721 "},"Ξ":{"x_min":78,"x_max":659,"ha":737,"o":"m 659 900 l 78 900 l 78 998 l 659 998 l 659 900 m 659 490 l 78 490 l 78 588 l 659 588 l 659 490 m 659 0 l 78 0 l 78 98 l 659 98 l 659 0 "},"å":{"x_min":73,"x_max":841,"ha":949,"o":"m 841 738 l 841 0 l 747 0 l 747 126 q 613 16 688 53 q 451 -20 539 -20 q 183 93 294 -20 q 73 370 73 207 q 184 643 73 530 q 454 757 296 757 q 618 718 545 757 q 747 601 692 679 l 747 738 l 841 738 m 461 665 q 315 625 382 665 q 208 516 248 586 q 169 367 169 445 q 208 217 169 288 q 316 106 248 146 q 461 67 383 67 q 608 106 539 67 q 716 212 678 145 q 754 364 754 280 q 669 578 754 492 q 461 665 585 665 m 474 1147 q 576 1104 534 1147 q 619 1001 619 1062 q 576 899 619 941 q 474 857 534 857 q 372 899 414 857 q 330 1001 330 941 q 372 1104 330 1062 q 474 1147 414 1147 m 473 1078 q 420 1055 442 1078 q 399 1003 399 1033 q 420 951 399 973 q 473 929 442 929 q 526 951 504 929 q 548 1003 548 973 q 526 1055 548 1033 q 473 1078 504 1078 "},"Ϋ":{"x_min":42.765625,"x_max":779.234375,"ha":822,"o":"m 42 997 l 158 997 l 412 586 l 663 997 l 779 997 l 463 476 l 463 0 l 365 0 l 365 476 l 42 997 m 272 1231 q 327 1207 304 1231 q 351 1152 351 1184 q 327 1097 351 1120 q 272 1074 304 1074 q 217 1097 240 1074 q 194 1152 194 1120 q 217 1207 194 1184 q 272 1231 240 1231 m 549 1231 q 604 1207 581 1231 q 628 1152 628 1184 q 604 1097 628 1120 q 549 1074 581 1074 q 494 1097 517 1074 q 471 1152 471 1120 q 494 1207 471 1184 q 549 1231 517 1231 "},"0":{"x_min":44,"x_max":725,"ha":770,"o":"m 44 498 q 86 803 44 696 q 206 967 128 911 q 379 1023 283 1023 q 554 967 476 1023 q 679 799 633 911 q 725 498 725 687 q 679 199 725 310 q 555 31 634 88 q 379 -25 476 -25 q 206 29 283 -25 q 87 193 130 84 q 44 498 44 302 m 138 496 q 168 241 138 327 q 257 109 198 154 q 382 65 316 65 q 506 108 448 65 q 593 240 563 152 q 631 496 631 346 q 597 743 631 647 q 505 883 564 839 q 382 928 447 928 q 257 883 315 928 q 168 752 199 839 q 138 496 138 666 "},"ō":{"x_min":71,"x_max":839.296875,"ha":910,"o":"m 455 757 q 737 633 625 757 q 839 366 839 520 q 731 96 839 212 q 455 -19 624 -19 q 178 96 285 -19 q 71 366 71 212 q 172 632 71 520 q 455 757 284 757 m 455 664 q 252 576 337 664 q 168 364 168 489 q 206 215 168 284 q 311 108 245 146 q 455 71 376 71 q 599 108 534 71 q 704 215 665 146 q 743 364 743 284 q 657 576 743 489 q 455 664 572 664 m 222 1003 l 690 1003 l 690 922 l 222 922 l 222 1003 "},"”":{"x_min":123,"x_max":548,"ha":673,"o":"m 489 650 l 437 679 q 471 760 463 731 q 484 836 480 789 l 425 836 l 425 1023 l 548 1023 l 548 906 q 536 768 548 818 q 489 650 524 718 m 187 650 l 135 679 q 169 760 161 731 q 182 836 178 789 l 123 836 l 123 1023 l 246 1023 l 246 906 q 234 768 246 818 q 187 650 222 718 "},"΄":{"x_min":202.8125,"x_max":312,"ha":525,"o":"m 312 1084 l 312 855 l 222 855 l 202 1084 l 312 1084 "},"ŵ":{"x_min":6.109375,"x_max":1148.140625,"ha":1154,"o":"m 6 738 l 103 738 l 329 202 l 566 738 l 583 738 l 819 202 l 1049 738 l 1148 738 l 828 0 l 809 0 l 575 528 l 338 0 l 320 0 l 6 738 m 532 1046 l 626 1046 l 823 872 l 701 872 l 581 974 l 457 872 l 330 872 l 532 1046 "},"Ķ":{"x_min":121,"x_max":793.53125,"ha":821,"o":"m 121 998 l 223 998 l 223 623 l 621 998 l 756 998 l 276 550 l 793 0 l 661 0 l 223 465 l 223 0 l 121 0 l 121 998 m 334 -86 q 399 -76 366 -76 q 506 -150 506 -76 q 463 -227 506 -197 q 349 -258 421 -258 q 251 -242 307 -258 l 266 -194 q 336 -204 312 -204 q 425 -160 425 -204 q 375 -131 425 -131 q 326 -139 357 -131 l 334 -86 "},"ö":{"x_min":71,"x_max":839.296875,"ha":910,"o":"m 455 757 q 737 633 625 757 q 839 366 839 520 q 731 96 839 212 q 455 -19 624 -19 q 178 96 285 -19 q 71 366 71 212 q 172 632 71 520 q 455 757 284 757 m 455 664 q 252 576 337 664 q 168 364 168 489 q 206 215 168 284 q 311 108 245 146 q 455 71 376 71 q 599 108 534 71 q 704 215 665 146 q 743 364 743 284 q 657 576 743 489 q 455 664 572 664 m 317 1029 q 372 1005 349 1029 q 396 950 396 982 q 372 895 396 918 q 317 872 349 872 q 262 895 285 872 q 239 950 239 918 q 262 1005 239 982 q 317 1029 285 1029 m 593 1029 q 648 1005 625 1029 q 672 950 672 982 q 648 895 672 918 q 593 872 625 872 q 538 895 561 872 q 515 950 515 918 q 538 1005 515 982 q 593 1029 561 1029 "},"Β":{"x_min":124,"x_max":722,"ha":798,"o":"m 124 998 l 320 998 q 503 969 439 998 q 604 883 567 941 q 641 753 641 824 q 608 632 641 686 q 512 543 575 577 q 632 481 590 517 q 698 395 675 445 q 722 286 722 345 q 634 83 722 166 q 398 0 546 0 l 124 0 l 124 998 m 222 900 l 222 580 l 278 580 q 431 599 382 580 q 508 660 480 618 q 537 753 537 702 q 489 860 537 821 q 337 900 441 900 l 222 900 m 222 480 l 222 98 l 345 98 q 505 119 454 98 q 587 186 556 140 q 618 284 618 231 q 574 400 618 350 q 455 467 531 449 q 278 480 404 480 l 222 480 "},"ǽ":{"x_min":81,"x_max":1523.578125,"ha":1606,"o":"m 844 738 l 844 603 q 982 723 915 690 q 1139 757 1049 757 q 1414 645 1306 757 q 1523 359 1523 533 l 861 359 q 900 210 861 280 q 1004 103 939 140 q 1148 67 1069 67 q 1300 108 1233 67 q 1418 241 1368 150 l 1499 201 q 1355 37 1449 95 q 1142 -20 1261 -20 q 955 26 1038 -20 q 844 131 896 60 l 844 0 l 757 0 l 757 136 q 639 28 696 60 q 461 -19 558 -19 q 192 94 304 -19 q 81 371 81 208 q 131 565 81 477 q 270 705 181 653 q 458 757 359 757 q 637 710 554 757 q 757 603 696 676 l 757 738 l 844 738 m 1418 441 q 1363 564 1399 518 q 1267 637 1327 609 q 1145 666 1208 666 q 1020 637 1080 666 q 920 560 959 608 q 865 441 882 512 l 1418 441 m 465 665 q 320 626 388 665 q 215 519 253 587 q 178 368 178 451 q 262 156 178 241 q 468 71 346 71 q 675 155 591 71 q 759 367 759 239 q 722 521 759 456 q 616 626 686 587 q 465 665 547 665 m 848 1083 l 993 1083 l 794 875 l 700 875 l 848 1083 "},"Ļ":{"x_min":121,"x_max":604.15625,"ha":641,"o":"m 121 997 l 221 997 l 221 96 l 604 96 l 604 0 l 121 0 l 121 997 m 275 -86 q 340 -76 307 -76 q 447 -150 447 -76 q 404 -227 447 -197 q 290 -258 362 -258 q 192 -242 248 -258 l 207 -194 q 277 -204 253 -204 q 366 -160 366 -204 q 316 -131 366 -131 q 267 -139 298 -131 l 275 -86 "},"Õ":{"x_min":78,"x_max":1128,"ha":1207,"o":"m 596 1023 q 975 871 822 1023 q 1128 499 1128 720 q 975 127 1128 280 q 604 -25 823 -25 q 230 126 383 -25 q 78 494 78 278 q 147 761 78 638 q 336 953 216 883 q 596 1023 456 1023 m 601 925 q 392 867 491 925 q 237 712 293 809 q 182 494 182 614 q 304 194 182 316 q 601 72 427 72 q 815 128 717 72 q 969 282 914 184 q 1025 499 1025 379 q 969 713 1025 617 q 814 867 914 809 q 601 925 713 925 m 804 1213 l 851 1147 q 769 1100 802 1112 q 698 1088 735 1088 q 598 1113 649 1088 q 541 1138 554 1134 q 506 1143 525 1143 q 461 1134 482 1143 q 399 1096 440 1126 l 354 1165 q 507 1231 416 1231 q 610 1204 550 1231 q 701 1178 668 1178 q 804 1213 739 1178 "},"ć":{"x_min":71,"x_max":822.109375,"ha":899,"o":"m 822 584 l 746 537 q 480 667 649 667 q 256 580 345 667 q 167 369 167 493 q 208 217 167 288 q 320 106 249 145 q 481 67 392 67 q 746 196 643 67 l 822 147 q 679 23 769 67 q 476 -20 590 -20 q 186 91 301 -20 q 71 362 71 202 q 124 561 71 469 q 273 705 178 653 q 484 757 367 757 q 625 734 557 757 q 741 676 693 712 q 822 584 788 639 m 520 1083 l 666 1083 l 466 875 l 372 875 l 520 1083 "},"þ":{"x_min":107,"x_max":876,"ha":948,"o":"m 107 1023 l 200 1023 l 200 601 q 330 718 257 679 q 494 757 403 757 q 763 643 651 757 q 876 370 876 530 q 764 93 876 207 q 496 -20 653 -20 q 334 16 408 -20 q 200 126 260 53 l 200 -270 l 107 -270 l 107 1023 m 486 665 q 278 578 363 665 q 194 364 194 492 q 231 212 194 280 q 339 106 269 145 q 488 67 409 67 q 632 106 564 67 q 739 217 699 146 q 780 367 780 288 q 740 516 780 445 q 633 625 700 586 q 486 665 566 665 "},"]":{"x_min":62.75,"x_max":291,"ha":488,"o":"m 291 -270 l 62 -270 l 62 -174 l 195 -174 l 195 930 l 62 930 l 62 1023 l 291 1023 l 291 -270 "},"′":{"x_min":87.484375,"x_max":217.015625,"ha":275,"o":"m 157 709 l 87 709 l 116 1023 l 217 1023 l 157 709 "},"ẁ":{"x_min":6.109375,"x_max":1148.140625,"ha":1154,"o":"m 6 738 l 103 738 l 329 202 l 566 738 l 583 738 l 819 202 l 1049 738 l 1148 738 l 828 0 l 809 0 l 575 528 l 338 0 l 320 0 l 6 738 m 535 1084 l 683 875 l 590 875 l 389 1084 l 535 1084 "},"χ":{"x_min":-4.75,"x_max":672.0625,"ha":667,"o":"m 640 738 l 384 263 l 672 -270 l 563 -270 l 330 162 l 97 -270 l -4 -270 l 279 259 l 21 738 l 128 738 l 332 358 l 536 738 l 640 738 "},"ĭ":{"x_min":-100.59375,"x_max":380.609375,"ha":279,"o":"m 92 738 l 188 738 l 188 0 l 92 0 l 92 738 m -100 1034 l -11 1034 q 50 981 11 999 q 143 964 89 964 q 230 979 197 964 q 293 1034 263 994 l 380 1034 q 304 932 365 973 q 142 891 242 891 q -20 931 42 891 q -100 1034 -83 971 "},"8":{"x_min":47,"x_max":723,"ha":770,"o":"m 533 547 q 679 432 635 497 q 723 286 723 368 q 647 82 723 170 q 383 -25 555 -25 q 132 69 218 -25 q 47 278 47 164 q 91 428 47 361 q 240 547 136 494 q 130 641 167 585 q 94 762 94 697 q 133 889 94 827 q 240 987 172 951 q 389 1023 309 1023 q 534 987 467 1023 q 638 889 600 951 q 676 759 676 827 q 640 638 676 691 q 533 547 604 585 m 385 926 q 248 877 302 926 q 195 761 195 828 q 253 641 195 695 q 388 587 311 587 q 482 611 438 587 q 551 678 526 636 q 576 763 576 720 q 527 875 576 824 q 385 926 478 926 m 390 497 q 216 430 286 497 q 147 274 147 363 q 176 170 147 219 q 260 95 206 121 q 384 69 314 69 q 558 133 493 69 q 623 284 623 197 q 554 432 623 367 q 390 497 486 497 "},"ί":{"x_min":79.796875,"x_max":189,"ha":279,"o":"m 92 738 l 188 738 l 188 0 l 92 0 l 92 738 m 189 1084 l 189 855 l 99 855 l 79 1084 l 189 1084 "},"Ζ":{"x_min":38.25,"x_max":609.03125,"ha":667,"o":"m 83 902 l 83 998 l 609 998 l 192 97 l 588 97 l 588 0 l 38 0 l 457 902 l 83 902 "},"R":{"x_min":127,"x_max":765.234375,"ha":843,"o":"m 127 998 l 325 998 q 550 984 491 998 q 695 897 639 964 q 751 732 751 830 q 712 589 751 650 q 603 495 674 527 q 406 464 531 464 l 765 0 l 641 0 l 283 464 l 227 464 l 227 0 l 127 0 l 127 998 m 227 900 l 227 560 l 398 560 q 545 578 497 560 q 620 639 593 597 q 647 732 647 681 q 619 823 647 782 q 548 882 592 864 q 402 900 504 900 l 227 900 "},"ť":{"x_min":59,"x_max":447,"ha":471,"o":"m 401 788 l 361 806 q 397 912 397 863 l 353 912 l 353 1023 l 447 1023 l 447 953 q 439 865 447 895 q 401 788 431 835 m 188 1012 l 284 1012 l 284 738 l 435 738 l 435 657 l 284 657 l 284 0 l 188 0 l 188 657 l 59 657 l 59 738 l 188 738 l 188 1012 "},"Ľ":{"x_min":121,"x_max":604.15625,"ha":641,"o":"m 121 997 l 221 997 l 221 96 l 604 96 l 604 0 l 121 0 l 121 997 m 377 625 l 325 654 q 359 735 351 706 q 372 811 368 764 l 313 811 l 313 998 l 436 998 l 436 881 q 424 743 436 793 q 377 625 412 693 "},"Ż":{"x_min":38.25,"x_max":609.03125,"ha":667,"o":"m 83 902 l 83 998 l 609 998 l 192 97 l 588 97 l 588 0 l 38 0 l 457 902 l 83 902 m 307 1231 q 362 1207 339 1231 q 386 1152 386 1184 q 362 1097 386 1120 q 307 1074 339 1074 q 252 1097 275 1074 q 229 1152 229 1120 q 252 1207 229 1184 q 307 1231 275 1231 "},"o":{"x_min":71,"x_max":839.296875,"ha":910,"o":"m 455 757 q 737 633 625 757 q 839 366 839 520 q 731 96 839 212 q 455 -19 624 -19 q 178 96 285 -19 q 71 366 71 212 q 172 632 71 520 q 455 757 284 757 m 455 664 q 252 576 337 664 q 168 364 168 489 q 206 215 168 284 q 311 108 245 146 q 455 71 376 71 q 599 108 534 71 q 704 215 665 146 q 743 364 743 284 q 657 576 743 489 q 455 664 572 664 "},"5":{"x_min":56,"x_max":708,"ha":769,"o":"m 683 998 l 683 903 l 327 903 l 277 630 q 395 650 342 650 q 619 558 531 650 q 708 325 708 467 q 662 144 708 226 q 539 18 617 62 q 360 -25 461 -25 q 155 49 239 -25 q 56 242 72 123 l 158 242 q 197 148 169 184 q 270 90 224 112 q 366 68 316 68 q 535 142 464 68 q 606 328 606 217 q 542 492 606 429 q 372 556 478 556 q 158 502 283 556 l 250 998 l 683 998 "},"ħ":{"x_min":3,"x_max":750,"ha":848,"o":"m 201 919 l 455 919 l 455 840 l 201 840 l 201 605 q 477 757 315 757 q 640 703 573 757 q 728 578 707 650 q 750 379 750 507 l 750 0 l 655 0 l 655 351 q 641 537 655 479 q 580 632 627 595 q 458 669 534 669 q 342 639 393 669 q 256 559 290 609 q 211 455 222 509 q 201 270 201 402 l 201 0 l 106 0 l 106 840 l 3 840 l 3 919 l 106 919 l 106 1022 l 201 1022 l 201 919 "},"õ":{"x_min":71,"x_max":839.296875,"ha":910,"o":"m 455 757 q 737 633 625 757 q 839 366 839 520 q 731 96 839 212 q 455 -19 624 -19 q 178 96 285 -19 q 71 366 71 212 q 172 632 71 520 q 455 757 284 757 m 455 664 q 252 576 337 664 q 168 364 168 489 q 206 215 168 284 q 311 108 245 146 q 455 71 376 71 q 599 108 534 71 q 704 215 665 146 q 743 364 743 284 q 657 576 743 489 q 455 664 572 664 m 656 1012 l 703 946 q 621 898 654 910 q 550 886 587 886 q 450 911 501 886 q 393 937 406 933 q 358 942 377 942 q 313 933 334 942 q 251 894 292 924 l 206 964 q 359 1030 268 1030 q 462 1002 402 1030 q 553 976 520 976 q 656 1012 591 976 "},",":{"x_min":86.8125,"x_max":291.609375,"ha":385,"o":"m 200 183 l 291 139 l 153 -116 l 86 -88 l 200 183 "},"d":{"x_min":74,"x_max":842,"ha":951,"o":"m 842 1023 l 842 0 l 748 0 l 748 126 q 614 16 689 53 q 452 -20 540 -20 q 184 93 295 -20 q 74 370 74 207 q 185 643 74 530 q 455 757 297 757 q 619 718 546 757 q 748 601 693 679 l 748 1023 l 842 1023 m 462 665 q 316 625 383 665 q 209 516 249 586 q 170 367 170 445 q 209 217 170 288 q 317 106 249 146 q 462 67 384 67 q 609 106 540 67 q 717 212 679 145 q 755 364 755 280 q 670 578 755 492 q 462 665 586 665 "},"\"":{"x_min":40,"x_max":389,"ha":430,"o":"m 389 709 l 304 709 l 304 1023 l 389 1023 l 389 709 m 125 709 l 40 709 l 40 1023 l 125 1023 l 125 709 "},"˙":{"x_min":76,"x_max":233,"ha":308,"o":"m 154 1029 q 209 1005 186 1029 q 233 950 233 982 q 209 895 233 918 q 154 872 186 872 q 99 895 122 872 q 76 950 76 918 q 99 1005 76 982 q 154 1029 122 1029 "},"ê":{"x_min":71,"x_max":831.203125,"ha":903,"o":"m 727 244 l 807 202 q 716 77 768 125 q 600 5 665 30 q 454 -19 536 -19 q 172 99 274 -19 q 71 366 71 217 q 157 617 71 507 q 449 757 266 757 q 751 613 638 757 q 831 361 831 512 l 170 361 q 249 150 170 232 q 446 68 329 68 q 555 87 502 68 q 646 139 609 107 q 727 244 683 172 m 727 443 q 672 564 708 519 q 576 638 635 610 q 450 666 516 666 q 264 595 342 666 q 178 443 207 544 l 727 443 m 407 1045 l 501 1045 l 698 872 l 576 872 l 456 974 l 332 872 l 205 872 l 407 1045 "},"″":{"x_min":32.546875,"x_max":425.890625,"ha":429,"o":"m 366 709 l 295 709 l 325 1023 l 425 1023 l 366 709 m 103 709 l 32 709 l 61 1023 l 162 1023 l 103 709 "},"„":{"x_min":134,"x_max":559,"ha":697,"o":"m 500 -185 l 448 -156 q 482 -75 474 -104 q 495 0 491 -46 l 436 0 l 436 187 l 559 187 l 559 70 q 547 -67 559 -17 q 500 -185 535 -117 m 198 -185 l 146 -156 q 180 -75 172 -104 q 193 0 189 -46 l 134 0 l 134 187 l 257 187 l 257 70 q 245 -67 257 -17 q 198 -185 233 -117 "},"ľ":{"x_min":91,"x_max":341,"ha":287,"o":"m 91 1023 l 186 1023 l 186 0 l 91 0 l 91 1023 m 291 705 l 247 731 q 285 864 285 802 l 237 864 l 237 1023 l 341 1023 l 341 923 q 331 809 341 851 q 291 705 322 766 "},"δ":{"x_min":71,"x_max":724,"ha":795,"o":"m 301 614 q 190 811 190 689 q 269 977 190 913 q 464 1042 348 1042 q 626 1022 550 1042 l 601 938 q 472 953 544 953 q 336 914 386 953 q 287 813 287 876 q 320 721 287 759 q 495 625 353 682 q 724 309 724 533 q 630 75 724 170 q 397 -19 536 -19 q 165 75 259 -19 q 71 309 71 170 q 301 614 71 533 m 397 546 q 234 476 301 546 q 168 307 168 405 q 234 139 168 208 q 397 71 300 71 q 561 139 495 71 q 627 307 627 208 q 560 476 627 405 q 397 546 494 546 m 397 636 l 397 636 "},"Â":{"x_min":33.234375,"x_max":994.203125,"ha":1027,"o":"m 528 997 l 994 0 l 887 0 l 730 328 l 300 328 l 144 0 l 33 0 l 504 997 l 528 997 m 516 785 l 345 424 l 686 424 l 516 785 m 468 1247 l 562 1247 l 759 1073 l 637 1073 l 518 1176 l 393 1073 l 267 1073 l 468 1247 "},"Į":{"x_min":52,"x_max":270.75,"ha":314,"o":"m 107 997 l 207 997 l 207 0 l 107 0 l 107 997 m 133 0 l 207 0 q 125 -131 125 -70 q 150 -184 125 -162 q 223 -206 175 -206 q 270 -202 243 -206 l 264 -260 q 206 -267 236 -267 q 91 -231 131 -267 q 52 -144 52 -195 q 133 0 52 -56 "},"ė":{"x_min":71,"x_max":831.203125,"ha":903,"o":"m 727 244 l 807 202 q 716 77 768 125 q 600 5 665 30 q 454 -19 536 -19 q 172 99 274 -19 q 71 366 71 217 q 157 617 71 507 q 449 757 266 757 q 751 613 638 757 q 831 361 831 512 l 170 361 q 249 150 170 232 q 445 68 329 68 q 555 87 502 68 q 646 139 609 107 q 727 244 683 172 m 727 443 q 672 564 708 519 q 576 638 635 610 q 450 666 516 666 q 264 595 342 666 q 178 443 207 544 l 727 443 m 451 1029 q 506 1005 483 1029 q 530 950 530 982 q 506 895 530 918 q 451 872 483 872 q 396 895 419 872 q 373 950 373 918 q 396 1005 373 982 q 451 1029 419 1029 "},"ω":{"x_min":71,"x_max":1121,"ha":1192,"o":"m 595 135 q 518 23 576 65 q 385 -19 461 -19 q 155 76 239 -19 q 71 339 71 171 q 185 634 71 516 q 478 752 299 752 l 478 660 q 253 568 338 660 q 168 336 168 476 q 223 138 168 208 q 378 68 279 68 q 502 135 456 68 q 547 331 547 203 l 547 422 l 644 422 l 644 331 q 689 135 644 203 q 813 68 734 68 q 966 136 908 68 q 1024 335 1024 204 q 938 569 1024 478 q 713 660 853 660 l 713 752 q 1006 633 891 752 q 1121 338 1121 515 q 1036 76 1121 171 q 806 -19 952 -19 q 672 23 730 -19 q 595 135 615 65 "},"Ţ":{"x_min":22,"x_max":569,"ha":591,"o":"m 22 900 l 22 997 l 569 997 l 569 900 l 347 900 l 347 0 l 245 0 l 245 900 l 22 900 m 318 -290 l 274 -271 q 297 -187 297 -222 l 242 -187 l 242 -83 l 349 -83 l 349 -117 q 318 -290 349 -230 "},"Í":{"x_min":54.78125,"x_max":348.734375,"ha":314,"o":"m 107 998 l 207 998 l 207 0 l 107 0 l 107 998 m 202 1285 l 348 1285 l 148 1076 l 54 1076 l 202 1285 "},"´":{"x_min":158.6875,"x_max":452.34375,"ha":521,"o":"m 306 1084 l 452 1084 l 252 875 l 158 875 l 306 1084 "},"Ú":{"x_min":125,"x_max":786,"ha":910,"o":"m 125 998 l 225 998 l 225 395 q 229 261 225 288 q 263 163 236 202 q 347 96 290 123 q 460 70 403 70 q 555 91 509 70 q 631 149 600 112 q 675 239 661 186 q 686 395 686 277 l 686 998 l 786 998 l 786 395 q 759 179 786 261 q 655 36 733 97 q 465 -25 576 -25 q 258 32 344 -25 q 143 185 172 90 q 125 395 125 243 l 125 998 m 501 1285 l 647 1285 l 447 1077 l 353 1077 l 501 1285 "},"Ŷ":{"x_min":42.859375,"x_max":779.03125,"ha":822,"o":"m 42 998 l 158 998 l 412 586 l 663 998 l 779 998 l 463 476 l 463 0 l 365 0 l 365 476 l 42 998 m 366 1248 l 460 1248 l 656 1074 l 534 1074 l 415 1176 l 291 1074 l 164 1074 l 366 1248 "},"ŝ":{"x_min":23.890625,"x_max":515.65625,"ha":539,"o":"m 476 657 l 415 594 q 266 668 339 668 q 187 637 220 668 q 155 566 155 606 q 182 497 155 530 q 296 419 209 464 q 439 313 401 364 q 477 197 477 262 q 413 43 477 106 q 254 -19 349 -19 q 132 8 190 -19 q 36 85 74 36 l 96 153 q 249 71 168 71 q 346 107 306 71 q 387 193 387 144 q 360 266 387 234 q 241 345 334 297 q 105 446 141 396 q 70 561 70 497 q 127 701 70 645 q 271 757 184 757 q 476 657 373 757 m 224 1045 l 319 1045 l 515 871 l 393 871 l 274 974 l 149 871 l 23 871 l 224 1045 "},"Ý":{"x_min":42.859375,"x_max":779.03125,"ha":822,"o":"m 42 998 l 158 998 l 412 586 l 663 998 l 779 998 l 463 476 l 463 0 l 365 0 l 365 476 l 42 998 m 456 1285 l 602 1285 l 402 1076 l 309 1076 l 456 1285 "},"Ĉ":{"x_min":75,"x_max":1050.09375,"ha":1129,"o":"m 1050 813 l 971 752 q 815 881 906 837 q 614 925 723 925 q 393 867 495 925 q 235 713 291 810 q 180 495 180 616 q 305 191 180 313 q 620 69 430 69 q 971 233 830 69 l 1050 173 q 863 26 975 78 q 614 -25 752 -25 q 201 149 352 -25 q 75 504 75 296 q 228 873 75 723 q 613 1023 382 1023 q 865 967 753 1023 q 1050 813 978 912 m 546 1248 l 640 1248 l 837 1074 l 715 1074 l 595 1177 l 470 1074 l 344 1074 l 546 1248 "},"⌡":{"x_min":174,"x_max":465,"ha":833,"o":"m 367 1179 l 465 1179 l 465 -49 q 406 -269 465 -190 q 267 -349 348 -349 q 200 -329 227 -349 q 174 -274 174 -310 q 191 -229 174 -247 q 232 -212 209 -212 q 271 -222 256 -212 q 299 -253 285 -231 q 331 -279 316 -279 q 359 -262 351 -279 q 367 -158 367 -246 l 367 1179 "},"ą":{"x_min":73,"x_max":893.890625,"ha":949,"o":"m 841 737 l 841 0 l 747 0 l 747 126 q 613 16 688 53 q 451 -20 539 -20 q 183 93 294 -20 q 73 370 73 207 q 184 643 73 530 q 454 757 296 757 q 618 718 545 757 q 747 601 692 679 l 747 737 l 841 737 m 461 665 q 315 625 382 665 q 208 516 248 586 q 169 367 169 445 q 208 217 169 288 q 316 106 248 146 q 461 67 383 67 q 608 106 539 67 q 716 212 678 145 q 754 364 754 280 q 669 578 754 492 q 461 665 585 665 m 756 0 l 830 0 q 749 -131 749 -70 q 774 -184 749 -162 q 847 -206 799 -206 q 893 -202 866 -206 l 887 -260 q 830 -267 859 -267 q 715 -231 755 -267 q 676 -144 676 -195 q 756 0 676 -56 "},"Ω":{"x_min":88,"x_max":1073,"ha":1161,"o":"m 747 94 l 1041 94 l 1041 0 l 661 0 l 661 133 q 916 358 862 264 q 970 556 970 453 q 862 824 970 724 q 580 924 754 924 q 299 824 407 924 q 191 556 191 724 q 241 361 191 453 q 500 133 292 268 l 500 0 l 120 0 l 120 94 l 413 94 q 152 323 216 216 q 88 558 88 429 q 226 893 88 765 q 580 1022 365 1022 q 934 893 795 1022 q 1073 558 1073 765 q 1008 323 1073 429 q 747 94 944 216 "},"Ö":{"x_min":78,"x_max":1128,"ha":1207,"o":"m 596 1023 q 975 871 822 1023 q 1128 499 1128 720 q 975 127 1128 280 q 604 -25 823 -25 q 230 126 383 -25 q 78 494 78 278 q 147 761 78 638 q 336 953 216 883 q 596 1023 456 1023 m 601 925 q 392 867 491 925 q 237 712 293 809 q 182 494 182 614 q 304 194 182 316 q 601 72 427 72 q 815 128 717 72 q 969 282 914 184 q 1025 499 1025 379 q 969 713 1025 617 q 814 867 914 809 q 601 925 713 925 m 465 1232 q 520 1208 497 1232 q 544 1153 544 1185 q 520 1098 544 1121 q 465 1075 497 1075 q 410 1098 433 1075 q 387 1153 387 1121 q 410 1208 387 1185 q 465 1232 433 1232 m 741 1232 q 796 1208 773 1232 q 820 1153 820 1185 q 796 1098 820 1121 q 741 1075 773 1075 q 686 1098 709 1075 q 663 1153 663 1121 q 686 1208 663 1185 q 741 1232 709 1232 "},"z":{"x_min":5.671875,"x_max":586.5625,"ha":589,"o":"m 45 738 l 586 738 l 169 84 l 573 84 l 573 0 l 5 0 l 423 655 l 45 655 l 45 738 "},"Θ":{"x_min":78,"x_max":1128,"ha":1207,"o":"m 604 -25 q 230 125 383 -25 q 78 494 78 275 q 229 869 78 715 q 596 1023 380 1023 q 975 873 822 1023 q 1128 499 1128 723 q 976 126 1128 278 q 604 -25 825 -25 m 601 925 q 307 802 433 925 q 182 494 182 680 q 303 194 182 317 q 601 72 424 72 q 901 193 778 72 q 1025 499 1025 314 q 893 810 1025 696 q 601 925 761 925 m 853 456 l 353 456 l 353 554 l 853 554 l 853 456 "},"Ř":{"x_min":127,"x_max":765.234375,"ha":843,"o":"m 127 998 l 325 998 q 550 984 491 998 q 695 897 639 964 q 751 732 751 830 q 712 589 751 650 q 603 495 674 527 q 406 464 531 464 l 765 0 l 641 0 l 283 464 l 227 464 l 227 0 l 127 0 l 127 998 m 227 900 l 227 560 l 398 560 q 545 578 497 560 q 620 639 593 597 q 647 732 647 681 q 619 823 647 782 q 548 882 592 864 q 402 900 504 900 l 227 900 m 443 1073 l 348 1073 l 152 1247 l 274 1247 l 394 1144 l 518 1247 l 644 1247 l 443 1073 "},"ã":{"x_min":73,"x_max":841,"ha":949,"o":"m 841 738 l 841 0 l 747 0 l 747 126 q 613 16 688 53 q 451 -20 539 -20 q 183 93 294 -20 q 73 370 73 207 q 184 643 73 530 q 454 757 296 757 q 618 718 545 757 q 747 601 692 679 l 747 738 l 841 738 m 461 665 q 315 625 382 665 q 208 516 248 586 q 169 367 169 445 q 208 217 169 288 q 316 106 248 146 q 461 67 383 67 q 608 106 539 67 q 716 212 678 145 q 754 364 754 280 q 669 578 754 492 q 461 665 585 665 m 676 1011 l 723 945 q 641 898 674 910 q 570 886 607 886 q 469 911 521 886 q 413 936 425 932 q 378 941 397 941 q 333 932 354 941 q 271 894 312 924 l 226 963 q 379 1029 288 1029 q 482 1002 422 1029 q 573 976 540 976 q 676 1011 610 976 "},"Ň":{"x_min":122,"x_max":905,"ha":1027,"o":"m 122 0 l 122 998 l 143 998 l 807 234 l 807 998 l 905 998 l 905 0 l 882 0 l 225 754 l 225 0 l 122 0 m 562 1073 l 468 1073 l 271 1247 l 393 1247 l 513 1144 l 638 1247 l 764 1247 l 562 1073 "},"æ":{"x_min":81,"x_max":1523.578125,"ha":1606,"o":"m 844 738 l 844 603 q 982 723 915 690 q 1139 757 1049 757 q 1414 645 1306 757 q 1523 359 1523 533 l 861 359 q 900 210 861 280 q 1004 103 939 140 q 1148 67 1069 67 q 1300 108 1233 67 q 1418 241 1368 150 l 1499 201 q 1355 37 1449 95 q 1142 -20 1261 -20 q 955 26 1038 -20 q 844 131 896 60 l 844 0 l 757 0 l 757 136 q 639 28 696 60 q 461 -19 558 -19 q 192 94 304 -19 q 81 371 81 208 q 131 565 81 477 q 270 705 181 653 q 458 757 359 757 q 637 710 554 757 q 757 603 696 676 l 757 738 l 844 738 m 1418 441 q 1363 564 1399 518 q 1267 637 1327 609 q 1145 666 1208 666 q 1020 637 1080 666 q 920 560 959 608 q 865 441 882 512 l 1418 441 m 465 665 q 320 626 388 665 q 215 519 253 587 q 178 368 178 451 q 262 156 178 241 q 468 71 346 71 q 675 155 591 71 q 759 367 759 239 q 722 521 759 456 q 616 626 686 587 q 465 665 547 665 "},"ĩ":{"x_min":-109.40625,"x_max":388.0625,"ha":279,"o":"m 92 738 l 188 738 l 188 0 l 92 0 l 92 738 m 340 1012 l 388 946 q 305 898 339 910 q 234 886 272 886 q 134 911 185 886 q 77 937 89 933 q 42 942 61 942 q -2 933 18 942 q -64 894 -23 924 l -109 964 q 43 1030 -47 1030 q 147 1002 86 1030 q 238 976 204 976 q 340 1012 275 976 "},"É":{"x_min":122,"x_max":694,"ha":745,"o":"m 122 998 l 694 998 l 694 900 l 222 900 l 222 588 l 689 588 l 689 490 l 222 490 l 222 98 l 689 98 l 689 0 l 122 0 l 122 998 m 459 1285 l 605 1285 l 405 1076 l 311 1076 l 459 1285 "},"ŀ":{"x_min":92,"x_max":399,"ha":367,"o":"m 92 1023 l 187 1023 l 187 0 l 92 0 l 92 1023 m 320 590 q 375 566 352 590 q 399 511 399 543 q 375 456 399 479 q 320 433 352 433 q 265 456 288 433 q 242 511 242 479 q 265 566 242 543 q 320 590 288 590 "},"~":{"x_min":76,"x_max":765,"ha":842,"o":"m 765 568 l 765 458 q 656 404 689 415 q 594 393 623 393 q 414 445 529 393 q 300 494 324 486 q 253 502 275 502 q 187 489 223 502 q 76 430 151 476 l 76 539 q 183 592 150 581 q 248 604 217 604 q 430 549 314 604 q 539 502 510 511 q 592 493 569 493 q 650 504 621 493 q 765 568 679 515 "},"Ċ":{"x_min":75,"x_max":1050.390625,"ha":1129,"o":"m 1050 813 l 971 752 q 815 881 906 837 q 614 925 724 925 q 393 867 495 925 q 235 713 291 810 q 180 495 180 616 q 305 191 180 313 q 621 69 430 69 q 971 233 830 69 l 1050 173 q 864 26 975 78 q 614 -25 752 -25 q 201 149 353 -25 q 75 504 75 296 q 228 873 75 723 q 613 1023 382 1023 q 865 967 753 1023 q 1050 813 978 912 m 595 1232 q 650 1208 627 1232 q 674 1153 674 1185 q 650 1098 674 1121 q 595 1075 627 1075 q 540 1098 563 1075 q 517 1153 517 1121 q 540 1208 517 1185 q 595 1232 563 1232 "},"³":{"x_min":29.53125,"x_max":442,"ha":478,"o":"m 124 877 l 48 877 q 114 985 66 948 q 231 1023 161 1023 q 360 982 310 1023 q 410 885 410 941 q 348 786 410 826 q 417 729 393 764 q 442 654 442 694 q 384 535 442 586 q 233 485 327 485 q 97 526 148 485 q 29 648 45 568 l 103 648 q 149 575 117 598 q 233 552 181 552 q 330 581 294 552 q 367 651 367 611 q 326 721 367 696 q 195 747 285 747 l 195 813 q 298 835 264 813 q 332 886 332 857 q 304 934 332 913 q 231 956 277 956 q 169 938 194 956 q 124 877 144 920 "},"¡":{"x_min":121,"x_max":288,"ha":409,"o":"m 204 753 q 263 728 239 753 q 288 669 288 704 q 263 609 288 633 q 204 585 239 585 q 145 609 169 585 q 121 669 121 633 q 145 728 121 703 q 204 753 169 753 m 156 -289 l 156 484 l 254 484 l 254 -289 l 156 -289 "},"ẅ":{"x_min":5.640625,"x_max":1147.640625,"ha":1154,"o":"m 5 738 l 103 738 l 329 202 l 565 738 l 582 738 l 818 202 l 1048 738 l 1147 738 l 827 0 l 809 0 l 574 528 l 337 0 l 320 0 l 5 738 m 439 1029 q 494 1005 471 1029 q 518 950 518 982 q 494 895 518 918 q 439 872 471 872 q 384 895 407 872 q 361 950 361 918 q 384 1005 361 982 q 439 1029 407 1029 m 716 1029 q 771 1005 748 1029 q 795 950 795 982 q 771 895 795 918 q 716 872 748 872 q 661 895 684 872 q 638 950 638 918 q 661 1005 638 982 q 716 1029 684 1029 "},"[":{"x_min":197,"x_max":424.921875,"ha":488,"o":"m 197 1023 l 424 1023 l 424 927 l 292 927 l 292 -177 l 424 -177 l 424 -270 l 197 -270 l 197 1023 "},"ζ":{"x_min":80,"x_max":632,"ha":646,"o":"m 263 -275 l 287 -190 q 368 -201 330 -201 q 535 -93 535 -201 q 498 -29 535 -53 q 358 13 461 -6 q 80 342 80 67 q 179 627 80 485 q 499 940 278 768 l 158 940 l 158 1023 l 616 1023 l 616 940 q 274 603 371 734 q 177 349 177 473 q 225 182 177 243 q 402 95 273 122 q 594 19 557 63 q 632 -89 632 -25 q 560 -236 632 -183 q 375 -289 488 -289 q 263 -275 316 -289 "},"Γ":{"x_min":120,"x_max":619.796875,"ha":642,"o":"m 619 899 l 219 899 l 219 0 l 120 0 l 120 997 l 619 997 l 619 899 "},"%":{"x_min":31,"x_max":1045,"ha":1076,"o":"m 936 1041 l 209 -69 l 119 -69 l 781 943 q 494 915 664 915 l 458 915 q 500 791 500 857 q 435 625 500 698 q 263 552 370 552 q 98 620 165 552 q 31 786 31 688 q 61 904 31 851 q 148 990 92 957 q 263 1023 204 1023 q 346 1010 288 1023 q 537 992 434 992 q 681 1001 613 992 q 856 1041 748 1011 l 936 1041 m 265 937 q 160 893 203 937 q 117 787 117 849 q 160 682 117 725 q 265 639 203 639 q 371 682 327 639 q 415 787 415 725 q 371 893 415 849 q 265 937 327 937 m 810 440 q 976 371 907 440 q 1045 205 1045 302 q 976 39 1045 108 q 810 -29 907 -29 q 644 39 713 -29 q 576 205 576 108 q 644 371 576 302 q 810 440 713 440 m 810 354 q 705 310 748 354 q 662 205 662 267 q 705 100 662 143 q 810 57 748 57 q 916 100 872 57 q 960 205 960 143 q 916 310 960 267 q 810 354 872 354 "},"P":{"x_min":121,"x_max":744,"ha":822,"o":"m 121 998 l 319 998 q 550 983 490 998 q 689 896 635 962 q 744 732 744 831 q 691 567 744 632 q 545 480 638 502 q 292 464 477 464 l 221 464 l 221 0 l 121 0 l 121 998 m 221 901 l 221 560 l 389 560 q 539 578 491 560 q 613 638 586 597 q 641 732 641 680 q 613 824 641 782 q 542 883 586 865 q 397 901 498 901 l 221 901 "},"∏":{"x_min":110,"x_max":1034,"ha":1143,"o":"m 110 1042 l 1034 1042 l 1034 -288 l 904 -288 l 904 924 l 241 924 l 241 -288 l 110 -288 l 110 1042 "},"Έ":{"x_min":-68.1875,"x_max":755,"ha":806,"o":"m 183 998 l 755 998 l 755 900 l 283 900 l 283 588 l 750 588 l 750 490 l 283 490 l 283 98 l 750 98 l 750 0 l 183 0 l 183 998 m 41 1023 l 41 794 l -48 794 l -68 1023 l 41 1023 "},"_":{"x_min":-8,"x_max":703,"ha":695,"o":"m -8 -105 l 703 -105 l 703 -174 l -8 -174 l -8 -105 "},"Ŕ":{"x_min":127,"x_max":765.234375,"ha":843,"o":"m 127 998 l 325 998 q 550 984 491 998 q 695 897 639 964 q 751 732 751 830 q 712 589 751 650 q 603 495 674 527 q 406 464 531 464 l 765 0 l 641 0 l 283 464 l 227 464 l 227 0 l 127 0 l 127 998 m 227 900 l 227 560 l 398 560 q 545 578 497 560 q 620 639 593 597 q 647 732 647 681 q 619 823 647 782 q 548 882 592 864 q 402 900 504 900 l 227 900 m 491 1285 l 637 1285 l 437 1077 l 344 1077 l 491 1285 "},"ñ":{"x_min":106,"x_max":749,"ha":847,"o":"m 106 738 l 201 738 l 201 605 q 327 719 257 681 q 477 757 396 757 q 624 714 560 757 q 718 601 688 672 q 749 379 749 530 l 749 0 l 655 0 l 655 351 q 644 521 655 479 q 580 632 627 595 q 458 669 533 669 q 304 612 372 669 q 214 471 236 555 q 201 270 201 416 l 201 0 l 106 0 l 106 738 m 624 1011 l 671 945 q 589 898 623 910 q 518 886 556 886 q 418 911 470 886 q 362 936 374 932 q 327 941 346 941 q 281 932 303 941 q 219 894 260 924 l 175 963 q 327 1029 236 1029 q 431 1002 371 1029 q 522 976 488 976 q 624 1011 559 976 "},"‚":{"x_min":173,"x_max":296,"ha":492,"o":"m 237 -185 l 185 -156 q 219 -75 211 -105 q 232 0 228 -46 l 173 0 l 173 187 l 296 187 l 296 70 q 284 -67 296 -17 q 237 -185 272 -117 "},"⅞":{"x_min":55,"x_max":1123,"ha":1155,"o":"m 175 -25 l 801 1022 l 877 1022 l 250 -25 l 175 -25 m 55 1010 l 447 1010 l 125 485 l 63 512 l 327 944 l 55 944 l 55 1010 m 1024 280 q 1123 149 1123 234 q 1070 36 1123 84 q 922 -12 1017 -12 q 774 37 825 -12 q 724 145 724 86 q 826 280 724 233 q 753 389 753 318 q 803 485 753 444 q 927 526 854 526 q 1047 484 998 526 q 1096 386 1096 443 q 1024 280 1096 318 m 1021 389 q 994 439 1021 420 q 924 459 968 459 q 856 439 885 459 q 828 388 828 419 q 858 332 828 355 q 925 310 888 310 q 992 333 964 310 q 1021 389 1021 356 m 1048 148 q 1012 217 1048 189 q 926 246 977 246 q 837 218 876 246 q 799 143 799 190 q 836 76 799 98 q 924 54 873 54 q 1012 80 977 54 q 1048 148 1048 106 "},"Ρ":{"x_min":121,"x_max":744,"ha":822,"o":"m 121 998 l 319 998 q 550 983 490 998 q 689 896 635 962 q 744 732 744 831 q 691 567 744 632 q 545 480 638 502 q 292 464 477 464 l 221 464 l 221 0 l 121 0 l 121 998 m 221 901 l 221 560 l 389 560 q 539 578 491 560 q 613 638 586 597 q 641 732 641 680 q 613 824 641 782 q 542 883 586 865 q 397 901 498 901 l 221 901 "},"Æ":{"x_min":0.625,"x_max":1262,"ha":1378,"o":"m 0 0 l 644 998 l 1262 998 l 1262 896 l 792 896 l 792 589 l 1262 589 l 1262 491 l 792 491 l 792 98 l 1262 98 l 1262 0 l 691 0 l 691 327 l 328 327 l 116 0 l 0 0 m 391 421 l 691 421 l 691 883 l 391 421 "},"₣":{"x_min":0,"x_max":620.796875,"ha":673,"o":"m 220 282 l 411 282 l 411 188 l 220 188 l 220 0 l 121 0 l 121 188 l 0 188 l 0 282 l 121 282 l 121 998 l 620 998 l 620 900 l 220 900 l 220 587 l 620 587 l 620 489 l 220 489 l 220 282 "},"ğ":{"x_min":68,"x_max":837,"ha":935,"o":"m 741 738 l 837 738 l 837 149 q 809 -77 837 -5 q 680 -234 772 -179 q 458 -289 588 -289 q 288 -262 363 -289 q 165 -190 212 -235 q 77 -59 117 -145 l 180 -59 q 289 -166 222 -131 q 453 -202 355 -202 q 617 -165 550 -202 q 712 -74 684 -129 q 741 101 741 -19 l 741 139 q 610 35 687 71 q 446 -1 533 -1 q 255 49 344 -1 q 116 185 165 100 q 68 373 68 271 q 118 565 68 476 q 259 705 169 653 q 449 757 349 757 q 603 722 531 757 q 741 609 674 688 l 741 738 m 461 665 q 311 625 380 665 q 203 518 242 586 q 164 369 164 449 q 245 168 164 247 q 456 89 326 89 q 666 167 586 89 q 746 374 746 246 q 709 523 746 458 q 605 627 672 589 q 461 665 538 665 m 227 1034 l 317 1034 q 378 981 340 999 q 470 964 417 964 q 558 979 525 964 q 621 1034 591 994 l 708 1034 q 631 932 693 973 q 470 891 570 891 q 307 931 370 891 q 227 1034 244 971 "},"Ū":{"x_min":125,"x_max":786,"ha":910,"o":"m 125 998 l 225 998 l 225 395 q 229 261 225 288 q 263 163 236 202 q 347 96 290 123 q 460 70 403 70 q 555 91 509 70 q 631 149 600 112 q 675 239 661 186 q 686 395 686 277 l 686 998 l 786 998 l 786 395 q 759 179 786 261 q 655 36 733 97 q 465 -25 576 -25 q 258 32 344 -25 q 143 185 172 90 q 125 395 125 243 l 125 998 m 221 1206 l 689 1206 l 689 1125 l 221 1125 l 221 1206 "},"ª":{"x_min":39,"x_max":451,"ha":513,"o":"m 451 1012 l 451 550 l 373 550 l 373 614 q 310 557 345 576 q 233 539 275 539 q 97 607 155 539 q 39 781 39 676 q 98 954 39 885 q 234 1023 157 1023 q 311 1003 276 1023 q 373 944 346 983 l 373 1012 l 451 1012 m 248 949 q 157 901 196 949 q 118 780 118 854 q 157 658 118 706 q 247 610 196 610 q 338 656 299 610 q 378 779 378 702 q 339 901 378 854 q 248 949 300 949 "},"΅":{"x_min":35,"x_max":489,"ha":525,"o":"m 311 1084 l 311 855 l 222 855 l 202 1084 l 311 1084 m 429 876 q 386 893 404 876 q 369 936 369 911 q 386 979 369 962 q 429 997 404 997 q 471 979 454 997 q 489 936 489 961 q 471 893 489 911 q 429 876 454 876 m 95 876 q 52 893 70 876 q 35 936 35 911 q 52 979 35 961 q 95 997 70 997 q 138 979 120 997 q 156 936 156 962 q 138 893 156 911 q 95 876 120 876 "},"Œ":{"x_min":77,"x_max":1600.265625,"ha":1658,"o":"m 1032 998 l 1600 998 l 1600 900 l 1133 900 l 1133 589 l 1600 589 l 1600 491 l 1133 491 l 1133 98 l 1600 98 l 1600 0 l 1032 0 l 1032 193 q 904 64 965 107 q 769 -2 844 20 q 606 -25 695 -25 q 200 160 355 -25 q 77 493 77 307 q 146 758 77 635 q 341 952 216 881 q 607 1023 467 1023 q 864 953 741 1023 q 1032 804 961 897 l 1032 998 m 604 927 q 310 800 436 927 q 185 502 185 673 q 309 197 185 322 q 612 72 433 72 q 908 197 785 72 q 1031 500 1031 322 q 974 713 1031 616 q 816 868 918 810 q 604 927 714 927 "},"Ą":{"x_min":33.46875,"x_max":1030.8125,"ha":1028,"o":"m 529 997 l 994 0 l 887 0 l 730 328 l 300 328 l 144 0 l 33 0 l 504 997 l 529 997 m 517 785 l 345 424 l 686 424 l 517 785 m 893 0 l 967 0 q 885 -131 885 -70 q 910 -184 885 -162 q 984 -206 935 -206 q 1030 -202 1003 -206 l 1024 -260 q 966 -267 996 -267 q 851 -231 891 -267 q 812 -144 812 -195 q 893 0 812 -56 "},"T":{"x_min":22,"x_max":569,"ha":591,"o":"m 22 901 l 22 998 l 569 998 l 569 901 l 347 901 l 347 0 l 245 0 l 245 901 l 22 901 "},"š":{"x_min":23.21875,"x_max":514.96875,"ha":539,"o":"m 476 657 l 415 594 q 266 668 339 668 q 187 637 220 668 q 155 566 155 606 q 182 497 155 530 q 296 419 209 464 q 439 313 401 364 q 477 197 477 262 q 413 43 477 106 q 254 -19 349 -19 q 132 8 190 -19 q 36 85 74 36 l 96 153 q 249 71 168 71 q 346 107 306 71 q 387 193 387 144 q 360 266 387 234 q 241 345 334 297 q 105 446 141 396 q 70 561 70 497 q 127 701 70 645 q 271 757 184 757 q 476 657 373 757 m 313 871 l 219 871 l 23 1046 l 144 1046 l 264 942 l 389 1046 l 514 1046 l 313 871 "},"Þ":{"x_min":121,"x_max":744,"ha":822,"o":"m 121 998 l 221 998 l 221 764 l 319 764 q 549 749 489 764 q 689 662 634 728 q 744 498 744 597 q 691 334 744 399 q 545 247 638 270 q 292 231 477 231 l 221 231 l 221 0 l 121 0 l 121 998 m 221 667 l 221 327 l 389 327 q 539 345 491 327 q 613 406 586 364 q 641 498 641 447 q 613 590 641 549 q 542 649 586 631 q 397 667 498 667 l 221 667 "},"j":{"x_min":-43.671875,"x_max":219,"ha":282,"o":"m 141 1042 q 196 1018 173 1042 q 219 963 219 995 q 196 908 219 931 q 141 885 173 885 q 85 908 108 885 q 63 963 63 931 q 85 1018 63 995 q 141 1042 108 1042 m 94 738 l 190 738 l 190 -111 q 156 -246 190 -204 q 64 -289 123 -289 q -43 -265 16 -289 l -43 -180 q 24 -200 -5 -200 q 82 -168 63 -200 q 94 -83 94 -147 l 94 738 "},"Σ":{"x_min":44.28125,"x_max":628,"ha":696,"o":"m 628 0 l 44 0 l 323 498 l 48 998 l 618 998 l 618 902 l 211 902 l 434 497 l 209 97 l 628 97 l 628 0 "},"1":{"x_min":197.34375,"x_max":453,"ha":770,"o":"m 257 998 l 453 998 l 453 0 l 354 0 l 354 900 l 197 900 l 257 998 "},"›":{"x_min":47.46875,"x_max":298.390625,"ha":349,"o":"m 47 0 l 198 369 l 47 738 l 147 738 l 298 369 l 147 0 l 47 0 "},"<":{"x_min":71,"x_max":772,"ha":843,"o":"m 772 235 l 772 136 l 71 454 l 71 542 l 772 862 l 772 762 l 202 497 l 772 235 "},"t":{"x_min":59,"x_max":435,"ha":471,"o":"m 188 1012 l 284 1012 l 284 738 l 435 738 l 435 657 l 284 657 l 284 0 l 188 0 l 188 657 l 59 657 l 59 738 l 188 738 l 188 1012 "},"¬":{"x_min":78.28125,"x_max":765,"ha":842,"o":"m 765 695 l 765 303 l 671 303 l 671 602 l 78 602 l 78 695 l 765 695 "},"ù":{"x_min":94,"x_max":740,"ha":845,"o":"m 94 738 l 190 738 l 190 393 q 203 219 190 267 q 281 112 223 151 q 417 73 338 73 q 552 111 497 73 q 628 212 607 149 q 643 393 643 254 l 643 738 l 740 738 l 740 375 q 704 145 740 223 q 597 24 668 68 q 417 -19 525 -19 q 237 24 309 -19 q 129 146 165 68 q 94 382 94 225 l 94 738 m 381 1083 l 529 875 l 435 875 l 235 1083 l 381 1083 "},"ĉ":{"x_min":71,"x_max":822.109375,"ha":899,"o":"m 822 584 l 746 537 q 480 667 649 667 q 256 580 345 667 q 167 369 167 493 q 208 217 167 288 q 320 106 249 145 q 481 67 392 67 q 746 196 643 67 l 822 147 q 679 23 769 67 q 476 -20 590 -20 q 186 91 301 -20 q 71 362 71 202 q 124 561 71 469 q 273 705 178 653 q 484 757 367 757 q 625 734 557 757 q 741 676 693 712 q 822 584 788 639 m 405 1045 l 499 1045 l 696 871 l 574 871 l 455 974 l 330 871 l 204 871 l 405 1045 "},"ï":{"x_min":-78,"x_max":356,"ha":278,"o":"m 91 738 l 187 738 l 187 0 l 91 0 l 91 738 m 0 1029 q 55 1005 32 1029 q 79 950 79 982 q 55 895 79 918 q 0 872 32 872 q -54 895 -31 872 q -78 950 -78 918 q -54 1005 -78 982 q 0 1029 -31 1029 m 277 1029 q 332 1005 309 1029 q 356 950 356 982 q 332 895 356 918 q 277 872 309 872 q 222 895 245 872 q 199 950 199 918 q 222 1005 199 982 q 277 1029 245 1029 "},"ī":{"x_min":-95,"x_max":373,"ha":278,"o":"m 91 738 l 187 738 l 187 0 l 91 0 l 91 738 m -95 1003 l 373 1003 l 373 922 l -95 922 l -95 1003 "},"Ò":{"x_min":78,"x_max":1128,"ha":1207,"o":"m 596 1023 q 975 871 822 1023 q 1128 499 1128 720 q 975 127 1128 280 q 604 -25 823 -25 q 230 126 383 -25 q 78 494 78 278 q 147 761 78 638 q 336 953 216 883 q 596 1023 456 1023 m 601 925 q 392 867 491 925 q 237 712 293 809 q 182 494 182 614 q 304 194 182 316 q 601 72 427 72 q 815 128 717 72 q 969 282 914 184 q 1025 499 1025 379 q 969 713 1025 617 q 814 867 914 809 q 601 925 713 925 m 562 1285 l 709 1077 l 616 1077 l 416 1285 l 562 1285 "},"ξ":{"x_min":80,"x_max":632,"ha":646,"o":"m 263 -275 l 287 -190 q 368 -201 330 -201 q 535 -93 535 -201 q 505 -35 535 -59 q 345 13 475 -11 q 80 322 80 63 q 136 495 80 420 q 291 600 193 569 q 136 811 136 677 q 218 980 136 919 q 430 1042 300 1042 q 619 1016 535 1042 l 597 925 q 417 953 519 953 q 283 909 333 953 q 233 797 233 866 q 309 676 233 721 q 488 631 386 631 l 570 631 l 570 548 l 432 548 q 255 494 333 548 q 177 328 177 440 q 223 178 177 233 q 387 97 270 123 q 579 31 527 66 q 632 -89 632 -3 q 560 -236 632 -183 q 375 -289 489 -289 q 263 -275 316 -289 "},"Ď":{"x_min":121,"x_max":961,"ha":1033,"o":"m 121 0 l 121 998 l 327 998 q 652 962 551 998 q 879 785 797 911 q 961 486 961 660 q 896 222 961 336 q 728 54 831 108 q 438 0 624 0 l 121 0 m 217 94 l 332 94 q 618 119 538 94 q 795 251 731 156 q 860 484 860 347 q 790 732 860 629 q 595 872 720 834 q 287 901 502 901 l 217 901 l 217 94 m 495 1070 l 401 1070 l 204 1244 l 326 1244 l 446 1141 l 570 1244 l 696 1244 l 495 1070 "},"&":{"x_min":121,"x_max":1014.4375,"ha":1050,"o":"m 875 369 l 943 297 q 825 197 878 239 q 925 95 860 161 q 1014 0 977 43 l 875 0 l 747 134 q 540 5 618 36 q 375 -25 462 -25 q 190 41 260 -25 q 121 206 121 107 q 168 355 121 280 q 360 545 215 430 q 254 691 277 644 q 231 781 231 738 q 288 904 231 856 q 454 962 355 962 q 568 936 516 962 q 646 869 619 911 q 674 779 674 826 q 638 672 674 729 q 499 527 603 615 l 650 369 l 754 265 q 875 369 829 327 m 438 602 q 547 712 510 658 q 573 781 573 751 q 539 840 573 815 q 450 866 505 866 q 364 840 397 866 q 331 779 331 814 q 344 728 331 752 q 438 602 377 670 m 425 470 q 260 318 299 374 q 221 213 221 261 q 269 112 221 156 q 386 69 317 69 q 490 90 439 69 q 679 203 570 125 l 516 369 q 425 470 476 412 "},"˝":{"x_min":174.296875,"x_max":682.234375,"ha":766,"o":"m 322 1084 l 467 1084 l 267 875 l 174 875 l 322 1084 m 536 1084 l 682 1084 l 482 875 l 388 875 l 536 1084 "},"I":{"x_min":107,"x_max":207,"ha":314,"o":"m 107 998 l 207 998 l 207 0 l 107 0 l 107 998 "},"G":{"x_min":79,"x_max":1142,"ha":1211,"o":"m 1083 830 l 1006 757 q 823 881 923 839 q 629 924 724 924 q 406 866 512 924 q 241 709 299 808 q 183 501 183 611 q 243 287 183 388 q 410 128 303 186 q 643 70 516 70 q 904 156 798 70 q 1030 382 1011 243 l 713 382 l 713 478 l 1142 478 q 1005 110 1142 246 q 641 -25 869 -25 q 203 163 364 -25 q 79 499 79 308 q 150 763 79 641 q 345 954 221 885 q 626 1023 469 1023 q 865 977 753 1023 q 1083 830 977 931 "},"ΰ":{"x_min":92,"x_max":757,"ha":828,"o":"m 92 738 l 188 738 l 188 393 q 200 223 188 282 q 270 118 212 163 q 415 73 327 73 q 597 153 535 73 q 660 368 660 233 q 487 670 660 554 l 539 757 q 757 351 757 630 q 664 84 757 188 q 415 -19 572 -19 q 181 65 270 -19 q 92 382 92 150 l 92 738 m 463 1084 l 463 855 l 374 855 l 354 1084 l 463 1084 m 581 876 q 538 893 556 876 q 521 936 521 911 q 538 979 521 962 q 581 997 556 997 q 623 979 606 997 q 641 936 641 961 q 623 893 641 911 q 581 876 606 876 m 247 876 q 204 893 222 876 q 187 936 187 911 q 204 979 187 961 q 247 997 222 997 q 290 979 272 997 q 308 936 308 962 q 290 893 308 911 q 247 876 272 876 "},"`":{"x_min":75.28125,"x_max":368.921875,"ha":525,"o":"m 221 1084 l 368 875 l 275 875 l 75 1084 l 221 1084 "},"·":{"x_min":330,"x_max":487,"ha":463,"o":"m 408 590 q 463 566 440 590 q 487 511 487 543 q 463 456 487 479 q 408 433 440 433 q 353 456 376 433 q 330 511 330 479 q 353 566 330 543 q 408 590 376 590 "},"ŏ":{"x_min":71,"x_max":839.296875,"ha":910,"o":"m 455 757 q 737 633 625 757 q 839 366 839 520 q 731 96 839 212 q 455 -19 624 -19 q 178 96 285 -19 q 71 366 71 212 q 172 632 71 520 q 455 757 284 757 m 455 664 q 252 576 337 664 q 168 364 168 489 q 206 215 168 284 q 311 108 245 146 q 455 71 376 71 q 599 108 534 71 q 704 215 665 146 q 743 364 743 284 q 657 576 743 489 q 455 664 572 664 m 214 1034 l 304 1034 q 365 981 327 999 q 458 964 404 964 q 545 979 512 964 q 608 1034 578 995 l 695 1034 q 619 932 680 973 q 457 891 557 891 q 294 931 357 891 q 214 1034 231 971 "},"¿":{"x_min":124,"x_max":705,"ha":820,"o":"m 409 753 q 468 728 444 753 q 493 669 493 704 q 468 609 493 633 q 409 585 444 585 q 350 609 374 585 q 326 669 326 633 q 350 728 326 703 q 409 753 374 753 m 606 7 l 705 7 q 624 -209 705 -129 q 409 -289 544 -289 q 200 -221 276 -289 q 124 -55 124 -154 q 144 32 124 -7 q 207 105 165 72 q 354 178 249 137 q 515 258 486 231 q 543 321 543 284 q 504 391 543 360 q 405 423 466 423 q 302 388 338 423 q 258 279 266 354 l 161 279 q 226 455 161 392 q 403 519 292 519 q 579 461 514 519 q 645 320 645 404 q 627 243 645 279 q 576 182 609 207 q 452 120 543 158 q 265 31 306 61 q 224 -53 224 1 q 273 -153 224 -112 q 407 -194 323 -194 q 566 -127 510 -194 q 606 7 606 -80 "},"ý":{"x_min":26.453125,"x_max":727.671875,"ha":745,"o":"m 26 738 l 126 738 l 380 169 l 626 738 l 727 738 l 287 -270 l 187 -270 l 329 55 l 26 738 m 418 1084 l 564 1084 l 364 875 l 270 875 l 418 1084 "},"ſ":{"x_min":92,"x_max":351,"ha":279,"o":"m 351 1022 l 351 929 q 261 952 300 952 q 211 938 231 952 q 189 904 191 924 q 187 837 187 883 l 187 0 l 92 0 l 92 812 q 101 951 92 915 q 146 1014 110 987 q 240 1042 182 1042 q 351 1022 289 1042 "},"º":{"x_min":37,"x_max":474,"ha":512,"o":"m 255 1023 q 409 953 345 1023 q 474 779 474 883 q 409 607 474 676 q 255 539 345 539 q 101 607 165 539 q 37 779 37 676 q 101 953 37 884 q 255 1023 165 1023 m 255 948 q 158 899 200 948 q 116 778 116 850 q 157 658 116 705 q 255 612 198 612 q 353 658 312 612 q 395 778 395 705 q 352 899 395 850 q 255 948 310 948 "},"∞":{"x_min":103,"x_max":887,"ha":990,"o":"m 465 550 q 592 678 545 649 q 691 708 638 708 q 826 655 766 708 q 887 490 887 602 q 830 319 887 376 q 691 263 773 263 q 585 296 632 263 q 465 420 538 329 q 269 305 373 305 q 151 357 200 305 q 103 486 103 410 q 151 614 103 561 q 269 667 200 667 q 465 550 373 667 m 512 486 q 615 364 568 399 q 690 338 649 338 q 777 376 742 338 q 812 483 812 414 q 776 592 812 554 q 687 631 741 631 q 617 606 651 631 q 512 486 583 581 m 418 485 q 333 571 366 551 q 269 592 300 592 q 203 563 229 592 q 178 487 178 535 q 204 411 178 440 q 270 382 231 382 q 418 485 339 382 "},"ź":{"x_min":5.671875,"x_max":586.5625,"ha":589,"o":"m 45 738 l 586 738 l 169 84 l 573 84 l 573 0 l 5 0 l 423 655 l 45 655 l 45 738 m 360 1083 l 505 1083 l 305 875 l 212 875 l 360 1083 "},"ű":{"x_min":94,"x_max":767.125,"ha":845,"o":"m 94 738 l 190 738 l 190 393 q 203 219 190 267 q 281 112 223 151 q 417 73 338 73 q 552 111 497 73 q 628 212 607 149 q 643 393 643 254 l 643 738 l 740 738 l 740 375 q 704 145 740 223 q 597 24 668 68 q 417 -19 525 -19 q 237 24 309 -19 q 129 146 165 68 q 94 382 94 225 l 94 738 m 407 1084 l 552 1084 l 352 875 l 259 875 l 407 1084 m 621 1084 l 767 1084 l 567 875 l 473 875 l 621 1084 "},"φ":{"x_min":71,"x_max":993,"ha":1064,"o":"m 580 -11 l 580 -270 l 484 -270 l 484 -11 q 182 91 294 -11 q 71 364 71 193 q 147 595 71 497 q 357 738 224 693 l 388 648 q 168 364 168 569 q 484 76 168 102 l 484 756 q 532 756 510 756 q 869 651 745 756 q 993 363 993 546 q 881 90 993 193 q 580 -11 770 -11 m 580 662 l 580 76 q 895 365 895 105 q 810 582 895 502 q 580 662 725 662 "},"Ǽ":{"x_min":0.625,"x_max":1262,"ha":1378,"o":"m 0 0 l 644 998 l 1262 998 l 1262 896 l 792 896 l 792 589 l 1262 589 l 1262 491 l 792 491 l 792 98 l 1262 98 l 1262 0 l 691 0 l 691 327 l 328 327 l 116 0 l 0 0 m 391 421 l 691 421 l 691 883 l 391 421 m 880 1285 l 1026 1285 l 826 1076 l 733 1076 l 880 1285 "},"ń":{"x_min":106,"x_max":749,"ha":847,"o":"m 106 738 l 201 738 l 201 605 q 327 719 257 681 q 477 757 396 757 q 624 714 560 757 q 718 601 688 672 q 749 379 749 530 l 749 0 l 655 0 l 655 351 q 644 521 655 479 q 580 632 627 595 q 458 669 533 669 q 304 612 372 669 q 214 471 236 555 q 201 270 201 416 l 201 0 l 106 0 l 106 738 m 452 1083 l 598 1083 l 398 875 l 304 875 l 452 1083 "},";":{"x_min":87,"x_max":294,"ha":385,"o":"m 210 757 q 269 732 245 757 q 294 673 294 708 q 269 613 294 637 q 210 589 245 589 q 151 613 175 589 q 127 673 127 637 q 151 732 127 707 q 210 757 175 757 m 200 183 l 291 139 l 154 -116 l 87 -87 l 200 183 "},"Ġ":{"x_min":79,"x_max":1142,"ha":1211,"o":"m 1083 830 l 1006 757 q 823 881 923 839 q 629 924 724 924 q 406 866 512 924 q 241 709 299 808 q 183 501 183 611 q 243 287 183 388 q 410 128 303 186 q 643 70 516 70 q 904 156 798 70 q 1030 382 1011 243 l 713 382 l 713 478 l 1142 478 q 1005 110 1142 246 q 641 -25 869 -25 q 203 163 364 -25 q 79 499 79 308 q 150 763 79 641 q 345 954 221 885 q 626 1023 469 1023 q 865 977 753 1023 q 1083 830 977 931 m 618 1232 q 673 1208 650 1232 q 697 1153 697 1185 q 673 1098 697 1121 q 618 1075 650 1075 q 563 1098 586 1075 q 540 1153 540 1121 q 563 1208 540 1185 q 618 1232 586 1232 "},"6":{"x_min":94,"x_max":708,"ha":770,"o":"m 509 1023 l 591 970 l 322 561 q 424 580 376 580 q 625 494 542 580 q 708 282 708 408 q 668 126 708 196 q 554 16 628 57 q 396 -25 480 -25 q 244 14 314 -25 q 133 126 173 54 q 94 280 94 198 q 118 409 94 341 q 207 571 143 476 l 509 1023 m 400 492 q 252 430 313 492 q 191 281 191 369 q 252 133 191 194 q 400 72 313 72 q 548 133 487 72 q 610 281 610 194 q 548 430 610 369 q 400 492 487 492 "},"ϊ":{"x_min":-78,"x_max":356,"ha":278,"o":"m 91 738 l 187 738 l 187 0 l 91 0 l 91 738 m 0 1029 q 55 1005 32 1029 q 79 950 79 982 q 55 895 79 918 q 0 872 32 872 q -54 895 -31 872 q -78 950 -78 918 q -54 1005 -78 982 q 0 1029 -31 1029 m 277 1029 q 332 1005 309 1029 q 356 950 356 982 q 332 895 356 918 q 277 872 309 872 q 222 895 245 872 q 199 950 199 918 q 222 1005 199 982 q 277 1029 245 1029 "},"ά":{"x_min":73,"x_max":841,"ha":949,"o":"m 841 738 l 841 0 l 747 0 l 747 126 q 613 16 688 53 q 451 -20 539 -20 q 183 93 294 -20 q 73 370 73 207 q 184 643 73 530 q 454 757 296 757 q 618 718 545 757 q 747 601 692 679 l 747 738 l 841 738 m 461 665 q 315 625 382 665 q 208 516 248 586 q 169 367 169 445 q 208 217 169 288 q 316 106 248 146 q 461 67 383 67 q 608 106 539 67 q 716 212 678 145 q 754 364 754 280 q 669 578 754 492 q 461 665 585 665 m 525 1083 l 525 854 l 435 854 l 415 1083 l 525 1083 "},"n":{"x_min":106,"x_max":749,"ha":847,"o":"m 106 738 l 201 738 l 201 605 q 327 719 257 681 q 477 757 396 757 q 624 714 560 757 q 718 601 688 672 q 749 379 749 530 l 749 0 l 655 0 l 655 351 q 644 521 655 479 q 580 632 627 595 q 458 669 533 669 q 304 612 372 669 q 214 471 236 555 q 201 270 201 416 l 201 0 l 106 0 l 106 738 "},"ģ":{"x_min":68,"x_max":837,"ha":935,"o":"m 741 738 l 837 738 l 837 149 q 809 -77 837 -5 q 680 -234 772 -179 q 458 -289 588 -289 q 288 -262 363 -289 q 165 -190 212 -235 q 77 -59 117 -145 l 180 -59 q 289 -166 222 -131 q 453 -202 355 -202 q 617 -165 550 -202 q 712 -74 684 -129 q 741 101 741 -19 l 741 139 q 610 35 687 71 q 446 -1 533 -1 q 255 49 344 -1 q 116 185 165 100 q 68 373 68 271 q 118 565 68 476 q 259 705 169 653 q 449 757 349 757 q 603 722 531 757 q 741 609 674 688 l 741 738 m 461 665 q 311 625 380 665 q 203 518 242 586 q 164 369 164 449 q 245 168 164 247 q 456 89 326 89 q 666 167 586 89 q 746 374 746 246 q 709 523 746 458 q 605 627 672 589 q 461 665 538 665 m 460 1232 l 513 1203 q 479 1122 487 1151 q 465 1047 470 1093 l 526 1047 l 526 860 l 403 860 l 403 976 q 414 1114 403 1064 q 460 1232 426 1164 "},"¤":{"x_min":27.90625,"x_max":742.75,"ha":770,"o":"m 28 130 l 107 207 q 49 311 65 263 q 34 416 34 360 q 53 532 34 477 q 109 627 67 575 l 27 706 l 88 768 l 170 687 q 276 746 221 728 q 388 764 331 764 q 493 747 442 764 q 599 692 544 731 l 678 768 l 738 706 l 660 630 q 720 527 703 577 q 738 417 738 477 q 721 309 738 359 q 664 207 704 260 l 742 130 l 682 69 l 603 147 q 497 87 550 105 q 385 69 445 69 q 275 86 327 69 q 168 147 223 104 l 88 69 l 28 130 m 131 415 q 205 236 131 310 q 385 163 280 163 q 566 237 491 163 q 641 417 641 312 q 566 596 641 522 q 386 671 492 671 q 205 596 280 671 q 131 415 131 521 "},"∂":{"x_min":38,"x_max":660,"ha":686,"o":"m 289 771 l 197 812 q 308 962 242 913 q 441 1011 373 1011 q 551 973 501 1011 q 630 849 601 935 q 660 627 660 764 q 600 278 660 427 q 443 56 541 130 q 246 -17 345 -17 q 95 45 153 -17 q 38 219 38 108 q 149 490 38 380 q 581 624 284 624 q 563 812 581 754 q 514 897 546 871 q 443 924 482 924 q 289 771 346 924 m 579 534 q 335 497 411 534 q 210 377 260 460 q 160 206 160 294 q 194 112 160 149 q 275 76 229 76 q 401 124 334 76 q 516 274 468 173 q 579 534 563 375 "},"κ":{"x_min":105,"x_max":705.5625,"ha":697,"o":"m 705 0 l 571 0 l 201 331 l 201 0 l 105 0 l 105 739 l 201 739 l 201 440 l 542 738 l 681 738 l 276 385 l 705 0 "},"Ĝ":{"x_min":79,"x_max":1142,"ha":1211,"o":"m 1083 830 l 1006 757 q 823 881 923 839 q 629 924 724 924 q 406 866 512 924 q 241 709 299 808 q 183 501 183 611 q 243 287 183 388 q 410 128 303 186 q 643 70 516 70 q 904 156 798 70 q 1030 382 1011 243 l 713 382 l 713 478 l 1142 478 q 1005 110 1142 246 q 641 -25 869 -25 q 203 163 364 -25 q 79 499 79 308 q 150 763 79 641 q 345 954 221 885 q 626 1023 469 1023 q 865 977 753 1023 q 1083 830 977 931 m 566 1248 l 660 1248 l 857 1074 l 735 1074 l 615 1177 l 490 1074 l 364 1074 l 566 1248 "},"p":{"x_min":107,"x_max":876,"ha":948,"o":"m 107 738 l 200 738 l 200 601 q 330 718 257 679 q 494 757 403 757 q 763 643 651 757 q 876 370 876 530 q 764 93 876 207 q 496 -20 653 -20 q 334 16 408 -20 q 200 126 260 53 l 200 -270 l 107 -270 l 107 738 m 486 665 q 278 578 363 665 q 194 364 194 492 q 231 212 194 280 q 339 106 269 145 q 488 67 409 67 q 632 106 564 67 q 739 217 699 146 q 780 367 780 288 q 740 516 780 445 q 633 625 700 586 q 486 665 566 665 "},"‡":{"x_min":108.03125,"x_max":660.3125,"ha":768,"o":"m 342 1022 l 425 1022 l 425 790 l 660 790 l 660 707 l 425 707 l 425 404 l 425 105 l 660 105 l 660 21 l 425 21 l 425 -213 l 342 -213 l 342 21 l 108 21 l 108 105 l 342 105 l 342 404 l 342 707 l 108 707 l 108 790 l 342 790 l 342 1022 "},"ň":{"x_min":106,"x_max":749,"ha":847,"o":"m 106 738 l 201 738 l 201 605 q 327 719 257 681 q 477 757 396 757 q 624 714 560 757 q 718 601 688 672 q 749 379 749 530 l 749 -1 l 655 -1 l 655 351 q 644 521 655 479 q 580 632 627 595 q 458 669 533 669 q 304 612 372 669 q 214 471 236 555 q 201 270 201 416 l 201 0 l 106 0 l 106 738 m 512 871 l 417 871 l 221 1045 l 343 1045 l 463 942 l 587 1045 l 713 1045 l 512 871 "},"√":{"x_min":54.9375,"x_max":760.234375,"ha":762,"o":"m 710 1268 l 760 1268 l 548 -52 l 212 639 l 77 578 l 54 621 l 259 723 l 533 165 l 710 1268 "},"ę":{"x_min":71,"x_max":831.203125,"ha":903,"o":"m 727 244 l 807 202 q 716 77 768 125 q 600 5 665 30 q 454 -19 536 -19 q 172 99 274 -19 q 71 366 71 217 q 157 617 71 507 q 449 757 266 757 q 751 613 638 757 q 831 361 831 512 l 170 361 q 249 150 170 232 q 446 67 329 67 q 555 87 502 67 q 646 139 609 107 q 727 244 684 172 m 727 443 q 672 564 708 519 q 576 638 635 610 q 450 666 516 666 q 264 595 342 666 q 178 443 207 544 l 727 443 m 468 0 l 541 0 q 460 -131 460 -70 q 485 -184 460 -162 q 558 -206 510 -206 q 605 -202 578 -206 l 599 -260 q 541 -267 571 -267 q 426 -230 466 -267 q 387 -144 387 -194 q 468 0 387 -56 "},"ο":{"x_min":71,"x_max":839.296875,"ha":910,"o":"m 455 757 q 737 633 625 757 q 839 366 839 520 q 731 96 839 212 q 455 -19 624 -19 q 178 96 285 -19 q 71 366 71 212 q 172 632 71 520 q 455 757 284 757 m 455 664 q 252 576 337 664 q 168 364 168 489 q 206 215 168 284 q 311 108 245 146 q 455 71 376 71 q 599 108 534 71 q 704 215 665 146 q 743 364 743 284 q 657 576 743 489 q 455 664 572 664 "},"S":{"x_min":17.9375,"x_max":602,"ha":692,"o":"m 17 185 l 102 236 q 309 72 192 72 q 403 95 359 72 q 470 158 447 118 q 494 241 494 197 q 460 339 494 291 q 289 500 413 406 q 133 636 164 594 q 81 789 81 706 q 112 907 81 854 q 200 992 143 961 q 323 1023 256 1023 q 455 988 393 1023 q 585 859 516 953 l 503 797 q 407 896 447 872 q 321 920 367 920 q 222 883 260 920 q 184 793 184 846 q 197 730 184 760 q 247 663 211 699 q 375 563 266 644 q 553 393 505 468 q 602 243 602 318 q 519 55 602 135 q 319 -25 437 -25 q 154 23 228 -25 q 17 185 80 72 "},"/":{"x_min":48.828125,"x_max":566.953125,"ha":607,"o":"m 566 1023 l 152 -136 l 48 -136 l 462 1023 l 566 1023 "},"į":{"x_min":33,"x_max":251.234375,"ha":278,"o":"m 139 1042 q 194 1018 171 1042 q 218 963 218 995 q 194 908 218 931 q 139 885 171 885 q 84 908 107 885 q 61 963 61 931 q 84 1018 61 995 q 139 1042 107 1042 m 92 737 l 188 737 l 188 0 l 92 0 l 92 737 m 114 0 l 188 0 q 106 -131 106 -70 q 131 -184 106 -162 q 204 -206 156 -206 q 251 -202 224 -206 l 245 -260 q 187 -267 216 -267 q 72 -231 112 -267 q 33 -144 33 -195 q 114 0 33 -56 "},"Ŧ":{"x_min":22,"x_max":569,"ha":591,"o":"m 347 527 l 537 527 l 537 433 l 347 433 l 347 0 l 245 0 l 245 433 l 55 433 l 55 527 l 245 527 l 245 900 l 22 900 l 22 997 l 569 997 l 569 900 l 347 900 l 347 527 "},"Τ":{"x_min":22,"x_max":569,"ha":591,"o":"m 22 901 l 22 998 l 569 998 l 569 901 l 347 901 l 347 0 l 245 0 l 245 901 l 22 901 "},"y":{"x_min":26.453125,"x_max":727.671875,"ha":745,"o":"m 26 738 l 126 738 l 380 169 l 626 738 l 727 738 l 287 -270 l 187 -270 l 329 55 l 26 738 "},"≈":{"x_min":37,"x_max":726,"ha":763,"o":"m 726 694 l 726 584 q 617 530 650 541 q 555 519 584 519 q 375 571 490 519 q 261 620 285 612 q 214 628 236 628 q 148 615 184 628 q 37 556 112 602 l 37 665 q 144 718 111 707 q 209 730 178 730 q 391 675 275 730 q 500 628 471 637 q 553 619 530 619 q 611 630 582 619 q 726 694 640 641 m 726 442 l 726 332 q 617 278 650 289 q 555 267 584 267 q 375 319 490 267 q 261 368 285 360 q 214 376 236 376 q 148 362 184 376 q 37 304 112 349 l 37 413 q 144 466 111 455 q 209 478 178 478 q 391 423 275 478 q 500 376 471 385 q 553 367 530 367 q 611 378 582 367 q 726 442 640 389 "},"Π":{"x_min":120,"x_max":828,"ha":949,"o":"m 828 0 l 728 0 l 728 903 l 220 903 l 220 0 l 120 0 l 120 998 l 828 998 l 828 0 "},"ΐ":{"x_min":-87,"x_max":367,"ha":279,"o":"m 92 738 l 188 738 l 188 0 l 92 0 l 92 738 m 189 1084 l 189 855 l 100 855 l 80 1084 l 189 1084 m 307 876 q 264 893 282 876 q 247 936 247 911 q 264 979 247 962 q 307 997 282 997 q 349 979 332 997 q 367 936 367 961 q 349 893 367 911 q 307 876 332 876 m -26 876 q -69 893 -51 876 q -87 936 -87 911 q -69 979 -87 961 q -26 997 -51 997 q 16 979 -1 997 q 34 936 34 962 q 16 893 34 911 q -26 876 -1 876 "},"‗":{"x_min":-8,"x_max":703,"ha":695,"o":"m -8 -99 l 703 -99 l 703 -169 l -8 -169 l -8 -99 m -8 -219 l 703 -219 l 703 -289 l -8 -289 l -8 -219 "},"ǿ":{"x_min":69,"x_max":837.296875,"ha":906,"o":"m 747 619 q 837 366 837 510 q 729 96 837 212 q 453 -19 622 -19 q 250 36 342 -19 l 172 -56 l 111 -6 l 189 84 q 69 366 69 200 q 176 639 69 521 q 452 757 283 757 q 690 675 589 757 l 769 768 l 831 718 l 747 619 m 248 155 l 628 601 q 453 664 548 664 q 311 624 378 664 q 205 514 244 584 q 166 364 166 444 q 188 250 166 306 q 248 155 210 194 m 682 543 l 311 107 q 452 71 380 71 q 597 108 531 71 q 702 215 663 146 q 741 364 741 284 q 682 543 741 461 m 494 1083 l 640 1083 l 440 875 l 347 875 l 494 1083 "},"g":{"x_min":68,"x_max":837,"ha":935,"o":"m 741 738 l 837 738 l 837 149 q 809 -77 837 -5 q 680 -234 772 -179 q 458 -289 588 -289 q 288 -262 363 -289 q 165 -190 212 -235 q 77 -59 117 -145 l 180 -59 q 289 -166 222 -131 q 453 -202 355 -202 q 617 -165 550 -202 q 712 -74 684 -129 q 741 101 741 -19 l 741 139 q 610 35 687 71 q 446 -1 533 -1 q 255 49 344 -1 q 116 185 165 100 q 68 373 68 271 q 118 565 68 476 q 259 705 169 653 q 449 757 349 757 q 603 722 531 757 q 741 609 674 688 l 741 738 m 461 665 q 311 625 380 665 q 203 518 242 586 q 164 369 164 449 q 245 168 164 247 q 456 89 326 89 q 666 167 586 89 q 746 374 746 246 q 709 523 746 458 q 605 627 672 589 q 461 665 538 665 "},"ĸ":{"x_min":105,"x_max":705.5625,"ha":697,"o":"m 105 738 l 201 738 l 201 440 l 542 738 l 681 738 l 276 385 l 705 0 l 571 0 l 201 331 l 201 0 l 105 0 l 105 738 "},"²":{"x_min":4.0625,"x_max":435,"ha":461,"o":"m 105 837 l 33 837 q 90 969 33 917 q 237 1022 147 1022 q 375 975 322 1022 q 428 865 428 929 q 405 786 428 824 q 308 680 383 748 l 179 564 l 435 564 l 435 497 l 4 497 l 246 717 q 336 810 318 782 q 354 863 354 837 q 320 928 354 900 q 235 956 286 956 q 143 924 177 956 q 105 837 109 893 "},"–":{"x_min":-8,"x_max":703,"ha":695,"o":"m -8 433 l 703 433 l 703 345 l -8 345 l -8 433 "},"ë":{"x_min":71,"x_max":831.203125,"ha":903,"o":"m 727 244 l 807 202 q 716 77 768 125 q 600 5 665 30 q 454 -19 536 -19 q 172 99 274 -19 q 71 366 71 217 q 157 617 71 507 q 449 757 266 757 q 751 613 638 757 q 831 361 831 512 l 170 361 q 249 150 170 232 q 445 68 329 68 q 555 87 502 68 q 646 139 609 107 q 727 244 683 172 m 727 443 q 672 564 708 519 q 576 638 635 610 q 450 666 516 666 q 264 595 342 666 q 178 443 207 544 l 727 443 m 313 1029 q 368 1005 345 1029 q 392 950 392 982 q 368 895 392 918 q 313 872 345 872 q 258 895 281 872 q 235 950 235 918 q 258 1005 235 982 q 313 1029 281 1029 m 590 1029 q 645 1005 622 1029 q 669 950 669 982 q 645 895 669 918 q 590 872 622 872 q 535 895 558 872 q 512 950 512 918 q 535 1005 512 982 q 590 1029 558 1029 "},"ƒ":{"x_min":21.703125,"x_max":638.828125,"ha":770,"o":"m 421 598 l 577 598 l 566 515 l 408 515 l 335 33 q 285 -163 316 -98 q 210 -258 254 -227 q 118 -289 166 -289 q 21 -255 71 -289 l 33 -171 q 109 -202 71 -202 q 192 -152 157 -202 q 248 48 227 -103 l 317 515 l 221 515 l 233 598 l 328 598 l 362 814 q 406 976 381 939 q 518 1042 450 1042 q 638 997 575 1042 l 626 907 q 532 957 574 957 q 481 926 499 957 q 449 797 463 895 l 421 598 "},"J":{"x_min":58.734375,"x_max":548,"ha":669,"o":"m 448 998 l 548 998 l 548 324 q 523 108 548 169 q 443 11 499 47 q 307 -25 387 -25 q 188 -1 247 -25 q 58 80 129 21 l 111 160 q 241 82 189 105 q 307 68 275 68 q 385 93 350 68 q 434 162 420 119 q 448 327 448 205 l 448 998 "},"Ã":{"x_min":33.234375,"x_max":994.203125,"ha":1027,"o":"m 528 997 l 994 0 l 887 0 l 730 328 l 300 328 l 144 0 l 33 0 l 504 997 l 528 997 m 516 785 l 345 424 l 686 424 l 516 785 m 714 1213 l 762 1147 q 679 1099 713 1111 q 609 1087 646 1087 q 508 1112 560 1087 q 452 1138 464 1134 q 417 1143 436 1143 q 371 1134 393 1143 q 309 1095 350 1125 l 265 1165 q 417 1231 326 1231 q 521 1203 461 1231 q 612 1177 579 1177 q 714 1213 649 1177 "},"ŷ":{"x_min":26.453125,"x_max":727.671875,"ha":745,"o":"m 26 738 l 126 738 l 380 169 l 626 738 l 727 738 l 287 -270 l 187 -270 l 329 55 l 26 738 m 327 1046 l 421 1046 l 618 872 l 496 872 l 377 974 l 252 872 l 126 872 l 327 1046 "},"ŕ":{"x_min":70,"x_max":443.015625,"ha":418,"o":"m 70 738 l 167 738 l 167 630 q 258 725 210 694 q 358 757 306 757 q 443 731 398 757 l 393 652 q 343 665 363 665 q 251 625 295 665 q 184 504 207 586 q 167 249 167 441 l 167 0 l 70 0 l 70 738 m 286 1083 l 432 1083 l 232 875 l 138 875 l 286 1083 "},"‾":{"x_min":-28,"x_max":799,"ha":771,"o":"m -28 1268 l 799 1268 l 799 1218 l -28 1218 l -28 1268 m 259 723 l 259 723 "},"⌠":{"x_min":368,"x_max":660,"ha":834,"o":"m 466 -350 l 368 -350 l 368 878 q 426 1098 368 1019 q 566 1178 484 1178 q 638 1154 616 1178 q 660 1103 660 1131 q 641 1058 660 1076 q 600 1041 623 1041 q 562 1050 576 1041 q 533 1082 547 1059 q 501 1108 517 1108 q 473 1091 481 1108 q 466 987 466 1074 l 466 -350 "},"©":{"x_min":-13,"x_max":1052,"ha":1038,"o":"m 1052 513 q 980 247 1052 370 q 785 53 909 125 q 519 -18 662 -18 q 253 53 377 -18 q 58 248 129 125 q -13 513 -13 371 q 58 779 -13 656 q 253 973 129 902 q 519 1045 376 1045 q 785 973 662 1045 q 980 779 909 902 q 1052 513 1052 656 m 978 514 q 916 743 978 637 q 748 911 855 849 q 519 973 642 973 q 290 911 396 973 q 122 743 183 849 q 61 514 61 636 q 122 284 61 390 q 290 116 183 177 q 519 55 397 55 q 748 116 642 55 q 916 284 855 177 q 978 514 978 390 m 780 627 l 687 627 q 633 717 673 687 q 528 748 594 748 q 390 687 442 748 q 338 509 338 626 q 388 335 338 395 q 519 276 438 276 q 631 317 586 276 q 687 443 675 359 l 780 443 q 695 265 767 331 q 522 200 624 200 q 317 282 394 200 q 241 511 241 365 q 320 750 241 664 q 523 836 400 836 q 704 779 636 836 q 780 627 771 722 "},"ώ":{"x_min":71,"x_max":1121,"ha":1192,"o":"m 595 135 q 518 23 576 65 q 385 -19 461 -19 q 155 76 239 -19 q 71 339 71 171 q 185 634 71 516 q 478 752 299 752 l 478 660 q 253 568 338 660 q 168 336 168 476 q 223 138 168 208 q 378 68 279 68 q 502 135 456 68 q 547 331 547 203 l 547 422 l 644 422 l 644 331 q 689 135 644 203 q 813 68 734 68 q 966 136 908 68 q 1024 335 1024 204 q 938 569 1024 478 q 713 660 853 660 l 713 752 q 1006 633 891 752 q 1121 338 1121 515 q 1036 76 1121 171 q 806 -19 952 -19 q 672 23 730 -19 q 595 135 615 65 m 645 1084 l 645 855 l 555 855 l 536 1084 l 645 1084 "},"˘":{"x_min":74.59375,"x_max":555.421875,"ha":629,"o":"m 74 1034 l 164 1034 q 225 981 187 999 q 318 964 264 964 q 405 979 372 964 q 468 1034 438 994 l 555 1034 q 479 932 540 973 q 317 891 417 891 q 154 931 217 891 q 74 1034 91 971 "},"≥":{"x_min":31,"x_max":732,"ha":763,"o":"m 31 326 l 600 589 l 31 853 l 31 953 l 732 633 l 732 545 l 31 227 l 31 326 m 732 157 l 732 64 l 31 64 l 31 157 l 732 157 "},"Ă":{"x_min":33.234375,"x_max":994.203125,"ha":1027,"o":"m 528 997 l 994 0 l 887 0 l 730 328 l 300 328 l 144 0 l 33 0 l 504 997 l 528 997 m 516 785 l 345 424 l 686 424 l 516 785 m 278 1235 l 367 1235 q 429 1182 390 1200 q 521 1165 467 1165 q 608 1180 575 1165 q 672 1235 642 1196 l 758 1235 q 682 1133 743 1174 q 520 1092 621 1092 q 358 1132 421 1092 q 278 1235 295 1172 "},"D":{"x_min":121,"x_max":961,"ha":1033,"o":"m 121 0 l 121 998 l 327 998 q 652 962 551 998 q 879 785 797 911 q 961 486 961 660 q 896 222 961 336 q 728 54 831 108 q 438 0 624 0 l 121 0 m 217 94 l 332 94 q 618 119 538 94 q 795 251 731 156 q 860 484 860 347 q 790 732 860 629 q 595 872 720 834 q 287 901 502 901 l 217 901 l 217 94 "},"ł":{"x_min":36.21875,"x_max":391.625,"ha":417,"o":"m 256 658 l 391 746 l 391 651 l 256 563 l 256 0 l 161 0 l 161 502 l 36 421 l 36 516 l 161 597 l 161 1023 l 256 1023 l 256 658 "},"ÿ":{"x_min":26.375,"x_max":727.5625,"ha":745,"o":"m 26 738 l 126 738 l 380 169 l 626 738 l 727 738 l 287 -270 l 187 -270 l 329 55 l 26 738 m 240 1029 q 295 1005 272 1029 q 319 950 319 982 q 295 895 319 918 q 240 872 272 872 q 185 895 208 872 q 162 950 162 918 q 185 1005 162 982 q 240 1029 208 1029 m 517 1029 q 572 1005 549 1029 q 596 950 596 982 q 572 895 596 918 q 517 872 549 872 q 462 895 485 872 q 439 950 439 918 q 462 1005 439 982 q 517 1029 485 1029 "},"ĺ":{"x_min":54.03125,"x_max":347.71875,"ha":279,"o":"m 92 1023 l 187 1023 l 187 0 l 92 0 l 92 1023 m 201 1285 l 347 1285 l 147 1076 l 54 1076 l 201 1285 "},"Ł":{"x_min":60.015625,"x_max":680.84375,"ha":718,"o":"m 297 581 l 477 730 l 477 612 l 297 462 l 297 96 l 680 96 l 680 0 l 197 0 l 197 378 l 60 264 l 60 383 l 197 497 l 197 997 l 297 997 l 297 581 "},"$":{"x_min":48.9375,"x_max":726,"ha":770,"o":"m 360 1067 l 449 1067 l 449 993 q 562 949 515 980 q 653 857 609 918 l 580 798 q 449 896 527 879 l 449 557 q 670 406 626 464 q 726 241 726 331 q 684 104 726 166 q 573 8 643 42 q 449 -24 528 -14 l 449 -237 l 360 -237 l 360 -21 q 226 0 276 -21 q 128 59 176 19 q 48 153 80 100 l 121 208 q 360 69 215 83 l 360 488 q 225 559 253 541 q 139 647 167 599 q 112 758 112 695 q 142 871 112 819 q 225 956 173 924 q 360 997 278 989 l 360 1067 m 360 901 q 278 882 309 901 q 228 831 246 863 q 211 761 211 800 q 239 678 211 712 q 360 594 277 632 l 360 901 m 449 71 q 580 131 531 83 q 629 239 629 179 q 592 347 629 297 q 449 452 554 396 l 449 71 "},"w":{"x_min":6.109375,"x_max":1148.140625,"ha":1154,"o":"m 6 738 l 103 738 l 329 202 l 566 738 l 583 738 l 819 202 l 1049 738 l 1148 738 l 828 0 l 809 0 l 575 528 l 338 0 l 320 0 l 6 738 "},"∫":{"x_min":0,"x_max":380,"ha":381,"o":"m 145 643 q 145 981 145 785 q 176 1179 145 1106 q 226 1242 193 1220 q 291 1264 259 1264 q 353 1241 326 1264 q 380 1191 380 1219 q 362 1140 380 1160 q 317 1121 344 1121 q 266 1145 293 1121 q 239 1159 250 1159 q 219 1149 226 1159 q 211 1115 211 1139 q 218 1017 211 1087 q 235 565 235 738 q 235 181 235 520 q 182 -96 235 -25 q 83 -149 143 -149 q 23 -125 46 -149 q 0 -67 0 -102 q 17 -18 0 -37 q 60 0 34 0 q 108 -22 88 0 q 140 -43 127 -43 q 159 -33 152 -43 q 167 -2 167 -23 q 161 79 167 26 q 145 643 145 293 "},"\\":{"x_min":44.765625,"x_max":794.8125,"ha":840,"o":"m 149 1023 l 794 -136 l 691 -136 l 44 1023 l 149 1023 "},"Ì":{"x_min":-30,"x_max":263.96875,"ha":314,"o":"m 107 998 l 207 998 l 207 0 l 107 0 l 107 998 m 115 1285 l 263 1076 l 170 1076 l -30 1285 l 115 1285 "},"Ç":{"x_min":75,"x_max":1050.578125,"ha":1129,"o":"m 1050 812 l 971 751 q 815 880 906 836 q 615 924 724 924 q 393 866 495 924 q 235 712 291 809 q 180 495 180 616 q 305 191 180 313 q 621 69 430 69 q 971 233 830 69 l 1050 173 q 864 26 975 78 q 614 -25 752 -25 q 201 149 353 -25 q 75 504 75 296 q 228 872 75 723 q 613 1022 382 1022 q 866 966 753 1022 q 1050 812 978 911 m 549 0 l 609 0 l 597 -79 q 623 -77 613 -77 q 679 -98 657 -77 q 702 -150 702 -119 q 661 -226 702 -195 q 546 -258 620 -258 q 433 -237 486 -258 l 448 -190 q 529 -204 491 -204 q 600 -191 580 -204 q 621 -159 621 -178 q 609 -139 621 -148 q 578 -130 598 -130 q 531 -136 562 -130 l 549 0 "},"Ŝ":{"x_min":17.9375,"x_max":602,"ha":692,"o":"m 17 185 l 102 236 q 309 72 192 72 q 403 95 359 72 q 470 158 447 118 q 494 241 494 197 q 460 339 494 291 q 289 500 413 406 q 133 636 164 594 q 81 789 81 706 q 112 907 81 854 q 200 992 143 961 q 323 1023 256 1023 q 455 988 393 1023 q 585 859 516 953 l 503 797 q 407 896 447 872 q 321 920 367 920 q 222 883 260 920 q 184 793 184 846 q 197 730 184 760 q 247 663 211 699 q 375 563 266 644 q 553 393 505 468 q 602 243 602 318 q 519 55 602 135 q 319 -25 437 -25 q 154 23 228 -25 q 17 185 80 72 m 300 1248 l 394 1248 l 591 1074 l 469 1074 l 350 1177 l 225 1074 l 99 1074 l 300 1248 "},"ς":{"x_min":71,"x_max":767.171875,"ha":804,"o":"m 767 584 l 691 537 q 445 667 594 667 q 246 583 326 667 q 167 369 167 499 q 229 194 167 258 q 449 100 291 130 q 659 36 601 72 q 716 -89 716 0 q 644 -236 716 -183 q 459 -289 573 -289 q 347 -275 400 -289 l 372 -190 q 452 -201 414 -201 q 620 -93 620 -201 q 583 -30 620 -53 q 422 13 546 -6 q 71 362 71 69 q 179 645 71 534 q 449 757 287 757 q 767 584 664 757 "},"C":{"x_min":75,"x_max":1050.09375,"ha":1129,"o":"m 1050 813 l 971 752 q 815 881 906 837 q 614 925 723 925 q 393 867 495 925 q 235 713 291 810 q 180 495 180 616 q 305 191 180 313 q 620 69 430 69 q 971 233 830 69 l 1050 173 q 863 26 975 78 q 614 -25 752 -25 q 201 149 352 -25 q 75 504 75 296 q 228 873 75 723 q 613 1023 382 1023 q 865 967 753 1023 q 1050 813 978 912 "},"∩":{"x_min":88,"x_max":731,"ha":818,"o":"m 162 0 l 88 0 l 88 421 l 88 582 q 99 724 88 661 q 139 839 111 787 q 211 930 167 890 q 306 991 255 971 q 408 1012 357 1012 q 561 965 488 1012 q 673 847 633 919 q 721 695 712 775 q 731 421 731 615 l 731 0 l 656 0 l 656 425 q 649 662 656 590 q 613 791 642 733 q 527 885 585 848 q 408 923 469 923 q 290 885 347 923 q 205 792 233 848 q 169 664 176 737 q 162 425 162 591 l 162 0 "},"Ē":{"x_min":122,"x_max":694,"ha":745,"o":"m 122 998 l 694 998 l 694 900 l 222 900 l 222 588 l 689 588 l 689 490 l 222 490 l 222 98 l 689 98 l 689 0 l 122 0 l 122 998 m 171 1205 l 639 1205 l 639 1124 l 171 1124 l 171 1205 "},"!":{"x_min":121,"x_max":288,"ha":409,"o":"m 252 1023 l 252 250 l 154 250 l 154 1023 l 252 1023 m 204 149 q 263 124 239 149 q 288 65 288 100 q 263 5 288 30 q 204 -19 239 -19 q 145 5 169 -19 q 121 65 121 30 q 145 124 121 100 q 204 149 169 149 "},"ç":{"x_min":71,"x_max":821.640625,"ha":898,"o":"m 821 584 l 746 537 q 480 667 648 667 q 256 580 345 667 q 167 369 167 493 q 207 217 167 288 q 320 107 248 146 q 480 67 391 67 q 746 197 643 67 l 821 147 q 679 24 768 68 q 476 -19 590 -19 q 186 92 301 -19 q 71 362 71 203 q 124 561 71 470 q 273 705 178 653 q 483 757 367 757 q 625 734 557 757 q 740 676 693 712 q 821 584 788 640 m 434 0 l 494 0 l 483 -79 q 508 -77 498 -77 q 564 -98 542 -77 q 587 -150 587 -119 q 546 -226 587 -195 q 431 -258 505 -258 q 318 -237 371 -258 l 333 -190 q 414 -204 376 -204 q 485 -191 465 -204 q 506 -160 506 -178 q 494 -139 506 -148 q 464 -130 483 -130 q 416 -137 447 -130 l 434 0 "},"Ĵ":{"x_min":58.734375,"x_max":670.078125,"ha":669,"o":"m 448 998 l 548 998 l 548 324 q 523 108 548 169 q 443 11 499 47 q 307 -25 387 -25 q 188 -1 247 -25 q 58 80 129 21 l 111 160 q 241 82 189 105 q 307 68 275 68 q 385 93 350 68 q 434 162 420 119 q 448 327 448 205 l 448 998 m 379 1248 l 473 1248 l 670 1074 l 548 1074 l 429 1177 l 304 1074 l 178 1074 l 379 1248 "},"È":{"x_min":122,"x_max":694,"ha":745,"o":"m 122 998 l 694 998 l 694 900 l 222 900 l 222 588 l 689 588 l 689 490 l 222 490 l 222 98 l 689 98 l 689 0 l 122 0 l 122 998 m 372 1285 l 520 1076 l 426 1076 l 226 1285 l 372 1285 "},"ﬁ":{"x_min":57,"x_max":582,"ha":676,"o":"m 578 857 l 485 857 q 372 951 466 951 q 301 932 330 951 q 261 882 273 913 q 249 770 249 851 l 249 738 l 403 738 l 403 655 l 249 655 l 249 0 l 153 0 l 153 655 l 57 655 l 57 738 l 153 738 l 153 770 q 177 928 153 876 q 252 1010 201 979 q 374 1042 303 1042 q 521 990 464 1042 q 578 857 578 938 m 485 738 l 582 738 l 582 0 l 485 0 l 485 738 "},"X":{"x_min":46.796875,"x_max":799.5625,"ha":846,"o":"m 68 998 l 185 998 l 423 608 l 664 998 l 779 998 l 482 514 l 799 0 l 682 0 l 423 418 l 163 0 l 46 0 l 364 514 l 68 998 "},"ô":{"x_min":71,"x_max":839.296875,"ha":910,"o":"m 455 757 q 737 633 625 757 q 839 366 839 520 q 731 96 839 212 q 455 -19 624 -19 q 178 96 285 -19 q 71 366 71 212 q 172 632 71 520 q 455 757 284 757 m 455 664 q 252 576 337 664 q 168 364 168 489 q 206 215 168 284 q 311 108 245 146 q 455 71 376 71 q 599 108 534 71 q 704 215 665 146 q 743 364 743 284 q 657 576 743 489 q 455 664 572 664 m 410 1045 l 505 1045 l 701 872 l 579 872 l 460 974 l 335 872 l 209 872 l 410 1045 "},"Ė":{"x_min":122,"x_max":694,"ha":745,"o":"m 122 998 l 694 998 l 694 900 l 222 900 l 222 588 l 689 588 l 689 490 l 222 490 l 222 98 l 689 98 l 689 0 l 122 0 l 122 998 m 408 1232 q 463 1208 440 1232 q 487 1153 487 1185 q 463 1098 487 1121 q 408 1075 440 1075 q 353 1098 376 1075 q 330 1153 330 1121 q 353 1208 330 1185 q 408 1232 376 1232 "},"Ā":{"x_min":32.828125,"x_max":993.859375,"ha":1027,"o":"m 528 997 l 993 0 l 886 0 l 730 328 l 300 328 l 144 0 l 32 0 l 504 997 l 528 997 m 516 785 l 344 424 l 685 424 l 516 785 m 279 1205 l 747 1205 l 747 1124 l 279 1124 l 279 1205 "},"ċ":{"x_min":71,"x_max":821.078125,"ha":898,"o":"m 821 584 l 745 537 q 479 667 648 667 q 255 580 344 667 q 167 369 167 493 q 207 217 167 288 q 320 106 248 145 q 480 67 391 67 q 745 196 642 67 l 821 147 q 679 23 768 67 q 476 -20 590 -20 q 186 91 301 -20 q 71 362 71 202 q 124 561 71 469 q 272 705 178 653 q 483 757 367 757 q 624 734 556 757 q 740 676 693 712 q 821 584 787 639 m 462 1029 q 517 1005 494 1029 q 541 950 541 982 q 517 895 541 918 q 462 872 494 872 q 407 895 430 872 q 384 950 384 918 q 407 1005 384 982 q 462 1029 430 1029 "},"đ":{"x_min":74,"x_max":951,"ha":952,"o":"m 843 902 l 951 902 l 951 824 l 842 824 l 842 0 l 748 0 l 748 126 q 614 16 689 53 q 452 -20 540 -20 q 184 93 295 -20 q 74 370 74 207 q 185 643 74 530 q 455 757 297 757 q 619 718 546 757 q 748 601 693 679 l 748 824 l 541 824 l 541 902 l 749 902 l 749 1023 l 843 1023 l 843 902 m 462 665 q 316 625 383 665 q 209 516 249 586 q 170 367 170 445 q 209 217 170 288 q 317 106 249 146 q 462 67 384 67 q 609 106 540 67 q 717 212 679 145 q 755 364 755 280 q 670 578 755 492 q 462 665 586 665 "},"Ẃ":{"x_min":65.109375,"x_max":1268.171875,"ha":1333,"o":"m 65 998 l 167 998 l 370 278 l 656 998 l 676 998 l 959 278 l 1166 998 l 1268 998 l 981 0 l 963 0 l 667 755 l 365 0 l 346 0 l 65 998 m 712 1285 l 858 1285 l 658 1076 l 564 1076 l 712 1285 "},"Ŀ":{"x_min":121,"x_max":604.15625,"ha":641,"o":"m 121 997 l 221 997 l 221 96 l 604 96 l 604 0 l 121 0 l 121 997 m 414 590 q 469 566 446 590 q 493 511 493 543 q 469 456 493 479 q 414 433 446 433 q 359 456 382 433 q 336 511 336 479 q 359 566 336 543 q 414 590 382 590 "},"Δ":{"x_min":33.234375,"x_max":994.203125,"ha":1027,"o":"m 994 0 l 33 0 l 504 997 l 528 997 l 994 0 m 840 98 l 516 785 l 190 98 l 840 98 "},"ŋ":{"x_min":106,"x_max":749,"ha":847,"o":"m 749 379 l 749 -112 q 622 -290 749 -290 q 515 -266 573 -290 l 515 -181 q 584 -201 551 -201 q 628 -186 611 -201 q 649 -153 644 -172 q 655 -84 655 -135 l 655 351 q 640 537 655 479 q 580 632 626 595 q 458 669 533 669 q 341 639 393 669 q 256 559 290 609 q 211 455 222 509 q 201 270 201 402 l 201 0 l 106 0 l 106 738 l 201 738 l 201 605 q 476 757 314 757 q 638 704 572 757 q 727 579 705 651 q 749 379 749 507 "},"}":{"x_min":44,"x_max":437,"ha":488,"o":"m 437 402 l 437 290 q 370 275 395 290 q 317 220 335 255 q 299 123 299 186 q 299 -20 299 91 q 284 -180 299 -132 q 240 -257 270 -228 q 167 -298 211 -286 q 82 -306 140 -306 l 44 -306 l 44 -199 l 65 -199 q 159 -173 136 -199 q 182 -59 182 -147 q 187 146 182 102 q 230 274 196 228 q 324 346 264 320 q 213 446 244 384 q 182 651 182 508 q 175 826 182 800 q 146 876 168 861 q 65 891 125 891 l 44 891 l 44 998 l 82 998 q 181 985 150 998 q 254 931 226 969 q 290 830 282 893 q 297 664 297 786 q 310 494 297 539 q 355 426 323 450 q 437 402 387 402 "},"â":{"x_min":73,"x_max":841,"ha":949,"o":"m 841 738 l 841 0 l 747 0 l 747 126 q 613 16 688 53 q 451 -20 539 -20 q 183 93 294 -20 q 73 370 73 207 q 184 643 73 530 q 454 757 296 757 q 618 718 545 757 q 747 601 692 679 l 747 738 l 841 738 m 461 665 q 315 625 382 665 q 208 516 248 586 q 169 367 169 445 q 208 217 169 288 q 316 106 248 146 q 461 67 383 67 q 608 106 539 67 q 716 212 678 145 q 754 364 754 280 q 669 578 754 492 q 461 665 585 665 m 429 1045 l 524 1045 l 720 871 l 598 871 l 479 974 l 354 871 l 228 871 l 429 1045 "},"ø":{"x_min":69,"x_max":837.296875,"ha":906,"o":"m 747 619 q 837 366 837 510 q 729 96 837 212 q 453 -19 622 -19 q 250 36 342 -19 l 172 -56 l 111 -6 l 189 84 q 69 366 69 200 q 176 639 69 521 q 452 757 283 757 q 690 675 589 757 l 769 768 l 831 718 l 747 619 m 248 155 l 628 601 q 453 664 548 664 q 311 624 378 664 q 205 514 244 584 q 166 364 166 444 q 188 250 166 306 q 248 155 210 194 m 682 543 l 311 107 q 452 71 380 71 q 597 108 531 71 q 702 215 663 146 q 741 364 741 284 q 682 543 741 461 "},"‰":{"x_min":33,"x_max":1587,"ha":1630,"o":"m 938 1041 l 211 -69 l 121 -69 l 783 943 q 496 915 666 915 l 460 915 q 502 791 502 857 q 437 625 502 698 q 265 552 372 552 q 100 620 167 552 q 33 786 33 688 q 63 904 33 851 q 150 990 94 957 q 265 1023 206 1023 q 348 1010 290 1023 q 539 992 436 992 q 683 1001 615 992 q 858 1041 750 1011 l 938 1041 m 267 937 q 162 893 205 937 q 119 787 119 849 q 162 682 119 725 q 267 639 205 639 q 373 682 329 639 q 417 787 417 725 q 373 893 417 849 q 267 937 329 937 m 812 440 q 978 371 909 440 q 1047 205 1047 302 q 978 39 1047 108 q 812 -29 909 -29 q 646 39 715 -29 q 578 205 578 108 q 646 371 578 302 q 812 440 715 440 m 812 354 q 707 310 750 354 q 664 205 664 267 q 707 100 664 143 q 812 57 750 57 q 918 100 874 57 q 962 205 962 143 q 918 310 962 267 q 812 354 874 354 m 1353 440 q 1518 371 1450 440 q 1587 205 1587 302 q 1518 39 1587 108 q 1353 -29 1450 -29 q 1187 39 1255 -29 q 1119 205 1119 108 q 1187 371 1119 302 q 1353 440 1255 440 m 1353 354 q 1247 310 1291 354 q 1204 205 1204 267 q 1247 100 1204 143 q 1353 57 1291 57 q 1458 100 1415 57 q 1502 205 1502 143 q 1458 310 1502 267 q 1353 354 1415 354 "},"Ä":{"x_min":33.203125,"x_max":994.140625,"ha":1027,"o":"m 529 997 l 994 0 l 886 0 l 730 328 l 300 328 l 144 0 l 33 0 l 504 997 l 529 997 m 516 785 l 345 424 l 686 424 l 516 785 m 375 1231 q 430 1207 407 1231 q 454 1152 454 1184 q 430 1097 454 1120 q 375 1074 407 1074 q 320 1097 343 1074 q 297 1152 297 1120 q 320 1207 297 1184 q 375 1231 343 1231 m 652 1231 q 707 1207 684 1231 q 731 1152 731 1184 q 707 1097 731 1120 q 652 1074 684 1074 q 597 1097 620 1074 q 574 1152 574 1120 q 597 1207 574 1184 q 652 1231 620 1231 "},"ř":{"x_min":-20.859375,"x_max":471.5,"ha":418,"o":"m 70 738 l 167 738 l 167 630 q 258 725 210 694 q 358 757 306 757 q 443 731 398 757 l 393 652 q 343 665 363 665 q 251 625 295 665 q 184 504 207 586 q 167 249 167 441 l 167 0 l 70 0 l 70 738 m 270 872 l 175 872 l -20 1045 l 101 1045 l 221 943 l 345 1045 l 471 1045 l 270 872 "},"—":{"x_min":-8,"x_max":1397,"ha":1389,"o":"m -8 433 l 1397 433 l 1397 345 l -8 345 l -8 433 "},"N":{"x_min":122,"x_max":905,"ha":1027,"o":"m 122 0 l 122 998 l 143 998 l 807 234 l 807 998 l 905 998 l 905 0 l 882 0 l 225 754 l 225 0 l 122 0 "},"⁄":{"x_min":-235.328125,"x_max":466.578125,"ha":231,"o":"m -235 -25 l 390 1023 l 466 1023 l -160 -25 l -235 -25 "},"2":{"x_min":41.234375,"x_max":719,"ha":770,"o":"m 165 685 l 67 685 q 161 927 67 832 q 396 1023 256 1023 q 619 934 534 1023 q 705 724 705 845 q 664 565 705 639 q 506 364 623 490 l 258 96 l 719 96 l 719 0 l 41 0 l 422 411 q 573 595 538 535 q 608 722 608 655 q 544 867 608 806 q 389 928 481 928 q 229 864 293 928 q 165 685 165 800 "},"∟":{"x_min":245,"x_max":1113.921875,"ha":1359,"o":"m 245 867 l 313 867 l 313 68 l 1113 68 l 1113 0 l 245 0 l 245 867 "},"ü":{"x_min":94,"x_max":740,"ha":845,"o":"m 94 738 l 190 738 l 190 393 q 203 219 190 267 q 281 112 223 151 q 417 73 338 73 q 551 111 496 73 q 628 212 607 149 q 643 393 643 254 l 643 738 l 740 738 l 740 375 q 704 145 740 223 q 597 24 668 68 q 417 -19 525 -19 q 237 24 309 -19 q 129 146 165 68 q 94 382 94 225 l 94 738 m 283 1029 q 338 1005 315 1029 q 362 950 362 982 q 338 895 362 918 q 283 872 315 872 q 228 895 251 872 q 205 950 205 918 q 228 1005 205 982 q 283 1029 251 1029 m 560 1029 q 615 1005 592 1029 q 639 950 639 982 q 615 895 639 918 q 560 872 592 872 q 505 895 528 872 q 482 950 482 918 q 505 1005 482 982 q 560 1029 528 1029 "},"˜":{"x_min":56.28125,"x_max":553.390625,"ha":610,"o":"m 505 1012 l 553 946 q 470 899 504 911 q 400 887 437 887 q 299 912 351 887 q 243 937 255 933 q 208 942 227 942 q 163 933 184 942 q 101 895 141 925 l 56 964 q 208 1030 118 1030 q 312 1003 252 1030 q 403 977 370 977 q 505 1012 440 977 "},"Ó":{"x_min":78,"x_max":1128,"ha":1207,"o":"m 596 1023 q 975 871 822 1023 q 1128 499 1128 720 q 975 127 1128 280 q 604 -25 823 -25 q 230 126 383 -25 q 78 494 78 278 q 147 761 78 638 q 336 953 216 883 q 596 1023 456 1023 m 601 925 q 392 867 491 925 q 237 712 293 809 q 182 494 182 614 q 304 194 182 316 q 601 72 427 72 q 815 128 717 72 q 969 282 914 184 q 1025 499 1025 379 q 969 713 1025 617 q 814 867 914 809 q 601 925 713 925 m 649 1285 l 795 1285 l 595 1077 l 501 1077 l 649 1285 "},"ˇ":{"x_min":102.40625,"x_max":594.75,"ha":697,"o":"m 393 872 l 299 872 l 102 1046 l 224 1046 l 344 943 l 468 1046 l 594 1046 l 393 872 "},"Ÿ":{"x_min":42.765625,"x_max":779.234375,"ha":822,"o":"m 42 997 l 158 997 l 412 586 l 663 997 l 779 997 l 463 476 l 463 0 l 365 0 l 365 476 l 42 997 m 272 1231 q 327 1207 304 1231 q 351 1152 351 1184 q 327 1097 351 1120 q 272 1074 304 1074 q 217 1097 240 1074 q 194 1152 194 1120 q 217 1207 194 1184 q 272 1231 240 1231 m 549 1231 q 604 1207 581 1231 q 628 1152 628 1184 q 604 1097 628 1120 q 549 1074 581 1074 q 494 1097 517 1074 q 471 1152 471 1120 q 494 1207 471 1184 q 549 1231 517 1231 "},"ų":{"x_min":94,"x_max":740,"ha":845,"o":"m 94 738 l 190 738 l 190 393 q 203 219 190 267 q 281 112 223 151 q 417 73 338 73 q 552 111 497 73 q 628 212 607 149 q 643 393 643 255 l 643 738 l 740 738 l 740 375 q 704 145 740 223 q 597 24 668 68 q 417 -19 525 -19 q 237 24 309 -19 q 129 146 165 68 q 94 382 94 225 l 94 738 m 408 0 l 482 0 q 400 -131 400 -70 q 425 -184 400 -162 q 499 -206 450 -206 q 545 -202 518 -206 l 539 -260 q 482 -267 511 -267 q 366 -230 406 -267 q 327 -144 327 -194 q 408 0 327 -56 "},"€":{"x_min":31.9375,"x_max":757.78125,"ha":769,"o":"m 133 654 q 326 923 185 824 q 649 1022 466 1022 q 757 1012 693 1022 l 732 916 q 651 925 693 925 q 405 853 516 925 q 243 654 294 781 l 677 654 l 652 560 l 220 560 q 216 495 216 529 q 219 443 216 475 l 620 443 l 595 350 l 239 350 q 399 142 286 217 q 656 68 512 68 q 751 79 700 68 l 751 -15 q 649 -24 707 -24 q 320 75 458 -24 q 132 350 181 174 l 31 350 l 55 443 l 114 443 q 114 503 114 480 q 114 560 114 525 l 31 560 l 57 654 l 133 654 "},"Η":{"x_min":120,"x_max":828,"ha":949,"o":"m 120 998 l 220 998 l 220 579 l 728 579 l 728 998 l 828 998 l 828 0 l 728 0 l 728 481 l 220 481 l 220 0 l 120 0 l 120 998 "},"Ŭ":{"x_min":125,"x_max":786,"ha":910,"o":"m 125 998 l 225 998 l 225 395 q 229 261 225 288 q 263 163 236 202 q 347 96 290 123 q 460 70 403 70 q 555 91 509 70 q 631 149 600 112 q 675 239 661 186 q 686 395 686 277 l 686 998 l 786 998 l 786 395 q 759 179 786 261 q 655 36 733 97 q 465 -25 576 -25 q 258 32 344 -25 q 143 185 172 90 q 125 395 125 243 l 125 998 m 214 1237 l 304 1237 q 366 1183 327 1201 q 458 1166 404 1166 q 545 1181 512 1166 q 608 1237 578 1197 l 695 1237 q 619 1134 680 1175 q 457 1093 557 1093 q 294 1133 357 1093 q 214 1237 231 1174 "},"≡":{"x_min":78,"x_max":764,"ha":841,"o":"m 764 817 l 764 724 l 78 724 l 78 817 l 764 817 m 78 545 l 764 545 l 764 452 l 78 452 l 78 545 m 764 273 l 764 180 l 78 180 l 78 273 l 764 273 "},"ĝ":{"x_min":68,"x_max":837,"ha":935,"o":"m 741 738 l 837 738 l 837 149 q 809 -77 837 -5 q 680 -234 772 -179 q 458 -289 588 -289 q 288 -262 363 -289 q 165 -190 212 -235 q 77 -59 117 -145 l 180 -59 q 289 -166 222 -131 q 453 -202 355 -202 q 617 -165 550 -202 q 712 -74 684 -129 q 741 101 741 -19 l 741 139 q 610 35 687 71 q 446 -1 533 -1 q 255 49 344 -1 q 116 185 165 100 q 68 373 68 271 q 118 565 68 476 q 259 705 169 653 q 449 757 349 757 q 603 722 531 757 q 741 609 674 688 l 741 738 m 461 665 q 311 625 380 665 q 203 518 242 586 q 164 369 164 449 q 245 168 164 247 q 456 89 326 89 q 666 167 586 89 q 746 374 746 246 q 709 523 746 458 q 605 627 672 589 q 461 665 538 665 m 407 1045 l 501 1045 l 697 871 l 575 871 l 456 974 l 332 871 l 206 871 l 407 1045 "},"ß":{"x_min":110,"x_max":699,"ha":770,"o":"m 110 0 l 110 675 q 139 893 110 828 q 236 1000 169 958 q 395 1042 304 1042 q 589 972 515 1042 q 663 796 663 902 q 629 677 663 729 q 534 593 595 625 q 441 568 501 577 q 542 540 507 558 q 657 433 616 501 q 699 276 699 365 q 619 63 699 146 q 416 -19 540 -19 q 275 14 332 -19 l 275 104 q 402 71 346 71 q 546 129 489 71 q 604 280 604 187 q 535 448 604 383 q 336 513 466 513 l 336 622 l 357 622 q 509 671 452 622 q 566 792 566 721 q 518 904 566 859 q 397 950 471 950 q 292 918 340 950 q 222 834 243 887 q 206 666 206 793 l 206 0 l 110 0 "},"s":{"x_min":36.78125,"x_max":477,"ha":539,"o":"m 476 657 l 415 594 q 266 668 339 668 q 187 637 220 668 q 155 566 155 606 q 182 497 155 530 q 296 419 209 464 q 439 313 401 364 q 477 197 477 262 q 413 43 477 106 q 254 -19 349 -19 q 132 8 190 -19 q 36 85 74 36 l 96 153 q 249 71 168 71 q 346 107 306 71 q 387 193 387 144 q 360 266 387 234 q 241 345 334 297 q 105 446 141 396 q 70 561 70 497 q 127 701 70 645 q 271 757 184 757 q 476 657 373 757 "},"Ű":{"x_min":125,"x_max":800.25,"ha":910,"o":"m 125 998 l 225 998 l 225 395 q 229 261 225 288 q 263 163 236 202 q 347 96 290 123 q 460 70 403 70 q 555 91 509 70 q 631 149 600 112 q 675 239 661 186 q 686 395 686 277 l 686 998 l 786 998 l 786 395 q 759 179 786 261 q 655 36 733 97 q 465 -25 576 -25 q 258 32 344 -25 q 143 185 172 90 q 125 395 125 243 l 125 998 m 439 1286 l 585 1286 l 385 1077 l 292 1077 l 439 1286 m 654 1286 l 800 1286 l 599 1077 l 506 1077 l 654 1286 "},"?":{"x_min":116,"x_max":697,"ha":820,"o":"m 215 726 l 116 726 q 196 943 116 863 q 411 1023 276 1023 q 620 955 544 1023 q 697 788 697 888 q 676 700 697 741 q 613 628 655 660 q 466 554 571 595 q 306 475 334 501 q 278 412 278 449 q 316 342 278 373 q 415 311 354 311 q 518 345 482 311 q 563 454 554 379 l 659 454 q 593 278 659 341 q 416 216 527 216 q 241 272 306 216 q 176 412 176 329 q 193 489 176 453 q 244 550 211 526 q 368 612 277 574 q 556 701 514 671 q 597 787 597 731 q 546 887 597 846 q 413 928 496 928 q 254 860 311 928 q 215 726 215 813 m 411 149 q 470 124 446 149 q 495 65 495 100 q 470 5 495 30 q 411 -19 446 -19 q 352 5 376 -19 q 328 65 328 30 q 352 124 328 100 q 411 149 376 149 "},"Ņ":{"x_min":122,"x_max":905,"ha":1027,"o":"m 122 0 l 122 998 l 143 998 l 807 234 l 807 998 l 905 998 l 905 0 l 882 0 l 225 754 l 225 0 l 122 0 m 445 -86 q 510 -76 477 -76 q 617 -150 617 -76 q 574 -227 617 -197 q 460 -258 532 -258 q 362 -242 418 -258 l 377 -194 q 447 -204 423 -204 q 536 -160 536 -204 q 486 -131 536 -131 q 437 -139 468 -131 l 445 -86 "},"c":{"x_min":71,"x_max":822.109375,"ha":899,"o":"m 822 584 l 746 537 q 480 667 649 667 q 256 580 345 667 q 167 369 167 493 q 208 217 167 288 q 320 106 249 145 q 481 67 392 67 q 746 196 643 67 l 822 147 q 679 23 769 67 q 476 -20 590 -20 q 186 91 301 -20 q 71 362 71 202 q 124 561 71 469 q 273 705 178 653 q 484 757 367 757 q 625 734 557 757 q 741 676 693 712 q 822 584 788 639 "},"¶":{"x_min":64.1875,"x_max":694,"ha":784,"o":"m 328 -157 l 328 478 q 252 483 277 478 q 157 529 199 495 q 89 621 114 563 q 64 749 64 678 q 142 958 64 877 q 345 1026 208 1026 l 694 1026 l 694 975 l 637 975 l 637 -157 l 556 -157 l 556 975 l 409 975 l 409 -157 l 328 -157 "},"Μ":{"x_min":75.953125,"x_max":1200.359375,"ha":1276,"o":"m 75 0 l 217 998 l 233 998 l 639 179 l 1040 998 l 1057 998 l 1200 0 l 1102 0 l 1004 713 l 651 0 l 626 0 l 269 719 l 172 0 l 75 0 "},"Ή":{"x_min":-68.1875,"x_max":889,"ha":1010,"o":"m 181 998 l 281 998 l 281 579 l 789 579 l 789 998 l 889 998 l 889 0 l 789 0 l 789 481 l 281 481 l 281 0 l 181 0 l 181 998 m 41 1023 l 41 794 l -48 794 l -68 1023 l 41 1023 "},"Ī":{"x_min":-77,"x_max":391,"ha":314,"o":"m 107 998 l 207 998 l 207 0 l 107 0 l 107 998 m -77 1205 l 391 1205 l 391 1124 l -77 1124 l -77 1205 "},"•":{"x_min":212,"x_max":628,"ha":841,"o":"m 420 714 q 567 652 506 714 q 628 505 628 591 q 567 358 628 419 q 420 297 506 297 q 272 358 333 297 q 212 505 212 419 q 272 652 212 591 q 420 714 333 714 "},"(":{"x_min":181,"x_max":428.484375,"ha":513,"o":"m 318 1042 l 428 1042 q 322 723 362 905 q 282 348 282 542 q 312 3 282 169 q 395 -289 342 -162 l 290 -289 q 210 -4 240 -168 q 181 335 181 158 q 216 707 181 526 q 318 1042 251 888 "},"γ":{"x_min":35.890625,"x_max":730.75,"ha":770,"o":"m 730 738 l 431 82 l 431 -270 l 337 -270 l 337 84 l 35 738 l 136 738 l 384 200 l 629 738 l 730 738 "},"α":{"x_min":73,"x_max":841,"ha":949,"o":"m 841 738 l 841 0 l 747 0 l 747 126 q 613 16 688 53 q 451 -20 539 -20 q 183 93 294 -20 q 73 370 73 207 q 184 643 73 530 q 454 757 296 757 q 618 718 545 757 q 747 601 692 679 l 747 738 l 841 738 m 461 665 q 315 625 382 665 q 208 516 248 586 q 169 367 169 445 q 208 217 169 288 q 316 106 248 146 q 461 67 383 67 q 608 106 539 67 q 716 212 678 145 q 754 364 754 280 q 669 578 754 492 q 461 665 585 665 "},"­":{"x_min":44,"x_max":417,"ha":461,"o":"m 44 417 l 417 417 l 417 334 l 44 334 l 44 417 "},"Ħ":{"x_min":31,"x_max":919,"ha":950,"o":"m 221 841 l 728 841 l 728 998 l 828 998 l 828 841 l 919 841 l 919 747 l 828 747 l 828 0 l 728 0 l 728 481 l 221 481 l 221 0 l 121 0 l 121 747 l 31 747 l 31 841 l 121 841 l 121 998 l 221 998 l 221 841 m 221 747 l 221 579 l 728 579 l 728 747 l 221 747 "},":":{"x_min":127,"x_max":294,"ha":385,"o":"m 210 757 q 269 732 245 757 q 294 673 294 708 q 269 613 294 637 q 210 589 245 589 q 151 613 175 589 q 127 673 127 637 q 151 732 127 707 q 210 757 175 757 m 210 149 q 269 124 245 149 q 294 65 294 100 q 269 5 294 30 q 210 -19 245 -19 q 151 5 175 -19 q 127 65 127 30 q 151 124 127 100 q 210 149 175 149 "},"Û":{"x_min":125,"x_max":786,"ha":910,"o":"m 125 998 l 225 998 l 225 395 q 229 261 225 288 q 263 163 236 202 q 347 96 290 123 q 460 70 403 70 q 555 91 509 70 q 631 149 600 112 q 675 239 661 186 q 686 395 686 277 l 686 998 l 786 998 l 786 395 q 759 179 786 261 q 655 36 733 97 q 465 -25 576 -25 q 258 32 344 -25 q 143 185 172 90 q 125 395 125 243 l 125 998 m 410 1248 l 504 1248 l 701 1074 l 579 1074 l 460 1177 l 335 1074 l 209 1074 l 410 1248 "},"ś":{"x_min":36.78125,"x_max":477,"ha":539,"o":"m 476 657 l 415 594 q 266 668 339 668 q 187 637 220 668 q 155 566 155 606 q 182 497 155 530 q 296 419 209 464 q 439 313 401 364 q 477 197 477 262 q 413 43 477 106 q 254 -19 349 -19 q 132 8 190 -19 q 36 85 74 36 l 96 153 q 249 71 168 71 q 346 107 306 71 q 387 193 387 144 q 360 266 387 234 q 241 345 334 297 q 105 446 141 396 q 70 561 70 497 q 127 701 70 645 q 271 757 184 757 q 476 657 373 757 m 272 1083 l 418 1083 l 218 875 l 124 875 l 272 1083 "},"V":{"x_min":45.4375,"x_max":929.09375,"ha":975,"o":"m 45 998 l 153 998 l 484 226 l 820 998 l 929 998 l 495 0 l 473 0 l 45 998 "},"Ŗ":{"x_min":127,"x_max":765.234375,"ha":843,"o":"m 127 998 l 325 998 q 550 984 491 998 q 695 897 639 964 q 751 732 751 830 q 712 589 751 650 q 603 495 674 527 q 406 464 531 464 l 765 0 l 641 0 l 283 464 l 227 464 l 227 0 l 127 0 l 127 998 m 227 900 l 227 560 l 398 560 q 545 578 497 560 q 620 639 593 597 q 647 732 647 681 q 619 823 647 782 q 548 882 592 864 q 402 900 504 900 l 227 900 m 342 -86 q 406 -76 373 -76 q 513 -150 513 -76 q 470 -227 513 -197 q 357 -258 428 -258 q 258 -242 315 -258 l 273 -194 q 344 -204 319 -204 q 432 -160 432 -204 q 382 -131 432 -131 q 333 -139 364 -131 l 342 -86 "}," ":{"x_min":0,"x_max":0,"ha":389},"@":{"x_min":93,"x_max":1111,"ha":1205,"o":"m 979 204 l 1051 204 q 883 45 960 90 q 632 -18 773 -18 q 358 52 484 -18 q 163 243 233 122 q 93 509 93 365 q 163 780 93 654 q 356 975 234 905 q 624 1045 478 1045 q 969 913 828 1045 q 1111 608 1111 782 q 1052 389 1111 481 q 893 246 993 297 q 762 207 816 207 q 700 228 723 207 q 682 282 682 243 q 618 233 658 253 q 534 214 578 214 q 372 281 436 214 q 309 460 309 349 q 386 679 309 580 q 599 779 463 779 q 699 756 659 779 q 776 678 739 733 l 793 771 l 866 771 l 788 328 q 785 300 785 306 q 794 275 785 284 q 818 267 803 267 q 922 313 858 267 q 1022 432 986 359 q 1058 594 1058 505 q 924 879 1058 766 q 620 985 799 985 q 379 924 487 985 q 208 753 271 863 q 146 515 146 643 q 209 276 146 385 q 383 104 272 166 q 629 42 495 42 q 807 77 727 42 q 979 204 887 112 m 568 291 q 652 319 613 291 q 714 403 691 347 q 744 552 744 477 q 706 663 744 620 q 607 706 668 706 q 466 639 525 706 q 407 472 407 572 q 452 340 407 389 q 568 291 497 291 "},"¾":{"x_min":46.53125,"x_max":1120,"ha":1154,"o":"m 141 877 l 65 877 q 131 985 83 948 q 248 1023 178 1023 q 377 981 327 1023 q 427 884 427 940 q 365 785 427 825 q 434 728 410 763 q 459 654 459 693 q 401 535 459 585 q 250 485 344 485 q 114 526 165 485 q 46 648 62 568 l 120 648 q 166 575 134 598 q 250 552 198 552 q 347 581 311 552 q 384 650 384 611 q 343 720 384 695 q 212 746 302 746 l 212 812 q 315 834 281 812 q 349 885 349 856 q 321 934 349 913 q 248 956 294 956 q 186 938 211 956 q 141 877 161 920 m 292 -25 l 918 1023 l 994 1023 l 366 -25 l 292 -25 m 1049 533 l 1049 175 l 1120 175 l 1120 109 l 1049 109 l 1049 -6 l 974 -6 l 974 109 l 680 109 l 1049 533 m 974 175 l 974 343 l 828 175 l 974 175 "},"Ί":{"x_min":-68.1875,"x_max":268,"ha":375,"o":"m 168 998 l 268 998 l 268 0 l 168 0 l 168 998 m 41 1023 l 41 794 l -48 794 l -68 1023 l 41 1023 "},"ŉ":{"x_min":-47,"x_max":752,"ha":850,"o":"m 109 738 l 204 738 l 204 605 q 330 719 260 681 q 480 757 399 757 q 627 714 563 757 q 721 601 691 672 q 752 379 752 530 l 752 0 l 658 0 l 658 351 q 647 521 658 479 q 583 632 630 595 q 461 669 536 669 q 307 612 375 669 q 217 471 239 555 q 204 270 204 416 l 204 0 l 109 0 l 109 738 m 17 650 l -34 679 q 0 760 -8 731 q 12 836 8 790 l -47 836 l -47 1023 l 76 1023 l 76 906 q 64 768 76 818 q 17 650 52 718 "},"i":{"x_min":61,"x_max":218,"ha":278,"o":"m 139 1042 q 194 1018 171 1042 q 218 963 218 995 q 194 908 218 931 q 139 885 171 885 q 84 908 107 885 q 61 963 61 931 q 84 1018 61 995 q 139 1042 107 1042 m 91 738 l 187 738 l 187 0 l 91 0 l 91 738 "},"≤":{"x_min":31,"x_max":732,"ha":763,"o":"m 732 326 l 732 227 l 31 545 l 31 633 l 732 953 l 732 853 l 162 589 l 732 326 m 732 157 l 732 64 l 31 64 l 31 157 l 732 157 "},"υ":{"x_min":92,"x_max":757,"ha":828,"o":"m 92 738 l 188 738 l 188 393 q 200 223 188 282 q 270 118 212 163 q 415 73 327 73 q 597 153 535 73 q 660 368 660 233 q 487 670 660 554 l 539 757 q 757 351 757 630 q 664 84 757 188 q 415 -19 572 -19 q 181 65 270 -19 q 92 382 92 150 l 92 738 "},"Ģ":{"x_min":79,"x_max":1142,"ha":1211,"o":"m 1083 830 l 1006 757 q 823 881 922 839 q 629 924 723 924 q 405 866 512 924 q 241 709 299 808 q 183 501 183 611 q 243 287 183 388 q 410 127 303 185 q 643 69 516 69 q 904 156 797 69 q 1030 382 1011 243 l 713 382 l 713 478 l 1142 478 q 1005 110 1142 246 q 641 -25 869 -25 q 203 163 364 -25 q 79 499 79 308 q 150 763 79 641 q 345 954 221 885 q 626 1023 469 1023 q 865 977 753 1023 q 1083 830 977 931 m 590 0 l 650 0 l 638 -79 q 664 -77 654 -77 q 720 -98 698 -77 q 743 -150 743 -119 q 702 -226 743 -195 q 587 -258 661 -258 q 474 -237 527 -258 l 488 -190 q 570 -204 532 -204 q 641 -191 621 -204 q 662 -159 662 -178 q 650 -139 662 -148 q 619 -130 639 -130 q 572 -136 603 -130 l 590 0 "},"m":{"x_min":105,"x_max":1208,"ha":1302,"o":"m 105 738 l 199 738 l 199 610 q 300 713 248 681 q 452 757 372 757 q 554 736 505 757 q 632 680 602 715 q 685 580 663 645 q 804 712 733 667 q 957 757 875 757 q 1092 718 1033 757 q 1179 610 1151 679 q 1208 402 1208 541 l 1208 0 l 1111 0 l 1111 403 q 1094 566 1111 521 q 1036 637 1077 610 q 938 665 995 665 q 812 624 869 665 q 728 515 754 583 q 702 289 702 447 l 702 0 l 608 0 l 608 377 q 591 559 608 511 q 533 636 574 607 q 434 665 491 665 q 311 625 368 665 q 226 518 254 585 q 199 312 199 451 l 199 0 l 105 0 l 105 738 "},"ĕ":{"x_min":71,"x_max":831.203125,"ha":903,"o":"m 727 244 l 807 202 q 716 77 768 125 q 600 5 665 30 q 454 -19 536 -19 q 172 99 274 -19 q 71 366 71 217 q 157 617 71 507 q 449 757 266 757 q 751 613 638 757 q 831 361 831 512 l 170 361 q 249 150 170 232 q 446 68 329 68 q 555 87 502 68 q 646 139 609 107 q 727 244 683 172 m 727 443 q 672 564 708 519 q 576 638 635 610 q 450 666 516 666 q 264 595 342 666 q 178 443 207 544 l 727 443 m 211 1033 l 300 1033 q 362 981 323 998 q 454 964 401 964 q 542 979 509 964 q 605 1033 575 994 l 692 1033 q 615 931 677 972 q 454 891 554 891 q 291 931 354 891 q 211 1033 228 971 "},"ż":{"x_min":5.671875,"x_max":586.5625,"ha":589,"o":"m 45 738 l 586 738 l 168 84 l 573 84 l 573 0 l 5 0 l 422 655 l 45 655 l 45 738 m 272 1029 q 327 1005 304 1029 q 351 950 351 982 q 327 895 351 918 q 272 872 304 872 q 217 895 240 872 q 194 950 194 918 q 217 1005 194 982 q 272 1029 240 1029 "},"ő":{"x_min":71,"x_max":839.296875,"ha":910,"o":"m 455 757 q 737 633 625 757 q 839 366 839 520 q 731 96 839 212 q 455 -19 624 -19 q 178 96 285 -19 q 71 366 71 212 q 172 632 71 520 q 455 757 284 757 m 455 664 q 252 576 337 664 q 168 364 168 489 q 206 215 168 284 q 311 108 245 146 q 455 71 376 71 q 599 108 534 71 q 704 215 665 146 q 743 364 743 284 q 657 576 743 489 q 455 664 572 664 m 439 1084 l 585 1084 l 385 875 l 292 875 l 439 1084 m 654 1084 l 799 1084 l 599 875 l 506 875 l 654 1084 "},"ž":{"x_min":5.671875,"x_max":586.5625,"ha":589,"o":"m 45 738 l 586 738 l 169 84 l 573 84 l 573 0 l 5 0 l 423 655 l 45 655 l 45 738 m 339 872 l 244 872 l 48 1045 l 170 1045 l 290 943 l 414 1045 l 540 1045 l 339 872 "},"Ŏ":{"x_min":78,"x_max":1128,"ha":1207,"o":"m 596 1023 q 975 871 822 1023 q 1128 499 1128 720 q 975 127 1128 280 q 604 -25 823 -25 q 230 126 383 -25 q 78 494 78 278 q 147 761 78 638 q 336 953 216 883 q 596 1023 456 1023 m 601 925 q 392 867 491 925 q 237 712 293 809 q 182 494 182 614 q 304 194 182 316 q 601 72 427 72 q 815 128 717 72 q 969 282 914 184 q 1025 499 1025 379 q 969 713 1025 617 q 814 867 914 809 q 601 925 713 925 m 362 1236 l 452 1236 q 514 1183 475 1201 q 606 1166 552 1166 q 693 1181 660 1166 q 756 1236 726 1197 l 843 1236 q 767 1134 828 1175 q 605 1093 705 1093 q 442 1133 505 1093 q 362 1236 379 1174 "},"á":{"x_min":73,"x_max":841,"ha":949,"o":"m 841 738 l 841 0 l 747 0 l 747 126 q 613 16 688 53 q 451 -20 539 -20 q 183 93 294 -20 q 73 370 73 207 q 184 643 73 530 q 454 757 296 757 q 618 718 545 757 q 747 601 692 679 l 747 738 l 841 738 m 461 665 q 315 625 382 665 q 208 516 248 586 q 169 367 169 445 q 208 217 169 288 q 316 106 248 146 q 461 67 383 67 q 608 106 539 67 q 716 212 678 145 q 754 364 754 280 q 669 578 754 492 q 461 665 585 665 m 520 1083 l 666 1083 l 466 875 l 373 875 l 520 1083 "},"×":{"x_min":133.59375,"x_max":708.015625,"ha":842,"o":"m 482 498 l 708 274 l 645 211 l 421 436 l 195 211 l 133 274 l 358 498 l 133 723 l 195 786 l 421 560 l 645 786 l 708 723 l 482 498 "},"İ":{"x_min":79,"x_max":236,"ha":314,"o":"m 107 998 l 207 998 l 207 0 l 107 0 l 107 998 m 157 1228 q 212 1204 189 1228 q 236 1149 236 1181 q 212 1094 236 1117 q 157 1071 189 1071 q 102 1094 125 1071 q 79 1149 79 1117 q 102 1204 79 1181 q 157 1228 125 1228 "},"Ě":{"x_min":122,"x_max":694,"ha":745,"o":"m 122 998 l 694 998 l 694 900 l 222 900 l 222 588 l 689 588 l 689 490 l 222 490 l 222 98 l 689 98 l 689 0 l 122 0 l 122 998 m 458 1074 l 363 1074 l 166 1248 l 289 1248 l 409 1145 l 533 1248 l 659 1248 l 458 1074 "},"Ǻ":{"x_min":32.921875,"x_max":993.984375,"ha":1027,"o":"m 528 997 l 993 0 l 886 0 l 730 328 l 300 328 l 144 0 l 32 0 l 504 997 l 528 997 m 516 785 l 344 424 l 686 424 l 516 785 m 516 1236 q 618 1193 576 1236 q 661 1090 661 1151 q 618 988 661 1030 q 516 946 576 946 q 414 988 456 946 q 372 1090 372 1030 q 414 1193 372 1151 q 516 1236 456 1236 m 515 1167 q 462 1144 484 1167 q 441 1092 441 1122 q 462 1040 441 1062 q 515 1018 484 1018 q 568 1040 546 1018 q 590 1092 590 1062 q 568 1144 590 1122 q 515 1167 546 1167 m 542 1471 l 688 1471 l 487 1263 l 394 1263 l 542 1471 "},"K":{"x_min":121,"x_max":793.328125,"ha":820,"o":"m 121 998 l 223 998 l 223 623 l 621 998 l 756 998 l 276 550 l 793 0 l 661 0 l 223 465 l 223 0 l 121 0 l 121 998 "},"7":{"x_min":100,"x_max":732.734375,"ha":770,"o":"m 100 998 l 732 998 l 199 -24 l 116 17 l 578 904 l 100 904 l 100 998 "},"¨":{"x_min":39,"x_max":473,"ha":512,"o":"m 117 1029 q 172 1005 149 1029 q 196 950 196 982 q 172 895 196 918 q 117 872 149 872 q 62 895 85 872 q 39 950 39 918 q 62 1005 39 982 q 117 1029 85 1029 m 394 1029 q 449 1005 426 1029 q 473 950 473 982 q 449 895 473 918 q 394 872 426 872 q 339 895 362 872 q 316 950 316 918 q 339 1005 316 982 q 394 1029 362 1029 "},"Y":{"x_min":42.859375,"x_max":779.03125,"ha":822,"o":"m 42 998 l 158 998 l 412 586 l 663 998 l 779 998 l 463 476 l 463 0 l 365 0 l 365 476 l 42 998 "},"E":{"x_min":122,"x_max":694,"ha":745,"o":"m 122 998 l 694 998 l 694 900 l 222 900 l 222 588 l 689 588 l 689 490 l 222 490 l 222 98 l 689 98 l 689 0 l 122 0 l 122 998 "},"Ô":{"x_min":78,"x_max":1128,"ha":1207,"o":"m 596 1023 q 975 871 822 1023 q 1128 499 1128 720 q 975 127 1128 280 q 604 -25 823 -25 q 230 126 383 -25 q 78 494 78 278 q 147 761 78 638 q 336 953 216 883 q 596 1023 456 1023 m 601 925 q 392 867 491 925 q 237 712 293 809 q 182 494 182 614 q 304 194 182 316 q 601 72 427 72 q 815 128 717 72 q 969 282 914 184 q 1025 499 1025 379 q 969 713 1025 617 q 814 867 914 809 q 601 925 713 925 m 558 1248 l 652 1248 l 849 1074 l 727 1074 l 608 1177 l 483 1074 l 357 1074 l 558 1248 "},"‹":{"x_min":50.859375,"x_max":301.78125,"ha":349,"o":"m 301 738 l 150 367 l 301 0 l 201 0 l 50 367 l 201 738 l 301 738 "},"Ï":{"x_min":-60,"x_max":374,"ha":314,"o":"m 107 998 l 207 998 l 207 0 l 107 0 l 107 998 m 18 1232 q 73 1208 50 1232 q 97 1153 97 1185 q 73 1098 97 1121 q 18 1075 50 1075 q -36 1098 -13 1075 q -60 1153 -60 1121 q -36 1208 -60 1185 q 18 1232 -13 1232 m 295 1232 q 350 1208 327 1232 q 374 1153 374 1185 q 350 1098 374 1121 q 295 1075 327 1075 q 240 1098 263 1075 q 217 1153 217 1121 q 240 1208 217 1185 q 295 1232 263 1232 "},"ġ":{"x_min":68,"x_max":837,"ha":935,"o":"m 741 738 l 837 738 l 837 149 q 809 -77 837 -5 q 680 -234 772 -179 q 458 -289 588 -289 q 288 -262 363 -289 q 165 -190 212 -235 q 77 -59 117 -145 l 180 -59 q 289 -166 222 -131 q 453 -202 355 -202 q 617 -165 550 -202 q 712 -74 684 -129 q 741 101 741 -19 l 741 139 q 610 35 687 71 q 446 -1 533 -1 q 255 49 344 -1 q 116 185 165 100 q 68 373 68 271 q 118 565 68 476 q 259 705 169 653 q 449 757 349 757 q 603 722 531 757 q 741 609 674 688 l 741 738 m 461 665 q 311 625 380 665 q 203 518 242 586 q 164 369 164 449 q 245 168 164 247 q 456 89 326 89 q 666 167 586 89 q 746 374 746 246 q 709 523 746 458 q 605 627 672 589 q 461 665 538 665 m 469 1029 q 524 1005 501 1029 q 548 950 548 982 q 524 895 548 918 q 469 872 501 872 q 414 895 437 872 q 391 950 391 918 q 414 1005 391 982 q 469 1029 437 1029 "},"έ":{"x_min":70,"x_max":560.921875,"ha":587,"o":"m 560 78 q 317 -20 468 -20 q 139 43 209 -20 q 70 210 70 106 q 203 404 70 349 q 101 561 101 445 q 163 703 101 648 q 318 758 225 758 q 529 674 430 758 l 476 608 q 322 668 398 668 q 227 635 262 668 q 193 547 193 603 q 228 460 193 494 q 319 427 264 427 l 369 427 l 369 346 l 310 346 q 211 307 251 346 q 172 209 172 268 q 213 106 172 144 q 325 69 255 69 q 501 146 432 69 l 560 78 m 343 1083 l 343 854 l 253 854 l 234 1083 l 343 1083 "},"ķ":{"x_min":105,"x_max":705.25,"ha":697,"o":"m 105 1023 l 201 1023 l 201 440 l 541 738 l 681 738 l 276 385 l 705 0 l 570 0 l 201 331 l 201 0 l 105 0 l 105 1023 m 284 -86 q 348 -76 315 -76 q 455 -150 455 -76 q 412 -227 455 -197 q 299 -258 370 -258 q 201 -242 257 -258 l 215 -194 q 286 -204 261 -204 q 374 -160 374 -204 q 324 -131 374 -131 q 276 -139 306 -131 l 284 -86 "},"±":{"x_min":38,"x_max":724,"ha":762,"o":"m 334 619 l 334 914 l 427 914 l 427 619 l 724 619 l 724 526 l 427 526 l 427 232 l 334 232 l 334 526 l 38 526 l 38 619 l 334 619 m 724 109 l 724 16 l 38 16 l 38 109 l 724 109 "},"ì":{"x_min":-47.703125,"x_max":246.328125,"ha":279,"o":"m 92 738 l 188 738 l 188 0 l 92 0 l 92 738 m 98 1083 l 246 875 l 152 875 l -47 1083 l 98 1083 "},"|":{"x_min":418,"x_max":515,"ha":933,"o":"m 418 1023 l 515 1023 l 515 -270 l 418 -270 l 418 1023 "},"ϋ":{"x_min":92,"x_max":757,"ha":828,"o":"m 92 738 l 188 738 l 188 393 q 200 223 188 282 q 270 118 212 163 q 415 73 327 73 q 597 153 535 73 q 660 368 660 233 q 487 670 660 554 l 539 757 q 757 351 757 630 q 664 84 757 188 q 415 -19 572 -19 q 181 65 270 -19 q 92 382 92 150 l 92 738 m 275 1029 q 330 1005 307 1029 q 354 950 354 982 q 330 895 354 918 q 275 872 307 872 q 220 895 243 872 q 197 950 197 918 q 220 1005 197 982 q 275 1029 243 1029 m 552 1029 q 607 1005 584 1029 q 631 950 631 982 q 607 895 631 918 q 552 872 584 872 q 497 895 520 872 q 474 950 474 918 q 497 1005 474 982 q 552 1029 520 1029 "},"§":{"x_min":88,"x_max":677,"ha":853,"o":"m 653 810 l 553 810 q 505 909 546 873 q 397 946 463 946 q 284 910 325 946 q 243 824 243 875 q 255 769 243 794 q 312 702 273 735 q 446 612 351 669 q 598 510 558 545 q 657 433 637 474 q 677 352 677 391 q 624 226 677 284 q 483 151 571 168 q 593 46 555 106 q 631 -76 631 -13 q 561 -227 631 -165 q 380 -289 492 -289 q 196 -232 270 -289 q 109 -94 123 -176 l 209 -94 q 255 -160 225 -137 q 374 -200 304 -200 q 488 -164 446 -200 q 531 -77 531 -128 q 497 11 531 -31 q 340 133 463 55 q 198 227 224 208 q 114 319 141 271 q 88 417 88 367 q 109 501 88 460 q 168 573 130 542 q 264 621 206 604 q 170 718 197 669 q 143 826 143 767 q 211 981 143 921 q 395 1042 279 1042 q 574 981 508 1042 q 653 810 641 921 m 343 569 q 228 517 269 557 q 187 422 187 478 q 222 332 187 372 q 403 207 269 278 q 532 259 486 217 q 578 354 578 300 q 546 431 578 396 q 353 562 514 467 l 343 569 "},"q":{"x_min":72,"x_max":840,"ha":947,"o":"m 840 738 l 840 -270 l 746 -270 l 746 126 q 612 16 687 53 q 450 -20 538 -20 q 182 93 293 -20 q 72 370 72 207 q 183 643 72 530 q 453 757 295 757 q 617 718 544 757 q 746 601 691 679 l 746 738 l 840 738 m 460 665 q 314 625 381 665 q 207 516 247 586 q 168 367 168 445 q 208 217 168 288 q 315 106 248 146 q 460 67 382 67 q 607 106 538 67 q 715 212 677 145 q 753 364 753 280 q 668 578 753 492 q 460 665 584 665 "},"b":{"x_min":112,"x_max":881,"ha":948,"o":"m 112 0 l 112 1023 l 205 1023 l 205 611 q 339 720 265 684 q 501 757 413 757 q 769 643 658 757 q 881 367 881 529 q 768 94 881 207 q 499 -19 656 -19 q 335 19 408 -19 q 205 136 262 58 l 205 0 l 112 0 m 491 73 q 638 111 571 73 q 745 221 705 150 q 785 370 785 292 q 744 520 785 449 q 637 631 704 591 q 493 671 569 671 q 344 631 414 671 q 236 524 274 591 q 199 373 199 457 q 283 159 199 245 q 491 73 368 73 "},"ύ":{"x_min":92,"x_max":757,"ha":828,"o":"m 92 738 l 188 738 l 188 393 q 200 223 188 282 q 270 118 212 163 q 415 73 327 73 q 597 153 535 73 q 660 368 660 233 q 487 670 660 554 l 539 757 q 757 351 757 630 q 664 84 757 188 q 415 -19 572 -19 q 181 65 270 -19 q 92 382 92 150 l 92 738 m 464 1084 l 464 855 l 374 855 l 354 1084 l 464 1084 "},"ﬂ":{"x_min":62,"x_max":586,"ha":673,"o":"m 409 738 l 409 654 l 257 654 l 257 0 l 159 0 l 159 654 l 62 654 l 62 738 l 159 738 l 159 762 q 181 927 159 877 q 255 1009 204 977 q 373 1042 306 1042 q 492 1008 441 1042 q 564 925 543 975 q 586 750 586 876 l 586 0 l 489 0 l 489 756 q 478 882 489 850 q 439 934 468 914 q 372 954 410 954 q 306 933 334 954 q 265 875 277 912 q 257 738 257 848 l 409 738 "},"ή":{"x_min":106,"x_max":749,"ha":847,"o":"m 749 -270 l 655 -270 l 655 351 q 644 523 655 462 q 586 627 633 585 q 458 669 539 669 q 303 612 370 669 q 218 488 236 555 q 201 270 201 420 l 201 0 l 106 0 l 106 738 l 201 738 l 201 605 q 477 757 314 757 q 620 717 556 757 q 716 606 684 677 q 749 379 749 535 l 749 -270 m 474 1083 l 474 854 l 384 854 l 364 1083 l 474 1083 "},"®":{"x_min":-13,"x_max":1052,"ha":1038,"o":"m 1052 516 q 980 249 1052 372 q 785 53 909 125 q 519 -18 661 -18 q 254 53 378 -18 q 58 248 130 125 q -13 513 -13 372 q 58 780 -13 655 q 253 976 130 905 q 519 1048 377 1048 q 785 977 662 1048 q 980 781 908 906 q 1052 516 1052 656 m 978 515 q 916 745 978 637 q 748 914 854 852 q 521 976 643 976 q 291 914 398 976 q 122 745 183 852 q 61 514 61 637 q 122 284 61 391 q 291 116 183 178 q 521 55 399 55 q 748 117 642 55 q 916 285 855 179 q 978 515 978 391 m 298 826 l 554 826 q 683 808 643 826 q 747 749 722 790 q 772 654 772 708 q 754 573 772 607 q 695 518 740 548 q 750 471 736 498 q 765 379 765 444 l 765 310 q 786 229 765 261 l 796 213 l 688 213 q 672 302 672 250 l 672 378 q 661 436 672 419 q 630 460 650 453 q 552 468 611 468 l 395 468 l 395 213 l 298 213 l 298 826 m 395 738 l 395 556 l 545 556 q 638 571 614 556 q 675 647 675 594 q 649 716 675 694 q 552 738 623 738 l 395 738 "},"Ε":{"x_min":122,"x_max":694,"ha":745,"o":"m 122 998 l 694 998 l 694 900 l 222 900 l 222 588 l 689 588 l 689 490 l 222 490 l 222 98 l 689 98 l 689 0 l 122 0 l 122 998 "},"₧":{"x_min":121,"x_max":1443,"ha":1505,"o":"m 743 738 l 795 738 l 795 1012 l 891 1012 l 891 738 l 1148 738 q 1237 757 1190 757 q 1442 657 1341 757 l 1381 594 q 1232 668 1307 668 q 1156 639 1191 668 q 1121 566 1121 611 q 1146 498 1121 531 q 1261 419 1172 466 q 1400 321 1357 370 q 1443 197 1443 271 q 1382 46 1443 112 q 1219 -19 1321 -19 q 1094 10 1151 -19 q 1002 85 1038 39 l 1062 153 q 1215 71 1134 71 q 1310 105 1268 71 q 1352 193 1352 140 q 1323 268 1352 237 q 1207 345 1295 299 q 1076 440 1116 392 q 1036 561 1036 488 q 1058 657 1036 612 l 891 657 l 891 0 l 795 0 l 795 657 l 733 657 q 660 534 711 577 q 534 477 609 491 q 292 464 460 464 l 221 464 l 221 0 l 121 0 l 121 998 l 319 998 q 557 981 483 998 q 687 900 631 964 q 743 738 743 835 m 221 901 l 221 560 q 386 560 370 560 q 548 582 500 560 q 618 646 596 604 q 641 732 641 688 q 613 824 641 781 q 540 884 586 867 q 397 901 494 901 l 221 901 "},"Ŋ":{"x_min":121,"x_max":1001,"ha":1079,"o":"m 358 102 l 430 164 q 607 69 499 69 q 815 193 733 69 q 897 501 897 318 q 791 808 897 687 q 531 929 685 929 q 357 881 439 929 q 221 759 274 833 l 221 0 l 121 0 l 121 998 l 221 998 l 221 877 q 545 1023 354 1023 q 873 870 746 1023 q 1001 493 1001 717 q 887 120 1001 265 q 604 -25 774 -25 q 358 102 455 -25 "},"Ũ":{"x_min":125,"x_max":786,"ha":910,"o":"m 125 998 l 225 998 l 225 395 q 229 261 225 288 q 263 163 236 202 q 347 96 290 123 q 460 70 403 70 q 555 91 509 70 q 631 149 600 112 q 675 239 661 186 q 686 395 686 277 l 686 998 l 786 998 l 786 395 q 759 179 786 261 q 655 36 733 97 q 465 -25 576 -25 q 258 32 344 -25 q 143 185 172 90 q 125 395 125 243 l 125 998 m 661 1213 l 709 1147 q 626 1100 660 1112 q 555 1088 593 1088 q 455 1113 507 1088 q 399 1138 411 1134 q 363 1143 382 1143 q 318 1134 340 1143 q 256 1096 297 1126 l 212 1165 q 364 1231 273 1231 q 468 1204 408 1231 q 559 1178 526 1178 q 661 1213 596 1178 "},"L":{"x_min":121,"x_max":604.15625,"ha":641,"o":"m 121 997 l 221 997 l 221 96 l 604 96 l 604 0 l 121 0 l 121 997 "},"σ":{"x_min":71,"x_max":969,"ha":996,"o":"m 969 655 l 717 655 q 839 367 839 536 q 728 92 839 204 q 455 -19 618 -19 q 181 92 292 -19 q 71 366 71 203 q 180 641 71 526 q 455 757 290 757 q 580 738 521 757 l 969 738 l 969 655 m 455 664 q 252 576 336 664 q 168 364 168 489 q 249 157 168 243 q 455 71 331 71 q 666 161 589 71 q 743 364 743 250 q 659 575 743 487 q 455 664 575 664 "},";":{"x_min":87,"x_max":294,"ha":385,"o":"m 210 757 q 269 732 245 757 q 294 673 294 708 q 269 613 294 637 q 210 589 245 589 q 151 613 175 589 q 127 673 127 637 q 151 732 127 707 q 210 757 175 757 m 200 183 l 291 139 l 154 -116 l 87 -87 l 200 183 "},"ď":{"x_min":74,"x_max":997,"ha":951,"o":"m 842 1023 l 842 0 l 748 0 l 748 126 q 452 -20 628 -20 q 180 98 287 -20 q 74 370 74 216 q 184 641 74 526 q 455 757 295 757 q 748 601 637 757 l 748 1023 l 842 1023 m 462 665 q 253 575 336 665 q 170 367 170 486 q 255 156 170 246 q 462 67 340 67 q 665 146 575 67 q 755 364 755 225 q 667 582 755 499 q 462 665 580 665 m 947 705 l 903 731 q 941 864 941 802 l 893 864 l 893 1023 l 997 1023 l 997 923 q 987 809 997 851 q 947 705 978 766 "},"θ":{"x_min":71,"x_max":839,"ha":910,"o":"m 455 -19 q 172 123 273 -19 q 71 508 71 265 q 172 897 71 753 q 455 1042 273 1042 q 738 897 637 1042 q 839 508 839 753 q 738 123 839 265 q 455 -19 637 -19 m 736 553 q 660 847 736 739 q 454 955 585 955 q 249 847 324 955 q 173 553 173 740 l 736 553 m 738 470 l 172 470 q 246 174 172 280 q 455 68 321 68 q 663 173 588 68 q 738 470 738 278 "},"Ο":{"x_min":78,"x_max":1128,"ha":1207,"o":"m 596 1023 q 975 871 822 1023 q 1128 499 1128 720 q 975 127 1128 280 q 604 -25 823 -25 q 230 126 383 -25 q 78 494 78 278 q 147 761 78 638 q 336 953 216 883 q 596 1023 456 1023 m 601 925 q 392 867 491 925 q 237 712 293 809 q 182 494 182 614 q 304 194 182 316 q 601 72 427 72 q 815 128 717 72 q 969 282 914 184 q 1025 499 1025 379 q 969 713 1025 617 q 814 867 914 809 q 601 925 713 925 "}," ":{"x_min":0,"x_max":0,"ha":385},"Ĭ":{"x_min":-83.578125,"x_max":397.5625,"ha":314,"o":"m 107 998 l 207 998 l 207 0 l 107 0 l 107 998 m -83 1237 l 5 1237 q 67 1183 29 1201 q 160 1166 106 1166 q 247 1181 214 1166 q 310 1237 280 1197 l 397 1237 q 321 1134 382 1175 q 159 1093 259 1093 q -3 1133 59 1093 q -83 1237 -66 1174 "},"ŧ":{"x_min":43,"x_max":451,"ha":471,"o":"m 284 412 l 451 412 l 451 333 l 284 333 l 284 0 l 189 0 l 189 333 l 43 333 l 43 412 l 189 412 l 189 657 l 59 657 l 59 738 l 189 738 l 189 1012 l 284 1012 l 284 738 l 435 738 l 435 657 l 284 657 l 284 412 "},"∑":{"x_min":83,"x_max":940,"ha":990,"o":"m 94 1042 l 933 1042 l 933 931 l 262 931 l 674 390 l 236 -180 l 940 -180 l 940 -289 l 83 -289 l 83 -162 l 502 386 l 94 922 l 94 1042 "},"Ώ":{"x_min":-68.1875,"x_max":1073,"ha":1161,"o":"m 747 94 l 1041 94 l 1041 0 l 661 0 l 661 133 q 916 359 862 264 q 970 556 970 453 q 862 824 970 724 q 580 924 754 924 q 299 824 407 924 q 191 556 191 724 q 241 361 191 453 q 500 133 292 269 l 500 0 l 120 0 l 120 94 l 413 94 q 152 323 216 216 q 88 558 88 429 q 226 893 88 765 q 580 1022 365 1022 q 934 893 795 1022 q 1073 558 1073 765 q 1008 323 1073 429 q 747 94 944 216 m 41 1023 l 41 794 l -48 794 l -68 1023 l 41 1023 "},"À":{"x_min":33.234375,"x_max":994.203125,"ha":1027,"o":"m 528 997 l 994 0 l 887 0 l 730 328 l 300 328 l 144 0 l 33 0 l 504 997 l 528 997 m 516 785 l 345 424 l 686 424 l 516 785 m 472 1284 l 620 1076 l 526 1076 l 326 1284 l 472 1284 "},"ẃ":{"x_min":6.109375,"x_max":1148.140625,"ha":1154,"o":"m 6 738 l 103 738 l 329 202 l 566 738 l 583 738 l 819 202 l 1049 738 l 1148 738 l 828 0 l 809 0 l 575 528 l 338 0 l 320 0 l 6 738 m 623 1084 l 769 1084 l 568 875 l 475 875 l 623 1084 "},"Ϊ":{"x_min":-60,"x_max":374,"ha":314,"o":"m 107 998 l 207 998 l 207 0 l 107 0 l 107 998 m 18 1232 q 73 1208 50 1232 q 97 1153 97 1185 q 73 1098 97 1121 q 18 1075 50 1075 q -36 1098 -13 1075 q -60 1153 -60 1121 q -36 1208 -60 1185 q 18 1232 -13 1232 m 295 1232 q 350 1208 327 1232 q 374 1153 374 1185 q 350 1098 374 1121 q 295 1075 327 1075 q 240 1098 263 1075 q 217 1153 217 1121 q 240 1208 217 1185 q 295 1232 263 1232 "},"+":{"x_min":78,"x_max":764,"ha":841,"o":"m 374 545 l 374 840 l 467 840 l 467 545 l 764 545 l 764 452 l 467 452 l 467 158 l 374 158 l 374 452 l 78 452 l 78 545 l 374 545 "},"½":{"x_min":70.28125,"x_max":1068,"ha":1154,"o":"m 119 1010 l 247 1010 l 247 497 l 172 497 l 172 944 l 70 944 l 119 1010 m 187 -24 l 813 1022 l 889 1022 l 262 -24 l 187 -24 m 737 334 l 665 334 q 722 466 665 414 q 869 519 779 519 q 1007 472 954 519 q 1060 362 1060 426 q 1037 283 1060 321 q 940 177 1015 245 l 811 61 l 1068 61 l 1068 -6 l 636 -6 l 878 214 q 968 307 950 279 q 986 360 986 334 q 952 425 986 397 q 867 453 918 453 q 775 421 809 453 q 737 334 741 390 "},"Ë":{"x_min":122,"x_max":694,"ha":745,"o":"m 122 998 l 694 998 l 694 900 l 222 900 l 222 588 l 689 588 l 689 490 l 222 490 l 222 98 l 689 98 l 689 0 l 122 0 l 122 998 m 275 1232 q 330 1208 307 1232 q 354 1153 354 1185 q 330 1098 354 1121 q 275 1075 307 1075 q 220 1098 243 1075 q 197 1153 197 1121 q 220 1208 197 1185 q 275 1232 243 1232 m 551 1232 q 606 1208 583 1232 q 630 1153 630 1185 q 606 1098 630 1121 q 551 1075 583 1075 q 496 1098 519 1075 q 473 1153 473 1121 q 496 1208 473 1185 q 551 1232 519 1232 "},"'":{"x_min":95,"x_max":180,"ha":275,"o":"m 180 709 l 95 709 l 95 1023 l 180 1023 l 180 709 "},"Š":{"x_min":17.9375,"x_max":602,"ha":692,"o":"m 17 185 l 102 236 q 309 72 192 72 q 403 95 359 72 q 470 158 447 118 q 494 241 494 197 q 460 339 494 291 q 289 500 413 406 q 133 636 164 594 q 81 789 81 706 q 112 907 81 854 q 200 992 143 961 q 323 1023 256 1023 q 455 988 393 1023 q 585 859 516 953 l 503 797 q 407 896 447 872 q 321 920 367 920 q 222 883 260 920 q 184 793 184 846 q 197 730 184 760 q 247 663 211 699 q 375 563 266 644 q 553 393 505 468 q 602 243 602 318 q 519 55 602 135 q 319 -25 437 -25 q 154 23 228 -25 q 17 185 80 72 m 390 1074 l 295 1074 l 99 1248 l 221 1248 l 341 1145 l 465 1248 l 591 1248 l 390 1074 "},"ĳ":{"x_min":61,"x_max":497,"ha":559,"o":"m 139 1042 q 194 1018 171 1042 q 218 963 218 995 q 194 908 218 931 q 139 885 171 885 q 84 908 107 885 q 61 963 61 931 q 84 1019 61 997 q 139 1042 107 1042 m 419 1042 q 473 1019 450 1042 q 497 963 497 997 q 473 908 497 931 q 419 885 450 885 q 364 908 387 885 q 341 963 341 931 q 364 1019 341 997 q 419 1042 387 1042 m 91 738 l 187 738 l 187 0 l 91 0 l 91 738 m 372 738 l 468 738 l 468 -111 q 342 -289 468 -289 q 234 -265 292 -289 l 234 -180 q 302 -200 271 -200 q 345 -185 329 -200 q 367 -152 362 -171 q 372 -83 372 -134 l 372 738 "},"˛":{"x_min":129,"x_max":347.796875,"ha":420,"o":"m 210 0 l 284 0 q 202 -131 202 -70 q 227 -184 202 -162 q 301 -206 252 -206 q 347 -202 320 -206 l 341 -260 q 283 -267 313 -267 q 168 -231 208 -267 q 129 -144 129 -195 q 210 0 129 -56 "},"ð":{"x_min":71,"x_max":840,"ha":909,"o":"m 291 1022 l 425 1022 q 494 969 460 997 l 605 1016 l 640 943 l 561 911 q 774 635 708 769 q 840 384 840 501 q 789 178 840 272 q 649 32 738 84 q 451 -19 559 -19 q 182 94 294 -19 q 71 371 71 207 q 181 644 71 532 q 442 757 291 757 q 612 712 521 757 q 468 872 548 799 l 320 811 l 285 883 l 404 932 q 291 1022 339 986 m 460 666 q 270 599 355 666 q 167 373 167 517 q 251 158 167 244 q 454 72 335 72 q 599 110 532 72 q 704 218 666 149 q 742 371 742 286 q 705 524 742 456 q 604 629 669 592 q 460 666 538 666 "},"Φ":{"x_min":68,"x_max":1126,"ha":1194,"o":"m 647 104 l 647 0 l 547 0 l 547 105 q 197 214 327 105 q 68 504 68 323 q 198 794 68 683 q 547 906 329 906 l 547 998 l 647 998 l 647 905 q 996 795 866 905 q 1126 505 1126 686 q 995 215 1126 326 q 647 104 864 104 m 647 814 l 647 196 q 915 271 807 196 q 1023 506 1023 347 q 923 730 1023 647 q 647 814 824 814 m 547 197 l 547 815 q 278 739 386 815 q 171 504 171 663 q 270 280 171 363 q 547 197 369 197 "},"ş":{"x_min":36.78125,"x_max":477,"ha":539,"o":"m 476 657 l 415 594 q 267 668 340 668 q 188 637 221 668 q 155 566 155 606 q 182 497 155 530 q 296 419 209 464 q 439 314 401 364 q 477 198 477 262 q 413 44 477 107 q 254 -19 349 -19 q 132 8 190 -19 q 36 85 74 36 l 96 153 q 250 71 168 71 q 346 107 306 71 q 387 193 387 144 q 360 266 387 234 q 241 345 334 297 q 105 446 141 396 q 70 561 70 497 q 127 701 70 645 q 271 757 184 757 q 476 657 373 757 m 230 0 l 290 0 l 278 -79 q 304 -77 294 -77 q 360 -98 338 -77 q 383 -150 383 -119 q 342 -226 383 -195 q 227 -258 301 -258 q 113 -237 166 -258 l 128 -190 q 210 -204 172 -204 q 281 -191 261 -204 q 302 -160 302 -178 q 290 -139 302 -148 q 259 -130 279 -130 q 212 -137 243 -130 l 230 0 "},"ı":{"x_min":92,"x_max":188,"ha":279,"o":"m 92 738 l 188 738 l 188 0 l 92 0 l 92 738 "},"Ć":{"x_min":75,"x_max":1050.09375,"ha":1129,"o":"m 1050 813 l 971 752 q 815 881 906 837 q 614 925 723 925 q 393 867 495 925 q 235 713 291 810 q 180 495 180 616 q 305 191 180 313 q 620 69 430 69 q 971 233 830 69 l 1050 173 q 863 26 975 78 q 614 -25 752 -25 q 201 149 352 -25 q 75 504 75 296 q 228 873 75 723 q 613 1023 382 1023 q 865 967 753 1023 q 1050 813 978 912 m 667 1282 l 813 1282 l 613 1074 l 519 1074 l 667 1282 "},"ä":{"x_min":73,"x_max":841,"ha":949,"o":"m 841 738 l 841 0 l 747 0 l 747 126 q 613 16 687 53 q 451 -20 539 -20 q 183 93 294 -20 q 73 370 73 207 q 184 643 73 530 q 454 757 296 757 q 618 718 544 757 q 747 601 692 679 l 747 738 l 841 738 m 461 665 q 315 625 382 665 q 208 516 248 586 q 169 367 169 445 q 208 217 169 288 q 316 106 248 146 q 461 67 383 67 q 608 106 539 67 q 716 212 678 145 q 754 364 754 280 q 669 578 754 492 q 461 665 585 665 m 336 1029 q 391 1005 368 1029 q 415 950 415 982 q 391 895 415 918 q 336 872 368 872 q 281 895 304 872 q 258 950 258 918 q 281 1005 258 982 q 336 1029 304 1029 m 613 1029 q 668 1005 645 1029 q 692 950 692 982 q 668 895 692 918 q 613 872 645 872 q 558 895 581 872 q 535 950 535 918 q 558 1005 535 982 q 613 1029 581 1029 "},"¹":{"x_min":102.28125,"x_max":279,"ha":461,"o":"m 151 1010 l 279 1010 l 279 497 l 204 497 l 204 944 l 102 944 l 151 1010 "},"£":{"x_min":39,"x_max":730,"ha":771,"o":"m 67 573 l 240 573 q 199 726 203 702 q 192 799 192 765 q 262 956 192 890 q 438 1023 333 1023 q 555 994 506 1023 q 635 910 604 965 q 667 763 667 856 l 577 763 q 539 888 577 845 q 439 932 502 932 q 329 893 371 932 q 287 793 287 855 q 306 682 287 738 l 311 670 l 341 573 l 558 573 l 558 485 l 364 485 q 390 305 390 399 q 375 178 390 233 q 489 100 416 143 q 564 76 530 76 q 630 233 630 76 l 730 233 q 706 89 730 153 q 649 0 683 25 q 573 -25 615 -25 q 475 -1 528 -25 q 341 83 402 31 q 181 -25 285 -25 q 77 9 115 -25 q 39 102 39 43 q 83 213 39 167 q 189 260 128 260 q 287 233 235 260 q 292 305 292 278 q 261 485 292 400 l 67 485 l 67 573 m 261 140 q 184 168 215 168 q 146 153 161 168 q 132 115 132 138 q 145 79 132 94 q 177 65 158 65 q 261 140 228 65 "},"ů":{"x_min":94,"x_max":740,"ha":845,"o":"m 94 738 l 190 738 l 190 393 q 203 219 190 267 q 281 112 223 151 q 417 73 338 73 q 552 111 497 73 q 628 212 607 149 q 643 393 643 254 l 643 738 l 740 738 l 740 375 q 704 145 740 223 q 597 24 668 68 q 417 -19 525 -19 q 237 24 309 -19 q 129 146 165 68 q 94 382 94 225 l 94 738 m 396 1147 q 498 1104 456 1147 q 541 1001 541 1062 q 498 899 541 941 q 396 857 456 857 q 294 899 336 857 q 252 1001 252 941 q 294 1104 252 1062 q 396 1147 336 1147 m 395 1078 q 342 1055 364 1078 q 321 1003 321 1033 q 342 951 321 973 q 395 929 364 929 q 448 951 426 929 q 470 1003 470 973 q 448 1055 470 1033 q 395 1078 426 1078 "},"Ō":{"x_min":78,"x_max":1128,"ha":1207,"o":"m 596 1023 q 975 871 822 1023 q 1128 499 1128 720 q 975 127 1128 280 q 604 -25 823 -25 q 230 126 383 -25 q 78 494 78 278 q 147 761 78 638 q 336 953 216 883 q 596 1023 456 1023 m 601 925 q 392 867 491 925 q 237 712 293 809 q 182 494 182 614 q 304 194 182 316 q 601 72 427 72 q 815 128 717 72 q 969 282 914 184 q 1025 499 1025 379 q 969 713 1025 617 q 814 867 914 809 q 601 925 713 925 m 370 1206 l 838 1206 l 838 1125 l 370 1125 l 370 1206 "},"λ":{"x_min":26.453125,"x_max":727.671875,"ha":745,"o":"m 727 0 l 626 0 l 380 568 l 126 0 l 26 0 l 329 682 l 180 1023 l 280 1023 l 727 0 "},"W":{"x_min":65.109375,"x_max":1268.171875,"ha":1333,"o":"m 65 998 l 167 998 l 370 278 l 656 998 l 676 998 l 959 278 l 1166 998 l 1268 998 l 981 0 l 963 0 l 667 755 l 365 0 l 346 0 l 65 998 "},"Ğ":{"x_min":79,"x_max":1142,"ha":1211,"o":"m 1083 830 l 1006 757 q 823 881 923 839 q 629 924 724 924 q 406 866 512 924 q 241 709 299 808 q 183 501 183 611 q 243 287 183 388 q 410 128 303 186 q 643 70 516 70 q 904 156 798 70 q 1030 382 1011 243 l 713 382 l 713 478 l 1142 478 q 1005 110 1142 246 q 641 -25 869 -25 q 203 163 364 -25 q 79 499 79 308 q 150 763 79 641 q 345 954 221 885 q 626 1023 469 1023 q 865 977 753 1023 q 1083 830 977 931 m 364 1233 l 454 1233 q 515 1180 477 1198 q 608 1163 554 1163 q 695 1178 662 1163 q 759 1233 729 1194 l 845 1233 q 769 1131 830 1172 q 607 1090 708 1090 q 444 1130 507 1090 q 364 1233 381 1170 "},"v":{"x_min":35.9375,"x_max":730.390625,"ha":770,"o":"m 35 738 l 136 738 l 383 200 l 628 738 l 730 738 l 392 0 l 375 0 l 35 738 "},">":{"x_min":71,"x_max":772,"ha":843,"o":"m 71 235 l 640 497 l 71 762 l 71 862 l 772 542 l 772 454 l 71 136 l 71 235 "},"τ":{"x_min":34,"x_max":524,"ha":558,"o":"m 524 655 l 327 655 l 327 0 l 231 0 l 231 655 l 34 655 l 34 738 l 524 738 l 524 655 "},"û":{"x_min":94,"x_max":740,"ha":845,"o":"m 94 738 l 190 738 l 190 393 q 203 219 190 267 q 281 112 223 151 q 417 73 338 73 q 552 111 497 73 q 628 212 607 149 q 643 393 643 254 l 643 738 l 740 738 l 740 375 q 704 145 740 223 q 597 24 668 68 q 417 -19 525 -19 q 237 24 309 -19 q 129 146 165 68 q 94 382 94 225 l 94 738 m 377 1045 l 472 1045 l 668 872 l 546 872 l 427 974 l 302 872 l 176 872 l 377 1045 "},"Ź":{"x_min":38.25,"x_max":609.03125,"ha":667,"o":"m 83 902 l 83 998 l 609 998 l 192 97 l 588 97 l 588 0 l 38 0 l 457 902 l 83 902 m 357 1285 l 503 1285 l 303 1076 l 209 1076 l 357 1285 "},"Ų":{"x_min":125,"x_max":786,"ha":910,"o":"m 125 997 l 225 997 l 225 395 q 229 261 225 288 q 263 163 236 202 q 346 96 290 123 q 460 69 403 69 q 555 90 509 69 q 631 149 600 111 q 675 239 661 186 q 686 395 686 277 l 686 997 l 786 997 l 786 395 q 759 179 786 261 q 655 35 733 96 q 465 -25 576 -25 q 258 32 344 -25 q 143 185 172 90 q 125 395 125 243 l 125 997 m 461 0 l 535 0 q 453 -131 453 -69 q 478 -184 453 -162 q 552 -206 503 -206 q 599 -202 571 -206 l 592 -260 q 535 -267 564 -267 q 419 -230 459 -267 q 380 -144 380 -194 q 461 0 380 -56 "},"Ŵ":{"x_min":65.109375,"x_max":1268.171875,"ha":1333,"o":"m 65 998 l 167 998 l 370 278 l 656 998 l 676 998 l 959 278 l 1166 998 l 1268 998 l 981 0 l 963 0 l 667 755 l 365 0 l 346 0 l 65 998 m 621 1248 l 716 1248 l 912 1074 l 790 1074 l 671 1176 l 546 1074 l 420 1074 l 621 1248 "},"‛":{"x_min":194,"x_max":317,"ha":488,"o":"m 251 650 q 204 771 215 721 q 194 906 194 821 l 194 1023 l 317 1023 l 317 836 l 259 836 q 304 679 259 763 l 251 650 "},"Λ":{"x_min":45.4375,"x_max":929.09375,"ha":975,"o":"m 929 0 l 820 0 l 490 771 l 153 0 l 45 0 l 479 998 l 501 998 l 929 0 "},"Ð":{"x_min":23,"x_max":1025,"ha":1097,"o":"m 144 452 l 23 452 l 23 545 l 144 545 l 144 998 l 392 998 q 717 962 615 998 q 943 785 861 911 q 1025 486 1025 660 q 960 222 1025 336 q 792 54 895 108 q 502 0 688 0 l 144 0 l 144 452 m 240 452 l 240 94 l 395 94 q 682 119 602 94 q 860 251 795 156 q 925 484 925 347 q 854 732 925 629 q 659 872 784 834 q 351 901 566 901 l 240 901 l 240 545 l 502 545 l 502 452 l 240 452 "},"ˉ":{"x_min":103,"x_max":571,"ha":673,"o":"m 103 1004 l 571 1004 l 571 923 l 103 923 l 103 1004 "},"·":{"x_min":127,"x_max":294,"ha":385,"o":"m 294 673 q 269 613 294 637 q 210 589 245 589 q 151 613 175 589 q 127 673 127 637 q 151 732 127 708 q 210 757 175 757 q 269 732 245 757 q 294 673 294 708 "},"Υ":{"x_min":42.859375,"x_max":779.03125,"ha":822,"o":"m 42 998 l 158 998 l 412 586 l 663 998 l 779 998 l 463 476 l 463 0 l 365 0 l 365 476 l 42 998 "},"Ĺ":{"x_min":121,"x_max":604.15625,"ha":641,"o":"m 121 997 l 221 997 l 221 96 l 604 96 l 604 0 l 121 0 l 121 997 m 370 1285 l 516 1285 l 315 1077 l 222 1077 l 370 1285 "},"r":{"x_min":70,"x_max":443.015625,"ha":418,"o":"m 70 738 l 167 738 l 167 630 q 258 725 210 694 q 358 757 306 757 q 443 731 398 757 l 393 652 q 343 665 363 665 q 251 625 295 665 q 184 504 207 586 q 167 249 167 441 l 167 0 l 70 0 l 70 738 "},"₤":{"x_min":39,"x_max":730,"ha":771,"o":"m 315 655 l 558 655 l 558 567 l 343 567 l 364 491 l 558 491 l 558 403 l 383 403 q 390 310 390 357 q 375 178 390 225 q 562 76 506 76 q 630 233 630 76 l 730 233 q 688 47 730 120 q 573 -25 647 -25 q 341 83 470 -25 q 178 -25 285 -25 q 81 5 123 -25 q 39 102 39 36 q 84 214 39 169 q 189 260 130 260 q 287 233 238 260 q 292 306 292 276 q 282 403 292 357 l 67 403 l 67 491 l 261 491 l 241 567 l 67 567 l 67 655 l 217 655 q 192 794 192 741 q 265 958 192 893 q 437 1023 338 1023 q 604 953 541 1023 q 668 763 668 883 l 575 763 q 441 932 575 932 q 326 891 366 932 q 287 794 287 851 q 315 655 287 741 m 261 140 q 184 168 217 168 q 146 152 161 168 q 132 115 132 137 q 145 79 132 94 q 178 65 158 65 q 261 140 230 65 "},"Č":{"x_min":75,"x_max":1050.09375,"ha":1129,"o":"m 1050 813 l 971 752 q 815 881 906 837 q 614 925 723 925 q 393 867 495 925 q 235 713 291 810 q 180 495 180 616 q 305 191 180 313 q 620 69 430 69 q 971 233 830 69 l 1050 173 q 863 26 975 78 q 614 -25 752 -25 q 201 149 352 -25 q 75 504 75 296 q 228 873 75 723 q 613 1023 382 1023 q 865 967 753 1023 q 1050 813 978 912 m 658 1070 l 563 1070 l 367 1244 l 489 1244 l 609 1141 l 733 1244 l 859 1244 l 658 1070 "},"x":{"x_min":-4.75,"x_max":672.0625,"ha":667,"o":"m 21 738 l 135 738 l 330 464 l 526 738 l 640 738 l 387 387 l 672 0 l 556 0 l 330 309 l 108 0 l -4 0 l 274 387 l 21 738 "},"è":{"x_min":71,"x_max":831.203125,"ha":903,"o":"m 727 244 l 807 202 q 716 77 768 125 q 600 5 665 30 q 454 -19 536 -19 q 172 99 274 -19 q 71 366 71 217 q 157 617 71 507 q 449 757 266 757 q 751 613 638 757 q 831 361 831 512 l 170 361 q 249 150 170 232 q 446 68 329 68 q 555 87 502 68 q 646 139 609 107 q 727 244 683 172 m 727 443 q 672 564 708 519 q 576 638 635 610 q 450 666 516 666 q 264 595 342 666 q 178 443 207 544 l 727 443 m 410 1083 l 558 875 l 465 875 l 264 1083 l 410 1083 "},"Ń":{"x_min":122,"x_max":905,"ha":1027,"o":"m 122 0 l 122 998 l 143 998 l 807 234 l 807 998 l 905 998 l 905 0 l 882 0 l 225 754 l 225 0 l 122 0 m 583 1285 l 729 1285 l 528 1076 l 435 1076 l 583 1285 "},"Ø":{"x_min":77,"x_max":1127,"ha":1205,"o":"m 985 860 q 1090 698 1053 791 q 1127 499 1127 606 q 974 127 1127 280 q 603 -25 822 -25 q 307 61 437 -25 l 196 -69 l 123 -10 l 235 120 q 77 494 77 274 q 146 761 77 638 q 337 953 216 884 q 602 1023 458 1023 q 918 922 776 1023 l 1016 1040 l 1087 981 l 985 860 m 300 197 l 850 844 q 600 925 735 925 q 391 867 490 925 q 236 712 292 809 q 181 493 181 614 q 300 197 181 320 m 918 781 l 373 138 q 600 72 476 72 q 814 128 716 72 q 968 282 913 184 q 1024 499 1024 379 q 918 781 1024 664 "},"Ỳ":{"x_min":42.859375,"x_max":779.03125,"ha":822,"o":"m 42 998 l 158 998 l 412 586 l 663 998 l 779 998 l 463 476 l 463 0 l 365 0 l 365 476 l 42 998 m 370 1285 l 517 1076 l 424 1076 l 224 1285 l 370 1285 "},"μ":{"x_min":98,"x_max":742,"ha":848,"o":"m 742 1 l 647 1 l 647 132 q 370 -19 532 -19 q 193 60 252 -19 l 193 -270 l 98 -270 l 98 739 l 193 739 l 193 386 q 203 214 193 276 q 261 110 214 152 q 389 69 309 69 q 544 125 477 69 q 629 249 611 182 q 647 468 647 317 l 647 739 l 742 739 l 742 1 "},"÷":{"x_min":38,"x_max":724,"ha":762,"o":"m 313 819 l 449 819 l 449 682 l 313 682 l 313 819 m 38 545 l 724 545 l 724 452 l 38 452 l 38 545 m 313 316 l 449 316 l 449 177 l 313 177 l 313 316 "},"h":{"x_min":106,"x_max":750,"ha":848,"o":"m 106 1022 l 201 1022 l 201 605 q 327 719 258 681 q 477 757 397 757 q 624 714 560 757 q 719 601 688 672 q 750 379 750 531 l 750 0 l 655 0 l 655 351 q 644 521 655 479 q 580 632 627 595 q 458 669 534 669 q 304 612 372 669 q 214 471 236 555 q 201 270 201 416 l 201 0 l 106 0 l 106 1022 "},".":{"x_min":127,"x_max":294,"ha":385,"o":"m 210 149 q 269 124 245 149 q 294 65 294 100 q 269 5 294 30 q 210 -19 245 -19 q 151 5 175 -19 q 127 65 127 30 q 151 124 127 100 q 210 149 175 149 "},"f":{"x_min":54,"x_max":410,"ha":436,"o":"m 410 1022 l 410 929 q 320 952 358 952 q 274 940 293 952 q 251 915 256 929 q 247 837 247 900 l 247 738 l 401 738 l 401 657 l 246 657 l 246 0 l 151 0 l 151 657 l 54 657 l 54 738 l 151 738 l 151 853 q 165 966 151 932 q 215 1021 180 1000 q 299 1042 249 1042 q 410 1022 345 1042 "},"“":{"x_min":138,"x_max":563,"ha":697,"o":"m 195 1023 l 248 994 q 214 913 222 942 q 200 838 205 884 l 261 838 l 261 651 l 138 651 l 138 767 q 149 905 138 855 q 195 1023 161 955 m 497 1023 l 550 994 q 516 913 524 942 q 502 838 507 884 l 563 838 l 563 651 l 440 651 l 440 767 q 451 905 440 855 q 497 1023 463 955 "},"A":{"x_min":33.234375,"x_max":994.203125,"ha":1027,"o":"m 528 997 l 994 0 l 887 0 l 730 328 l 300 328 l 144 0 l 33 0 l 504 997 l 528 997 m 516 785 l 345 424 l 686 424 l 516 785 "},"‘":{"x_min":194,"x_max":317,"ha":488,"o":"m 251 1023 l 304 994 q 270 913 278 942 q 256 838 261 884 l 317 838 l 317 651 l 194 651 l 194 767 q 205 905 194 855 q 251 1023 217 955 "},"π":{"x_min":34,"x_max":897,"ha":931,"o":"m 897 655 l 748 655 l 748 0 l 652 0 l 652 655 l 280 655 l 280 0 l 184 0 l 184 655 l 34 655 l 34 738 l 897 738 l 897 655 "},"O":{"x_min":78,"x_max":1128,"ha":1207,"o":"m 596 1023 q 975 871 822 1023 q 1128 499 1128 720 q 975 127 1128 280 q 604 -25 823 -25 q 230 126 383 -25 q 78 494 78 278 q 147 761 78 638 q 336 953 216 883 q 596 1023 456 1023 m 601 925 q 392 867 491 925 q 237 712 293 809 q 182 494 182 614 q 304 194 182 316 q 601 72 427 72 q 815 128 717 72 q 969 282 914 184 q 1025 499 1025 379 q 969 713 1025 617 q 814 867 914 809 q 601 925 713 925 "},"Đ":{"x_min":23,"x_max":1025,"ha":1097,"o":"m 144 452 l 23 452 l 23 545 l 144 545 l 144 998 l 392 998 q 717 962 615 998 q 943 785 861 911 q 1025 486 1025 660 q 960 222 1025 336 q 792 54 895 108 q 502 0 688 0 l 144 0 l 144 452 m 240 452 l 240 94 l 395 94 q 682 119 602 94 q 860 251 795 156 q 925 484 925 347 q 854 732 925 629 q 659 872 784 834 q 351 901 566 901 l 240 901 l 240 545 l 502 545 l 502 452 l 240 452 "},"3":{"x_min":49.3125,"x_max":717,"ha":771,"o":"m 184 767 l 82 767 q 189 956 110 890 q 374 1023 267 1023 q 520 987 453 1023 q 625 891 588 951 q 662 765 662 831 q 533 561 662 636 q 652 475 605 531 q 717 297 717 396 q 672 136 717 213 q 550 17 627 59 q 377 -25 472 -25 q 161 49 248 -25 q 49 267 75 123 l 146 267 q 220 126 172 170 q 378 72 282 72 q 553 137 487 72 q 619 291 619 203 q 585 400 619 349 q 497 478 552 452 q 326 504 442 504 l 326 599 q 450 623 394 599 q 532 684 507 647 q 558 765 558 721 q 506 878 558 831 q 374 926 454 926 q 263 889 310 926 q 184 767 216 853 "},"9":{"x_min":68,"x_max":682,"ha":769,"o":"m 266 -24 l 184 28 l 453 436 q 352 419 399 419 q 150 504 233 419 q 68 716 68 590 q 107 871 68 802 q 221 982 147 941 q 379 1024 295 1024 q 531 983 461 1024 q 642 871 602 943 q 682 718 682 800 q 657 589 682 656 q 568 426 632 521 l 266 -24 m 375 507 q 523 568 462 507 q 585 716 585 629 q 523 864 585 803 q 375 926 462 926 q 227 864 288 926 q 166 716 166 803 q 227 568 166 629 q 375 507 288 507 "},"Ǿ":{"x_min":77,"x_max":1127,"ha":1205,"o":"m 985 860 q 1090 698 1053 791 q 1127 499 1127 606 q 974 127 1127 280 q 603 -25 822 -25 q 307 61 437 -25 l 196 -69 l 123 -10 l 235 120 q 77 494 77 274 q 146 761 77 638 q 337 953 216 884 q 602 1023 458 1023 q 918 922 776 1023 l 1016 1040 l 1087 981 l 985 860 m 300 197 l 850 844 q 600 925 735 925 q 391 867 490 925 q 236 712 292 809 q 181 493 181 614 q 300 197 181 320 m 918 781 l 373 138 q 600 72 476 72 q 814 128 716 72 q 968 282 913 184 q 1024 499 1024 379 q 918 781 1024 664 m 648 1286 l 794 1286 l 594 1077 l 500 1077 l 648 1286 "},"⅛":{"x_min":103.265625,"x_max":1122,"ha":1154,"o":"m 192 -24 l 818 1023 l 894 1023 l 267 -24 l 192 -24 m 152 1010 l 280 1010 l 280 497 l 205 497 l 205 944 l 103 944 l 152 1010 m 1023 280 q 1122 149 1122 234 q 1069 36 1122 84 q 922 -12 1016 -12 q 774 37 824 -12 q 724 145 724 86 q 825 280 724 233 q 752 389 752 318 q 802 485 752 444 q 926 526 853 526 q 1047 484 1000 526 q 1095 386 1095 442 q 1023 280 1095 318 m 1020 389 q 993 439 1020 420 q 923 459 967 459 q 855 439 884 459 q 827 388 827 419 q 857 332 827 355 q 924 310 887 310 q 991 333 963 310 q 1020 389 1020 356 m 1047 148 q 1012 217 1047 189 q 926 246 977 246 q 838 218 876 246 q 800 143 800 190 q 836 76 800 98 q 923 54 873 54 q 1011 80 976 54 q 1047 148 1047 106 "},"l":{"x_min":92,"x_max":187,"ha":279,"o":"m 92 1023 l 187 1023 l 187 0 l 92 0 l 92 1023 "},"4":{"x_min":35.25,"x_max":732,"ha":769,"o":"m 591 1023 l 612 1023 l 612 328 l 732 328 l 732 232 l 612 232 l 612 0 l 512 0 l 512 232 l 35 232 l 591 1023 m 512 328 l 512 743 l 218 328 l 512 328 "},"Ẁ":{"x_min":65.109375,"x_max":1268.171875,"ha":1333,"o":"m 65 998 l 167 998 l 370 278 l 656 998 l 676 998 l 959 278 l 1166 998 l 1268 998 l 981 0 l 963 0 l 667 755 l 365 0 l 346 0 l 65 998 m 625 1285 l 773 1076 l 679 1076 l 479 1285 l 625 1285 "},"ψ":{"x_min":92,"x_max":931,"ha":1023,"o":"m 931 374 q 818 69 931 153 q 559 -15 705 -15 l 559 -270 l 464 -270 l 464 -14 q 268 25 348 -14 q 140 141 188 65 q 92 381 92 217 l 92 738 l 186 738 l 186 414 q 203 232 186 296 q 288 124 221 169 q 464 80 355 80 l 464 738 l 559 738 l 559 79 q 736 125 671 79 q 819 231 802 171 q 836 414 836 290 l 836 738 l 931 738 l 931 374 "},"Ť":{"x_min":22,"x_max":569,"ha":591,"o":"m 22 901 l 22 998 l 569 998 l 569 901 l 347 901 l 347 0 l 245 0 l 245 901 l 22 901 m 352 1071 l 257 1071 l 61 1245 l 183 1245 l 303 1142 l 427 1245 l 553 1245 l 352 1071 "},"Ś":{"x_min":17.9375,"x_max":602,"ha":692,"o":"m 17 185 l 102 236 q 309 72 192 72 q 403 95 359 72 q 470 158 447 118 q 494 241 494 197 q 460 339 494 291 q 289 500 413 406 q 133 636 164 594 q 81 789 81 706 q 112 907 81 854 q 200 992 143 961 q 323 1023 256 1023 q 455 988 393 1023 q 585 859 516 953 l 503 797 q 407 896 447 872 q 321 920 367 920 q 222 883 260 920 q 184 793 184 846 q 197 730 184 760 q 247 663 211 699 q 375 563 266 644 q 553 393 505 468 q 602 243 602 318 q 519 55 602 135 q 319 -25 437 -25 q 154 23 228 -25 q 17 185 80 72 m 373 1285 l 519 1285 l 319 1077 l 226 1077 l 373 1285 "},"Ü":{"x_min":125,"x_max":786,"ha":910,"o":"m 125 998 l 225 998 l 225 395 q 228 261 225 288 q 263 163 236 202 q 346 96 290 123 q 460 70 403 70 q 555 91 509 70 q 631 149 600 112 q 675 239 661 186 q 686 395 686 277 l 686 998 l 786 998 l 786 395 q 759 179 786 261 q 655 36 733 97 q 465 -25 576 -25 q 258 32 344 -25 q 143 185 172 90 q 125 395 125 243 l 125 998 m 316 1232 q 371 1208 348 1232 q 395 1153 395 1185 q 371 1098 395 1121 q 316 1075 348 1075 q 261 1098 284 1075 q 238 1153 238 1121 q 261 1208 238 1185 q 316 1232 284 1232 m 593 1232 q 648 1208 625 1232 q 672 1153 672 1185 q 648 1098 672 1121 q 593 1075 625 1075 q 538 1098 561 1075 q 515 1153 515 1121 q 538 1208 515 1185 q 593 1232 561 1232 "},"à":{"x_min":73,"x_max":841,"ha":949,"o":"m 841 738 l 841 0 l 747 0 l 747 126 q 613 16 688 53 q 451 -20 539 -20 q 183 93 294 -20 q 73 370 73 207 q 184 643 73 530 q 454 757 296 757 q 618 718 545 757 q 747 601 692 679 l 747 738 l 841 738 m 461 665 q 315 625 382 665 q 208 516 248 586 q 169 367 169 445 q 208 217 169 288 q 316 106 248 146 q 461 67 383 67 q 608 106 539 67 q 716 212 678 145 q 754 364 754 280 q 669 578 754 492 q 461 665 585 665 m 434 1083 l 581 875 l 488 875 l 288 1083 l 434 1083 "},"η":{"x_min":106,"x_max":749,"ha":847,"o":"m 749 -270 l 655 -270 l 655 351 q 644 523 655 462 q 586 627 633 585 q 458 669 539 669 q 303 612 370 669 q 218 488 236 555 q 201 270 201 420 l 201 0 l 106 0 l 106 738 l 201 738 l 201 605 q 477 757 314 757 q 620 717 556 757 q 716 606 683 677 q 749 379 749 535 l 749 -270 "},"ó":{"x_min":71,"x_max":839.296875,"ha":910,"o":"m 455 757 q 737 633 625 757 q 839 366 839 520 q 731 96 839 212 q 455 -19 624 -19 q 178 96 285 -19 q 71 366 71 212 q 172 632 71 520 q 455 757 284 757 m 455 664 q 252 576 337 664 q 168 364 168 489 q 206 215 168 284 q 311 108 245 146 q 455 71 376 71 q 599 108 534 71 q 704 215 665 146 q 743 364 743 284 q 657 576 743 489 q 455 664 572 664 m 501 1083 l 647 1083 l 447 875 l 353 875 l 501 1083 "},"ŗ":{"x_min":49.65625,"x_max":443.03125,"ha":418,"o":"m 70 738 l 167 738 l 167 630 q 258 725 210 694 q 358 757 306 757 q 443 731 398 757 l 393 652 q 343 665 363 665 q 251 625 295 665 q 184 504 207 586 q 167 249 167 441 l 167 0 l 70 0 l 70 738 m 133 -86 q 197 -76 164 -76 q 304 -150 304 -76 q 261 -227 304 -197 q 148 -258 219 -258 q 49 -242 105 -258 l 64 -194 q 135 -204 110 -204 q 223 -160 223 -204 q 173 -131 223 -131 q 124 -139 155 -131 l 133 -86 "}}}
